<svg width="1577" height="2099" viewBox="0 0 1577 2099" fill="none" xmlns="http://www.w3.org/2000/svg">
<rect x="15" y="53.6172" width="1544" height="1974.88" fill="#FFEAFA"/>
<rect x="15" y="53.6172" width="1544" height="1974.88" stroke="black"/>
<g opacity="0.5">
<path d="M282.791 251.857C275.756 254.027 268.785 256.996 262.018 260.794C243.351 271.271 229.167 286.412 220.498 303.357C208.239 327.32 207.008 354.891 219.721 377.989C220.21 378.877 220.714 379.75 221.235 380.609C236.615 405.977 265.904 418.903 296.924 416.809C311.527 415.823 326.514 411.508 340.613 403.594C349.858 398.405 358.003 392.073 364.924 384.944C383.248 366.066 392.984 341.603 391.805 318.001C391.259 307.068 388.371 296.321 382.91 286.399C378.264 277.958 372.133 270.799 364.924 265.008C343.509 247.805 312.577 242.669 282.791 251.857Z" fill="#FFFDD0" fill-opacity="0.5"/>
<path d="M262.018 260.794C268.785 256.996 275.756 254.027 282.791 251.857L281.857 216.008C281.857 216.008 280.127 211.062 278.924 207.929C278.924 207.929 268.148 183.313 259.424 168.546C255.012 161.078 253.307 156.215 247.424 149.864C239.321 141.117 232.978 137.547 221.924 133.203C213.358 129.837 208.115 128.007 198.924 128.153C188.358 128.321 181.91 130.112 172.924 135.727C164.821 140.789 161.357 145.495 155.924 153.399C148.377 164.378 145.694 172.041 143.424 185.208C141.515 196.281 141.502 202.918 143.424 213.988C145.515 226.036 148.431 232.643 154.424 243.273C160.202 253.523 165.931 257.556 172.924 267.004C178.957 275.155 182.066 279.928 187.924 288.21L220.498 303.357C229.167 286.412 243.351 271.271 262.018 260.794Z" fill="#FFAADD" fill-opacity="0.5"/>
<path d="M364.924 265.008C372.133 270.799 378.264 277.958 382.91 286.399C388.371 296.321 391.259 307.068 391.805 318.001L434.924 309.922C453.011 305.371 463.051 301.109 478.924 291.24C494.38 281.631 504.814 276.495 514.424 260.946C522.831 247.343 526.035 237.597 525.924 221.562L525.919 220.884C525.831 207.802 525.768 198.414 517.424 188.238C508.787 177.705 499.413 174.809 485.924 173.596C472.243 172.365 464.652 177.471 451.924 182.684C438.143 188.328 431.612 194.039 418.924 201.871C408.433 208.347 402.626 212.108 392.424 219.038L364.924 265.008Z" fill="#FFAADD" fill-opacity="0.5"/>
<path d="M364.924 384.944C358.003 392.073 349.858 398.405 340.613 403.594C326.514 411.508 311.527 415.823 296.924 416.809L294.424 443.219C295.692 453.741 296.681 459.623 298.924 469.979C301.829 483.394 301.841 491.792 308.424 503.808C313.399 512.889 317.112 517.766 324.924 524.509C332.637 531.168 337.782 534.44 347.424 537.637C362.08 542.496 372.313 542.633 386.924 537.637C397.648 533.97 404.235 530.817 411.424 521.985C418.839 512.874 420.538 505.419 421.924 493.71C423.157 483.287 421.636 477.206 419.424 466.949C416.506 453.426 412.835 446.216 406.622 434.015L406.424 433.625C399.465 419.959 394.657 412.619 384.924 400.806L364.924 384.944Z" fill="#FFAADD" fill-opacity="0.5"/>
<path d="M294.424 443.219L296.924 416.809C265.904 418.903 236.615 405.977 221.235 380.609L206.424 388.182C200.331 392.813 197.033 395.589 191.424 400.806C182.786 408.84 178.011 413.566 170.924 423.021C162.474 434.293 157.294 440.896 152.924 454.326C148.69 467.338 147.588 475.535 148.924 489.165C150.129 501.456 151.523 508.934 157.924 519.46C165.904 532.583 173.42 539.945 187.923 544.705C199.994 548.667 208.437 548.92 220.423 544.705C230.606 541.125 235.132 536.074 242.924 528.548C252.52 519.28 255.854 512.13 262.924 500.778C269.437 490.321 272.011 483.823 277.924 473.008C284.304 461.339 287.917 454.816 294.424 443.219Z" fill="#FFAADD" fill-opacity="0.5"/>
<path d="M434.924 309.922L391.805 318.001C392.984 341.603 383.248 366.066 364.924 384.944L384.924 400.806C392.537 405.147 396.807 407.58 404.424 411.914C416.915 419.022 423.239 424.401 436.424 430.091C455.672 438.397 467.811 446.9 488.424 443.218C505.476 440.173 517.606 435.742 526.924 421.002C534.904 408.379 535.039 397.958 532.924 383.134C530.644 367.162 524.922 358.442 514.424 346.276C503.46 333.569 494.147 329.193 479.047 322.098L478.924 322.04C462.776 314.452 452.107 314.654 434.924 309.922Z" fill="#FFAADD" fill-opacity="0.5"/>
<path d="M221.235 380.609C220.714 379.75 220.21 378.877 219.721 377.989C207.008 354.891 208.239 327.32 220.498 303.357L187.924 288.21C176.273 284.485 169.517 282.919 157.424 281.141C145.612 279.404 138.777 277.699 126.924 279.122C115.149 280.535 107.917 281.763 97.9237 288.21C88.845 294.067 84.3367 299 78.9237 308.406C72.2609 319.984 69.7781 328.39 70.9237 341.731C72.0423 354.757 75.4187 362.672 83.9237 372.53C91.0385 380.777 96.9537 383.908 106.924 388.182C119.66 393.642 128.104 393.067 141.924 393.736C156.584 394.447 164.809 392.576 179.424 391.212C189.988 390.226 195.903 389.562 206.424 388.182L221.235 380.609Z" fill="#FFAADD" fill-opacity="0.5"/>
<path d="M295.924 133.203C284.794 148.854 280.923 180.16 280.923 180.16L281.857 216.008L282.791 251.857C312.577 242.669 343.509 247.805 364.924 265.008L392.424 219.038C400.625 205.167 403.886 196.111 406.424 180.16C408.561 166.727 409.222 158.63 406.424 145.321C403.429 131.082 401.328 121.567 390.924 111.492C381.079 101.958 372.538 98.2093 358.924 97.3543C344.379 96.4409 336.087 101.685 323.424 108.968C311.037 116.091 304.238 121.512 295.924 133.203Z" fill="#FFAADD" fill-opacity="0.5"/>
</g>
<g opacity="0.5">
<path d="M1274.72 271.776C1266.31 268.378 1257.35 265.853 1247.96 264.344C1222.07 260.179 1196.93 264.393 1175.72 274.874C1145.72 289.694 1123.58 317.046 1118.23 350.954C1118.02 352.256 1117.85 353.557 1117.69 354.857C1113.18 393.231 1131.49 429.945 1162.89 452.606C1177.67 463.274 1195.34 470.827 1214.91 473.973C1227.73 476.036 1240.37 476.043 1252.44 474.252C1284.4 469.509 1305.46 450.001 1322.27 424.801C1330.06 413.129 1335.46 399.774 1337.75 385.208C1339.71 372.817 1339.26 360.555 1336.74 348.836C1329.24 314.027 1310.32 286.16 1274.72 271.776Z" fill="#FFFDD0" fill-opacity="0.5"/>
<path d="M1247.96 264.344C1257.35 265.853 1266.31 268.378 1274.72 271.776L1301.07 234.186C1301.07 234.186 1303.17 227.719 1304.4 223.536C1304.4 223.536 1312.76 189.618 1315.61 167.463C1317.05 156.258 1316.68 149.438 1315.85 138.206C1314.72 122.735 1310.54 117.685 1304.18 108.178C1301.15 103.639 1292.96 97.4893 1284.65 90.9472C1273.01 81.779 1264.1 78.7939 1249.54 77.9065C1238.23 77.2173 1220.78 82.7281 1220.78 82.7281C1220.78 82.7281 1200.26 91.4756 1189.28 100.052C1180.45 106.946 1172.18 117.24 1169.43 121.196C1160.49 134.054 1157.92 160.269 1157.92 160.269L1154.64 197.975C1154.64 197.975 1154.44 220.905 1155.94 233.249L1175.72 274.874C1196.93 264.393 1222.07 260.179 1247.96 264.344Z" fill="#E9AAFF" fill-opacity="0.5"/>
<path d="M1377.54 160.337C1354.95 167.518 1327.43 196.596 1327.43 196.596L1301.07 234.186L1274.72 271.776C1310.32 286.16 1329.24 314.027 1336.74 348.836L1398.11 323.59C1416.53 315.894 1433.44 311.351 1448 296.988C1460.27 284.891 1467.06 277.099 1474.49 261.183C1482.44 244.154 1487.65 232.694 1485.32 214.017C1483.11 196.343 1477.75 185.659 1465.32 173.89C1452.04 161.316 1440.09 160.073 1422.39 157.428C1405.07 154.84 1394.42 154.972 1377.54 160.337Z" fill="#E9AAFF" fill-opacity="0.5"/>
<path d="M1336.74 348.836C1339.26 360.555 1339.71 372.817 1337.75 385.208C1335.46 399.774 1330.06 413.129 1322.27 424.801L1369.84 450.991C1390.68 460.782 1403.56 464.432 1426.31 466.988C1448.47 469.476 1462.4 472.544 1483.45 464.25C1501.87 456.995 1512.36 449.542 1524.44 432.975L1524.95 432.274C1534.81 418.758 1532.5 406.637 1532.22 389.505C1531.93 371.771 1526.17 359.26 1514.13 347.223C1501.93 335.014 1498.03 334.771 1481.84 329.948C1464.31 324.725 1453.31 325.353 1435.17 323.253C1420.17 321.516 1413.17 324.629 1398.11 323.59L1336.74 348.836Z" fill="#E9AAFF" fill-opacity="0.5"/>
<path d="M1252.44 474.252C1240.37 476.043 1227.73 476.036 1214.91 473.973C1195.34 470.827 1177.67 463.274 1162.89 452.606L1140.41 477.748C1133.63 489.577 1130.1 496.413 1124.38 508.85C1116.98 524.961 1110.6 533.601 1107.79 551.216C1105.67 564.528 1105.53 572.511 1107.91 585.69C1110.25 598.704 1112.71 606.182 1119.54 617.18C1129.93 633.898 1139.65 642.224 1157.49 648.777C1170.58 653.587 1179.31 655.616 1192.93 652.289C1206.98 648.858 1214.28 642.555 1224.51 631.63C1233.62 621.905 1236.78 614.438 1242.45 602.128C1249.93 585.895 1251.89 575.55 1255.19 558.039L1255.3 557.48C1259.01 537.868 1259.97 526.479 1259.6 506.553L1252.44 474.252Z" fill="#E9AAFF" fill-opacity="0.5"/>
<path d="M1140.41 477.748L1162.89 452.606C1131.49 429.945 1113.18 393.231 1117.69 354.857L1097.71 350.792C1088.33 350.678 1077.14 344.625 1067.79 345.5C1053.38 346.847 1046.84 345.701 1032.85 349.748C1016.16 354.573 1005.24 355.546 990.827 365.853C976.866 375.839 965.66 382.569 956.581 397.646C948.393 411.242 947.23 426.324 945.377 442.261C943.066 462.132 950.618 480.362 960.933 496.856C969.518 510.583 977.437 517.597 992.157 522.854C1004.66 527.32 1012.85 525.748 1026.06 524.247C1042.32 522.398 1050.96 517.717 1066.38 511.706C1080.59 506.169 1088 501.549 1101.91 495.165C1116.91 488.276 1125.34 484.462 1140.41 477.748Z" fill="#E9AAFF" fill-opacity="0.5"/>
<path d="M1369.84 450.991L1322.27 424.801C1305.46 450.001 1284.4 469.509 1252.44 474.252L1259.6 506.553C1263.61 517.105 1265.86 523.02 1269.89 533.567C1276.48 550.865 1278.47 561.452 1286.81 577.846C1298.99 601.779 1297.99 611.533 1320.59 624.238C1339.28 634.749 1357.04 643.21 1377.19 635.515C1394.46 628.925 1405.14 617.49 1414.38 600.564C1424.33 582.325 1426.3 575.003 1425.47 554.101C1424.59 532.272 1418.97 520.325 1409.86 500.954L1409.79 500.796C1400.04 480.081 1382.75 469.599 1369.84 450.991Z" fill="#E9AAFF" fill-opacity="0.5"/>
<path d="M1117.69 354.857C1117.85 353.557 1118.02 352.256 1118.23 350.954C1123.58 317.046 1145.72 289.694 1175.72 274.874L1155.94 233.249C1147.58 220.102 1142.28 213.088 1132.01 201.587C1121.98 190.353 1116.71 183.133 1104.24 175.114C1091.86 167.147 1083.98 162.625 1069.47 161.256C1056.3 160.013 1048.22 161.477 1035.87 166.814C1020.66 173.383 1011.89 180.035 1002.84 194.662C994.016 208.944 991.243 219.78 991.918 236.715C992.484 250.882 995.786 258.831 1002.11 271.2C1010.2 286.999 1018.75 293.162 1031.52 304.905C1045.06 317.362 1054.39 322.019 1069.46 332.308C1080.36 339.745 1086.55 343.795 1097.71 350.792L1117.69 354.857Z" fill="#E9AAFF" fill-opacity="0.5"/>
</g>
<g opacity="0.5">
<path d="M646.459 718.377C636.082 714.263 625.037 711.19 613.464 709.328C581.539 704.194 550.599 709.091 524.53 721.509C487.668 739.069 460.546 771.668 454.153 812.211C453.907 813.768 453.694 815.324 453.513 816.878C448.176 862.77 470.94 906.808 509.739 934.105C528.004 946.956 549.824 956.097 573.938 959.975C589.749 962.518 605.319 962.6 620.174 960.527C659.511 955.037 685.346 931.817 705.91 901.761C715.435 887.839 722.006 871.889 724.752 854.474C727.089 839.659 726.468 824.984 723.293 810.946C713.862 769.25 690.394 735.796 646.459 718.377Z" fill="#FFFDD0" fill-opacity="0.5"/>
<path d="M613.464 709.328C625.037 711.19 636.082 714.263 646.459 718.377L678.712 673.551C678.712 673.551 681.258 665.824 682.746 660.827C682.746 660.827 692.853 620.29 696.232 593.796C697.941 580.397 697.449 572.234 696.37 558.789C694.885 540.27 689.71 534.203 681.824 522.791C678.059 517.342 667.942 509.935 657.669 502.059C643.272 491.021 632.286 487.397 614.343 486.25C600.409 485.36 578.946 491.853 578.946 491.853C578.946 491.853 553.72 502.201 540.241 512.4C529.407 520.598 519.273 532.867 515.907 537.584C504.966 552.919 501.954 584.272 501.954 584.272L498.126 629.371C498.126 629.371 498.018 656.808 499.93 671.587L524.53 721.509C550.599 709.091 581.539 704.194 613.464 709.328Z" fill="#FFE2AA" fill-opacity="0.5"/>
<path d="M772.483 585.629C744.696 594.091 710.964 628.725 710.964 628.725L678.712 673.551L646.459 718.377C690.394 735.796 713.862 769.25 723.293 810.946L798.742 781.093C821.394 771.992 842.193 766.654 860.052 749.551C875.092 735.149 883.414 725.864 892.474 706.862C902.169 686.531 908.527 672.849 905.543 650.487C902.72 629.326 896.063 616.51 880.686 602.356C864.257 587.233 849.527 585.676 827.706 582.408C806.363 579.211 793.241 579.308 772.483 585.629Z" fill="#FFE2AA" fill-opacity="0.5"/>
<path d="M723.293 810.946C726.468 824.984 727.089 839.659 724.752 854.474C722.006 871.889 715.435 887.839 705.91 901.761L764.651 933.374C790.373 945.212 806.266 949.654 834.306 952.844C861.611 955.95 878.785 959.702 904.672 949.901C927.318 941.326 940.194 932.469 954.984 912.715L955.61 911.879C967.68 895.764 964.761 881.247 964.319 860.745C963.862 839.523 956.693 824.52 941.799 810.046C926.692 795.366 921.89 795.054 901.918 789.187C880.295 782.836 866.754 783.524 844.393 780.905C825.904 778.74 817.311 782.425 798.742 781.093L723.293 810.946Z" fill="#FFE2AA" fill-opacity="0.5"/>
<path d="M620.174 960.527C605.319 962.6 589.749 962.518 573.938 959.975C549.824 956.097 528.004 946.956 509.739 934.105L482.191 964.059C473.905 978.174 469.606 986.334 462.633 1001.18C453.6 1020.42 445.799 1030.72 442.436 1051.78C439.895 1067.7 439.768 1077.25 442.772 1093.03C445.738 1108.62 448.805 1117.58 457.284 1130.78C470.173 1150.84 482.202 1160.86 504.208 1168.81C520.36 1174.64 531.119 1177.12 547.879 1173.22C565.167 1169.19 574.123 1161.69 586.666 1148.68C597.832 1137.1 601.684 1128.18 608.6 1113.48C617.72 1094.1 620.068 1081.73 624.043 1060.8L624.17 1060.13C628.622 1036.69 629.74 1023.06 629.171 999.219L620.174 960.527Z" fill="#FFE2AA" fill-opacity="0.5"/>
<path d="M482.191 964.059L509.739 934.105C470.94 906.808 448.176 862.77 453.513 816.878L428.87 811.898C417.323 811.707 403.506 804.4 391.988 805.392C374.25 806.92 366.191 805.511 348.972 810.272C328.445 815.949 314.993 817.049 297.303 829.299C280.164 841.167 266.398 849.155 255.301 867.142C245.293 883.364 243.946 901.404 241.754 920.463C239.021 944.227 248.427 966.085 261.227 985.881C271.88 1002.36 281.675 1010.79 299.836 1017.17C315.264 1022.59 325.341 1020.75 341.601 1019.03C361.627 1016.92 372.242 1011.37 391.204 1004.26C408.672 997.719 417.779 992.235 434.867 984.676C453.306 976.52 463.668 972.005 482.191 964.059Z" fill="#FFE2AA" fill-opacity="0.5"/>
<path d="M764.651 933.374L705.91 901.761C685.346 931.817 659.511 955.037 620.174 960.527L629.171 999.219C634.175 1011.87 636.984 1018.96 641.999 1031.6C650.223 1052.34 652.729 1065.02 663.097 1084.68C678.234 1113.39 677.057 1125.06 704.969 1140.39C728.06 1153.08 749.974 1163.31 774.76 1154.22C795.989 1146.43 809.083 1132.81 820.365 1112.61C832.522 1090.84 834.907 1082.09 833.759 1057.08C832.559 1030.95 825.568 1016.62 814.233 993.392L814.141 993.203C802.019 968.358 780.659 955.716 764.651 933.374Z" fill="#FFE2AA" fill-opacity="0.5"/>
<path d="M453.513 816.878C453.694 815.324 453.907 813.768 454.153 812.211C460.546 771.668 487.668 739.069 524.53 721.509L499.93 671.587C489.556 655.806 482.987 647.383 470.276 633.561C457.86 620.061 451.328 611.391 435.923 601.723C420.619 592.118 410.885 586.661 393.015 584.939C376.779 583.375 366.832 585.08 351.648 591.394C332.958 599.166 322.187 607.076 311.132 624.525C300.338 641.564 296.984 654.513 297.912 674.781C298.689 691.737 302.803 701.268 310.669 716.104C320.717 735.056 331.284 742.48 347.078 756.606C363.833 771.591 375.345 777.217 393.976 789.616C407.443 798.579 415.088 803.46 428.87 811.898L453.513 816.878Z" fill="#FFE2AA" fill-opacity="0.5"/>
</g>
<g opacity="0.5">
<path d="M1216.93 1150C1210.57 1143.7 1203.36 1138.03 1195.36 1133.2C1173.27 1119.85 1148.59 1114.87 1125.03 1117.35C1091.71 1120.85 1060.65 1139.28 1042.39 1170.09C1041.69 1171.28 1041.01 1172.47 1040.36 1173.67C1021.11 1209.09 1023.41 1251.12 1043.24 1284.3C1052.58 1299.92 1065.79 1313.58 1082.47 1323.66C1093.41 1330.27 1104.99 1334.83 1116.75 1337.45C1147.89 1344.38 1174.87 1333.13 1200.2 1314.85C1211.93 1306.39 1222.14 1295.44 1229.98 1282.21C1236.65 1270.95 1241.07 1258.95 1243.38 1246.73C1250.23 1210.42 1243.88 1176.71 1216.93 1150Z" fill="#FFFDD0" fill-opacity="0.5"/>
<path d="M1195.36 1133.2C1203.36 1138.03 1210.57 1143.7 1216.93 1150L1255.89 1123.21C1255.89 1123.21 1260.36 1117.72 1263.13 1114.12C1263.13 1114.12 1284.16 1084.39 1295.49 1064.03C1301.23 1053.73 1303.58 1047.01 1307.25 1035.87C1312.3 1020.53 1310.47 1014.15 1308.39 1002.68C1307.4 997.209 1302.32 988.324 1297.29 979.017C1290.23 965.973 1283.25 959.884 1270.26 953.784C1260.17 949.047 1242.02 948.083 1242.02 948.083C1242.02 948.083 1219.78 949.139 1206.34 953.464C1195.53 956.941 1183.9 963.898 1179.82 966.726C1166.56 975.92 1153.88 1000.3 1153.88 1000.3L1136.02 1035.52C1136.02 1035.52 1126.8 1057.59 1123.31 1070.04L1125.03 1117.35C1148.59 1114.87 1173.27 1119.85 1195.36 1133.2Z" fill="#79C7FF" fill-opacity="0.5"/>
<path d="M1355.03 1079.45C1331.51 1078.25 1294.84 1096.41 1294.84 1096.41L1255.89 1123.21L1216.93 1150C1243.88 1176.71 1250.23 1210.42 1243.38 1246.73L1309.54 1244.45C1329.45 1243.66 1346.73 1245.36 1365.73 1236.74C1381.73 1229.48 1391.03 1224.4 1404.1 1211.71C1418.1 1198.14 1427.39 1188.95 1432.61 1170.08C1437.55 1152.22 1436.85 1139.98 1430.1 1124.14C1422.89 1107.22 1412.43 1101.72 1397.26 1092.79C1382.42 1084.06 1372.61 1080.35 1355.03 1079.45Z" fill="#79C7FF" fill-opacity="0.5"/>
<path d="M1243.38 1246.73C1241.07 1258.95 1236.65 1270.95 1229.98 1282.21C1222.14 1295.44 1211.93 1306.39 1200.2 1314.85L1233.45 1357.26C1248.68 1374.22 1259.05 1382.38 1278.88 1393.04C1298.19 1403.42 1309.74 1411.4 1332.3 1410.97C1352.03 1410.6 1364.57 1407.18 1382.17 1395.54L1382.91 1395.05C1397.27 1385.55 1399.93 1373.02 1406.42 1356.38C1413.15 1339.15 1412.8 1325 1406.52 1309.05C1400.15 1292.87 1396.67 1291.23 1383.74 1280.74C1369.74 1269.39 1359.42 1266.03 1343.63 1257.47C1330.57 1250.4 1322.94 1250.88 1309.54 1244.45L1243.38 1246.73Z" fill="#79C7FF" fill-opacity="0.5"/>
<path d="M1116.75 1337.45C1104.99 1334.83 1093.41 1330.27 1082.47 1323.66C1065.79 1313.58 1052.58 1299.92 1043.24 1284.3L1012.74 1300.48C1001.87 1309.46 995.949 1314.79 985.81 1324.74C972.676 1337.62 963.434 1343.67 953.918 1359.66C946.726 1371.75 943.453 1379.4 940.438 1392.98C937.46 1406.39 936.763 1414.49 938.688 1427.57C941.614 1447.45 947.244 1458.99 960.999 1471.74C971.095 1481.09 978.288 1486.19 992.077 1487.89C1006.3 1489.63 1015.47 1486.18 1029.15 1479.32C1041.33 1473.21 1047.16 1467.14 1057.21 1457.3C1070.46 1444.32 1076.32 1435.04 1086.25 1419.32L1086.57 1418.82C1097.69 1401.22 1103.06 1390.57 1110.57 1371.21L1116.75 1337.45Z" fill="#79C7FF" fill-opacity="0.5"/>
<path d="M1012.74 1300.48L1043.24 1284.3C1023.41 1251.12 1021.11 1209.09 1040.36 1173.67L1023.65 1162.55C1015.11 1159.06 1007.25 1149.19 998.332 1146.66C984.605 1142.78 979.068 1139.32 964.651 1138.18C947.464 1136.83 937.073 1133.84 919.813 1138.6C903.09 1143.21 890.172 1145.67 875.915 1156.96C863.058 1167.14 856.049 1181.28 848.072 1196C838.126 1214.35 837.86 1234.66 840.81 1254.3C843.265 1270.64 847.756 1280.27 859.168 1290.64C868.862 1299.46 876.982 1300.89 889.672 1304.19C905.301 1308.27 915.059 1306.86 931.554 1306.61C946.75 1306.38 955.362 1304.59 970.612 1303.43C987.068 1302.18 996.293 1301.54 1012.74 1300.48Z" fill="#79C7FF" fill-opacity="0.5"/>
<path d="M1233.45 1357.26L1200.2 1314.85C1174.87 1333.13 1147.89 1344.38 1116.75 1337.45L1110.57 1371.21C1110.09 1382.84 1109.82 1389.36 1109.35 1400.99C1108.58 1420.06 1106.23 1431 1107.41 1449.83C1109.13 1477.32 1104.37 1486.37 1120.07 1506.78C1133.06 1523.66 1145.98 1538.22 1167.48 1538.05C1185.89 1537.9 1200.18 1530.71 1215.31 1517.69C1231.62 1503.67 1236.31 1497.31 1243.78 1476.83C1251.58 1455.45 1251.14 1441.89 1250.43 1419.91L1250.42 1419.73C1249.66 1396.22 1237.95 1379.88 1233.45 1357.26Z" fill="#79C7FF" fill-opacity="0.5"/>
<path d="M1040.36 1173.67C1041.01 1172.47 1041.69 1171.28 1042.39 1170.09C1060.65 1139.28 1091.71 1120.85 1125.03 1117.35L1123.31 1070.04C1120.83 1054.34 1118.74 1045.66 1113.87 1030.86C1109.11 1016.41 1107.13 1007.54 1098.86 995.306C1090.66 983.155 1085.22 975.951 1072.47 969.408C1060.9 963.464 1052.92 961.967 1039.5 962.672C1022.98 963.539 1012.32 966.801 998.277 977.666C984.562 988.274 977.752 997.735 971.697 1014.33C966.633 1028.21 966.526 1037.07 967.45 1051.29C968.63 1069.45 974.033 1078.48 981.102 1094.41C988.601 1111.32 995.307 1119.17 1005.06 1134.53C1012.12 1145.64 1016.19 1151.77 1023.65 1162.55L1040.36 1173.67Z" fill="#79C7FF" fill-opacity="0.5"/>
</g>
<g opacity="0.5">
<path d="M1206.11 1717.46C1200.62 1712.31 1194.47 1707.63 1187.7 1703.54C1169.04 1692.26 1148.62 1687.3 1129.46 1688.13C1102.36 1689.31 1077.77 1702.07 1064.22 1724.95C1063.7 1725.83 1063.2 1726.71 1062.72 1727.61C1048.55 1753.99 1052.32 1786.44 1070.03 1812.88C1078.36 1825.33 1089.79 1836.44 1103.88 1844.96C1113.13 1850.55 1122.8 1854.59 1132.54 1857.14C1158.33 1863.89 1179.89 1856.47 1199.8 1843.56C1209.02 1837.58 1216.87 1829.62 1222.7 1819.79C1227.65 1811.44 1230.73 1802.4 1232.07 1793.1C1236.05 1765.48 1229.34 1739.24 1206.11 1717.46Z" fill="#FFFDD0" fill-opacity="0.5"/>
<path d="M1187.7 1703.54C1194.47 1707.63 1200.62 1712.31 1206.11 1717.46L1236.77 1698.62C1236.77 1698.62 1240.19 1694.6 1242.29 1691.96C1242.29 1691.96 1258.16 1670.03 1266.52 1654.88C1270.75 1647.22 1272.37 1642.16 1274.88 1633.75C1278.33 1622.17 1276.54 1617.18 1274.33 1608.26C1273.27 1604 1268.72 1596.93 1264.19 1589.54C1257.83 1579.18 1251.85 1574.18 1240.95 1568.89C1232.48 1564.78 1217.59 1563.21 1217.59 1563.21C1217.59 1563.21 1199.44 1563.01 1188.64 1565.72C1179.95 1567.91 1170.75 1572.73 1167.54 1574.72C1157.1 1581.19 1147.82 1599.37 1147.82 1599.37L1134.79 1625.66C1134.79 1625.66 1128.24 1642.22 1125.94 1651.65L1129.46 1688.13C1148.62 1687.3 1169.04 1692.26 1187.7 1703.54Z" fill="#E5FF47" fill-opacity="0.5"/>
<path d="M1315.92 1669.47C1296.62 1667.47 1267.44 1679.77 1267.44 1679.77L1236.77 1698.62L1206.11 1717.46C1229.34 1739.24 1236.05 1765.48 1232.07 1793.1L1286.1 1794.37C1302.35 1794.67 1316.56 1796.77 1331.72 1791C1344.48 1786.15 1351.86 1782.66 1361.99 1773.49C1372.82 1763.68 1380.01 1757.04 1383.44 1742.76C1386.68 1729.24 1385.56 1719.79 1379.33 1707.29C1372.68 1693.94 1363.88 1689.23 1351.06 1681.66C1338.53 1674.26 1330.34 1670.96 1315.92 1669.47Z" fill="#E5FF47" fill-opacity="0.5"/>
<path d="M1232.07 1793.1C1230.73 1802.4 1227.65 1811.44 1222.7 1819.79C1216.87 1829.62 1209.02 1837.58 1199.8 1843.56L1228.9 1877.72C1242.12 1891.46 1250.96 1898.22 1267.66 1907.32C1283.93 1916.19 1293.74 1922.86 1312.17 1923.56C1328.29 1924.18 1338.4 1922.12 1352.27 1913.96L1352.86 1913.62C1364.18 1906.97 1365.79 1897.44 1370.36 1884.93C1375.09 1871.98 1374.17 1861.08 1368.32 1848.51C1362.38 1835.77 1359.47 1834.35 1348.42 1825.69C1336.46 1816.31 1327.86 1813.26 1314.56 1805.95C1303.56 1799.91 1297.34 1799.93 1286.1 1794.37L1232.07 1793.1Z" fill="#E5FF47" fill-opacity="0.5"/>
<path d="M1132.54 1857.14C1122.8 1854.59 1113.13 1850.55 1103.88 1844.96C1089.79 1836.44 1078.36 1825.33 1070.03 1812.88L1045.8 1823.94C1037.31 1830.35 1032.7 1834.18 1024.86 1841.38C1014.69 1850.69 1007.4 1854.92 1000.33 1866.8C994.988 1875.77 992.653 1881.51 990.794 1891.82C988.959 1902.01 988.751 1908.21 990.912 1918.36C994.196 1933.79 999.318 1942.93 1011.14 1953.37C1019.82 1961.03 1025.93 1965.29 1037.29 1967.22C1049 1969.21 1056.35 1966.97 1067.23 1962.32C1076.92 1958.17 1081.42 1953.77 1089.2 1946.65C1099.46 1937.27 1103.84 1930.39 1111.26 1918.75L1111.5 1918.38C1119.81 1905.35 1123.72 1897.4 1129 1882.83L1132.54 1857.14Z" fill="#E5FF47" fill-opacity="0.5"/>
<path d="M1045.8 1823.94L1070.03 1812.88C1052.32 1786.44 1048.55 1753.99 1062.72 1727.61L1048.55 1718.29C1041.41 1715.21 1034.53 1707.26 1027.13 1704.91C1015.72 1701.29 1011.04 1698.37 999.194 1696.84C985.073 1695.02 976.439 1692.24 962.532 1695.12C949.058 1697.9 938.601 1699.21 927.443 1707.24C917.381 1714.49 912.28 1725.05 906.413 1736.01C899.098 1749.68 899.791 1765.3 903.083 1780.55C905.823 1793.24 909.928 1800.85 919.728 1809.36C928.053 1816.58 934.76 1818.05 945.289 1821.18C958.257 1825.02 966.176 1824.39 979.659 1824.95C992.08 1825.46 999.045 1824.48 1011.47 1824.29C1024.88 1824.08 1032.39 1824 1045.8 1823.94Z" fill="#E5FF47" fill-opacity="0.5"/>
<path d="M1228.9 1877.72L1199.8 1843.56C1179.89 1856.47 1158.33 1863.89 1132.54 1857.14L1129 1882.83C1129.13 1891.76 1129.2 1896.77 1129.34 1905.7C1129.56 1920.34 1128.12 1928.65 1129.93 1943.2C1132.57 1964.43 1129.09 1971.18 1142.84 1987.6C1154.22 2001.18 1165.45 2012.98 1183.02 2013.83C1198.08 2014.56 1209.45 2009.68 1221.24 2000.35C1233.95 1990.3 1237.51 1985.62 1242.7 1970.21C1248.13 1954.1 1247.16 1943.65 1245.59 1926.7L1245.58 1926.56C1243.9 1908.44 1233.59 1895.32 1228.9 1877.72Z" fill="#E5FF47" fill-opacity="0.5"/>
<path d="M1062.72 1727.61C1063.2 1726.71 1063.7 1725.83 1064.22 1724.95C1077.77 1702.07 1102.36 1689.31 1129.46 1688.13L1125.94 1651.65C1123.2 1639.45 1121.11 1632.68 1116.46 1621.06C1111.92 1609.72 1109.9 1602.81 1102.59 1593.02C1095.33 1583.29 1090.56 1577.5 1079.84 1571.88C1070.1 1566.78 1063.51 1565.26 1052.56 1565.19C1039.09 1565.1 1030.52 1567.13 1019.51 1574.85C1008.77 1582.39 1003.62 1589.36 999.413 1601.85C995.891 1612.3 996.2 1619.12 997.593 1630.1C999.371 1644.13 1004.2 1651.33 1010.69 1663.91C1017.58 1677.26 1023.42 1683.61 1032.09 1695.88C1038.36 1704.75 1041.96 1709.66 1048.55 1718.29L1062.72 1727.61Z" fill="#E5FF47" fill-opacity="0.5"/>
</g>
<g opacity="0.5">
<path d="M557.277 1580.1C560.61 1568.68 562.709 1556.69 563.401 1544.29C565.311 1510.07 556.216 1478.1 539.357 1452.17C515.517 1415.5 476.155 1390.89 430.439 1389.05C428.683 1388.98 426.933 1388.94 425.189 1388.94C373.667 1388.86 327.532 1418.12 301.859 1462.24C289.773 1483.01 282.222 1507.08 280.779 1532.92C279.833 1549.86 281.587 1566.26 285.646 1581.64C296.394 1622.37 325.205 1646.76 360.97 1664.77C377.536 1673.12 396.001 1678.11 415.638 1678.9C432.343 1679.57 448.542 1677.15 463.732 1672.11C508.851 1657.16 543.168 1628.43 557.277 1580.1Z" fill="#FFFDD0" fill-opacity="0.5"/>
<path d="M563.401 1544.29C562.709 1556.69 560.61 1568.68 557.277 1580.1L610.806 1608.63C610.806 1608.63 619.675 1610.38 625.393 1611.34C625.393 1611.34 671.542 1617.09 701.321 1617.45C716.381 1617.63 725.375 1616.13 740.156 1613.37C760.516 1609.58 766.63 1603.4 778.351 1593.72C783.946 1589.11 790.961 1577.57 798.478 1565.81C809.012 1549.32 811.728 1537.33 810.874 1518.31C810.21 1503.54 800.467 1481.73 800.467 1481.73C800.467 1481.73 786.003 1456.44 773.097 1443.48C762.722 1433.07 747.916 1423.89 742.287 1420.91C723.986 1411.25 688.862 1411.86 688.862 1411.86L638.398 1413.27C638.398 1413.27 607.962 1416.47 591.799 1420.26L539.357 1452.17C556.216 1478.1 565.311 1510.07 563.401 1544.29Z" fill="#FF8D8D" fill-opacity="0.5"/>
<path d="M719.412 1696.7C706.737 1668.48 664.334 1637.16 664.334 1637.16L610.806 1608.63L557.277 1580.1C543.168 1628.43 508.851 1657.16 463.732 1672.11L505.776 1747.91C518.552 1770.65 526.936 1791.89 548.017 1808.62C565.77 1822.71 577.052 1830.35 599.197 1837.59C622.89 1845.34 638.815 1850.38 663.258 1844.55C686.389 1839.02 699.811 1830.47 713.685 1812.58C728.508 1793.47 728.489 1777.78 729.527 1754.43C730.543 1731.58 728.882 1717.78 719.412 1696.7Z" fill="#FF8D8D" fill-opacity="0.5"/>
<path d="M463.732 1672.11C448.542 1677.15 432.343 1679.57 415.638 1678.9C396.001 1678.11 377.536 1673.12 360.97 1664.77L332.874 1730.4C322.795 1758.89 319.752 1776.15 319.538 1806.05C319.329 1835.15 317.203 1853.68 331.139 1879.74C343.331 1902.53 354.678 1915.01 378.336 1928.2L379.336 1928.75C398.637 1939.51 414.389 1934.69 437.071 1931.75C460.549 1928.71 476.337 1919.36 490.622 1901.94C505.11 1884.27 504.888 1879.18 509.026 1857.46C513.506 1833.94 511.14 1819.77 511.394 1795.92C511.604 1776.21 506.5 1767.61 505.776 1747.91L463.732 1672.11Z" fill="#FF8D8D" fill-opacity="0.5"/>
<path d="M285.646 1581.64C281.587 1566.26 279.833 1549.86 280.779 1532.92C282.222 1507.08 289.773 1483.01 301.859 1462.24L265.379 1436.87C248.746 1429.85 239.188 1426.31 221.897 1420.76C199.497 1413.58 187.149 1406.61 163.396 1405.61C145.445 1404.86 134.839 1405.88 117.692 1410.94C100.761 1415.94 91.1859 1420.25 77.5538 1430.76C56.8319 1446.75 47.1472 1460.61 40.9442 1484.73C36.3914 1502.43 34.918 1514.05 41.2306 1531.21C47.7419 1548.92 57.1186 1557.44 73.0359 1569.07C87.2038 1579.42 97.547 1582.4 114.665 1587.91C137.235 1595.17 151.228 1596.15 174.912 1597.8L175.668 1597.86C202.194 1599.71 217.432 1599.25 243.807 1595.77L285.646 1581.64Z" fill="#FF8D8D" fill-opacity="0.5"/>
<path d="M265.379 1436.87L301.859 1462.24C327.532 1418.12 373.667 1388.86 425.189 1388.94L427.79 1362.41C426.634 1350.23 433.1 1334.81 430.635 1322.81C426.839 1304.33 427.447 1295.68 420.126 1278.13C411.399 1257.22 408.585 1243.19 392.906 1226.06C377.715 1209.45 367.226 1195.93 345.965 1186.42C326.791 1177.85 306.627 1178.6 285.232 1178.6C258.557 1178.59 235.434 1191.12 214.999 1206.98C197.992 1220.17 189.795 1231.5 184.877 1251.38C180.699 1268.27 183.926 1278.65 187.759 1295.55C192.48 1316.37 199.894 1326.87 210.017 1345.97C219.343 1363.56 226.503 1372.48 236.91 1389.55C248.139 1407.97 254.373 1418.33 265.379 1436.87Z" fill="#FF8D8D" fill-opacity="0.5"/>
<path d="M332.874 1730.4L360.97 1664.77C325.205 1646.76 296.394 1622.37 285.646 1581.64L243.807 1595.77C230.373 1602.57 222.843 1606.38 209.416 1613.18C187.397 1624.33 173.633 1628.5 153.055 1641.78C123.013 1661.17 109.938 1661.34 96.2418 1692.56C84.9112 1718.39 76.1669 1742.68 89.184 1767.67C100.333 1789.07 116.988 1801.21 140.724 1810.64C166.301 1820.81 176.287 1822.27 203.89 1818.04C232.717 1813.63 247.778 1804.54 272.196 1789.81L272.395 1789.69C298.509 1773.94 309.996 1749.94 332.874 1730.4Z" fill="#FF8D8D" fill-opacity="0.5"/>
<path d="M425.189 1388.94C426.933 1388.94 428.683 1388.98 430.439 1389.05C476.155 1390.89 515.517 1415.5 539.357 1452.17L591.799 1420.26C608.069 1407.44 616.631 1399.51 630.452 1384.47C643.951 1369.78 652.792 1361.86 661.687 1344.48C670.524 1327.22 675.422 1316.32 675.214 1297.3C675.025 1280.03 671.955 1269.77 663.154 1254.55C652.321 1235.82 642.274 1225.44 621.615 1215.91C601.442 1206.61 586.686 1204.64 564.32 1208.06C545.611 1210.93 535.529 1216.4 520.01 1226.47C500.185 1239.33 493.204 1251.34 479.411 1269.67C464.78 1289.11 459.906 1301.9 448.364 1323C440.022 1338.25 435.514 1346.89 427.79 1362.41L425.189 1388.94Z" fill="#FF8D8D" fill-opacity="0.5"/>
</g>
<g opacity="0.5">
<path d="M1416.8 787.516C1412.89 786.462 1408.77 785.817 1404.52 785.639C1392.79 785.149 1381.83 788.29 1372.94 793.974C1360.38 802.011 1351.95 815.132 1351.33 830.259C1351.3 830.84 1351.29 831.419 1351.29 831.996C1351.27 849.037 1361.32 864.175 1376.45 872.484C1383.58 876.395 1391.83 878.793 1400.69 879.163C1406.5 879.405 1412.12 878.758 1417.39 877.351C1431.36 873.628 1442.89 864.587 1449.05 852.683C1451.91 847.169 1453.62 841.041 1453.88 834.543C1454.11 829.015 1453.28 823.667 1451.55 818.664C1446.41 803.803 1433.38 791.983 1416.8 787.516Z" fill="#FFFDD0" fill-opacity="0.5"/>
<path d="M1404.52 785.639C1408.77 785.817 1412.89 786.462 1416.8 787.516L1426.57 769.694C1426.57 769.694 1427.17 766.753 1427.5 764.858C1427.5 764.858 1429.46 749.57 1429.57 739.719C1429.63 734.738 1430.22 731.845 1429.27 726.967C1427.96 720.249 1426.01 716.593 1422.06 711.142C1419.01 706.918 1417.07 704.444 1412.72 701.751C1407.72 698.654 1404.19 697.59 1398.38 697.634C1393.14 697.673 1390.18 698.933 1385.38 701.166C1378.72 704.268 1375.28 707.21 1370.47 712.97C1366.42 717.814 1364.52 721.057 1362.27 727.053C1359.82 733.577 1359.31 737.688 1359.09 744.692C1358.88 751.446 1360.41 755.144 1361 761.871C1361.51 767.675 1361.6 770.946 1361.99 776.761L1372.94 793.974C1381.83 788.29 1392.79 785.149 1404.52 785.639Z" fill="#D3FF76" fill-opacity="0.5"/>
<path d="M1456.74 733.407C1447.07 737.717 1436.34 751.871 1436.34 751.871L1426.57 769.694L1416.8 787.516C1433.38 791.983 1446.41 803.803 1451.55 818.664L1477.52 804.444C1485.32 800.124 1489.42 796.674 1495.16 789.632C1499.98 783.702 1502.6 779.939 1505.08 772.585C1507.73 764.716 1509.45 759.428 1507.45 751.368C1505.55 743.74 1502.61 739.336 1496.47 734.822C1489.92 729.998 1484.54 730.07 1476.53 729.823C1468.7 729.581 1463.97 730.188 1456.74 733.407Z" fill="#D3FF76" fill-opacity="0.5"/>
<path d="M1451.55 818.664C1453.28 823.667 1454.11 829.015 1453.88 834.543C1453.62 841.041 1451.91 847.169 1449.05 852.683L1471.56 861.703C1481.33 864.919 1487.25 865.854 1497.5 865.801C1507.48 865.749 1513.83 866.376 1522.76 861.658C1530.58 857.531 1534.85 853.727 1539.37 845.847L1539.56 845.514C1543.24 839.086 1545.89 834.473 1544.87 826.983C1543.83 819.231 1540.26 814.993 1534.28 810.341C1528.22 805.622 1523.21 805.837 1515.76 804.558C1507.69 803.173 1503.01 804.002 1494.83 804.017C1488.07 804.029 1484.28 804.123 1477.52 804.444L1451.55 818.664Z" fill="#D3FF76" fill-opacity="0.5"/>
<path d="M1417.39 877.351C1412.12 878.758 1406.5 879.405 1400.69 879.163C1391.83 878.793 1383.58 876.395 1376.45 872.484L1367.76 884.654C1365.36 890.185 1364.15 893.361 1362.25 899.103C1359.79 906.541 1357.41 910.654 1357.07 918.514C1356.81 924.455 1357.17 927.959 1358.91 933.609C1360.63 939.188 1362.1 942.337 1365.71 946.802C1371.2 953.59 1375.95 956.736 1384.22 958.687C1390.29 960.12 1394.28 960.559 1400.16 958.4C1406.23 956.173 1409.15 953.036 1413.13 947.724C1416.68 942.995 1417.7 939.561 1419.58 933.877C1422.07 926.382 1422.4 921.749 1422.96 913.909L1422.98 913.659C1423.61 904.878 1423.45 899.84 1422.25 891.131L1417.39 877.351Z" fill="#D3FF76" fill-opacity="0.5"/>
<path d="M1367.76 884.654L1376.45 872.484C1361.32 864.175 1351.27 849.037 1351.29 831.996L1342.19 831.246C1338.02 831.679 1335.68 832.045 1331.57 832.91C1325.23 834.242 1321.65 835.118 1315.64 837.612C1308.47 840.585 1304.16 842.257 1298.29 847.514C1292.6 852.607 1289.75 856.287 1286.49 863.358C1283.56 869.735 1282.08 873.814 1282.08 880.89C1282.09 889.713 1283.51 895.577 1288.95 902.27C1293.48 907.84 1297.37 910.504 1304.18 912.049C1309.97 913.361 1313.53 912.25 1319.33 910.912C1326.46 909.265 1330.06 906.769 1336.61 903.342C1342.64 900.185 1345.7 897.779 1351.55 894.267C1357.86 890.476 1361.41 888.371 1367.76 884.654Z" fill="#D3FF76" fill-opacity="0.5"/>
<path d="M1471.56 861.703L1449.05 852.683C1442.89 864.587 1431.36 873.628 1417.39 877.351L1422.25 891.131C1424.58 895.546 1425.89 898.021 1428.22 902.434C1432.05 909.67 1433.49 914.205 1438.05 920.956C1444.7 930.812 1447.97 938.625 1458.68 943.026C1467.53 946.666 1474.48 948.148 1483.04 943.739C1490.38 939.963 1493.41 934.904 1496.64 927.014C1500.12 918.513 1499.92 912.525 1498.47 903.412C1496.95 893.896 1493.83 888.952 1488.77 880.937L1488.73 880.872C1483.32 872.3 1478.27 869.189 1471.56 861.703Z" fill="#D3FF76" fill-opacity="0.5"/>
<path d="M1351.29 831.996C1351.29 831.419 1351.3 830.84 1351.33 830.259C1351.95 815.132 1360.38 802.011 1372.94 793.974L1361.99 776.761C1357.59 771.432 1354.87 768.633 1349.71 764.125C1344.67 759.721 1341.95 756.83 1335.99 753.959C1330.07 751.108 1326.33 749.533 1319.81 749.681C1313.89 749.815 1310.37 750.873 1305.16 753.847C1298.74 757.507 1295.18 760.873 1291.92 767.746C1288.74 774.457 1288.06 779.345 1289.24 786.729C1290.23 792.905 1292.11 796.217 1295.56 801.308C1299.98 807.812 1304.1 810.071 1310.38 814.557C1317.05 819.315 1321.44 820.874 1328.68 824.604C1333.91 827.301 1336.87 828.756 1342.19 831.246L1351.29 831.996Z" fill="#D3FF76" fill-opacity="0.5"/>
</g>
<path d="M281 321.7C282.148 327.543 284.078 334.37 284.078 340.04" stroke="black" stroke-opacity="0.2" stroke-width="3" stroke-linecap="round"/>
<path d="M317 312.765C317.117 318.686 319.033 324.168 320.848 329.576" stroke="black" stroke-opacity="0.2" stroke-width="3" stroke-linecap="round"/>
<path d="M268.259 363.445C276.629 365.93 284.635 368.931 292.892 371.669C306.688 376.244 317.693 373.833 327.542 365.851C330.586 363.383 334.002 360.347 336.766 357.78" stroke="black" stroke-opacity="0.2" stroke-width="3" stroke-linecap="round"/>
<path d="M568.059 774.033C568.059 783.335 567.158 792.591 567.158 801.747" stroke="black" stroke-opacity="0.2" stroke-width="3" stroke-linecap="round"/>
<path d="M624.782 781.185V808.004" stroke="black" stroke-opacity="0.2" stroke-width="3" stroke-linecap="round"/>
<path d="M549.15 861.644C563.706 875.823 582.216 887.202 603.573 883.546C611.983 882.106 619.863 879.73 627.483 875.947C630.657 874.372 633.695 870.583 637.387 870.583" stroke="black" stroke-opacity="0.2" stroke-width="3" stroke-linecap="round"/>
<path d="M1210.89 336.163C1210.89 348.171 1212.56 360.219 1215.47 371.809" stroke="black" stroke-opacity="0.2" stroke-width="3" stroke-linecap="round"/>
<path d="M1249.08 337.681C1249.23 345.084 1252.19 351.644 1252.86 358.917C1253.3 363.733 1254.05 368.468 1254.43 373.327" stroke="black" stroke-opacity="0.2" stroke-width="3" stroke-linecap="round"/>
<path d="M1191.8 401.388C1205.96 408.56 1217.76 415.301 1233.98 416.473C1245.56 417.309 1253.25 415.236 1262.58 407.919C1267.67 403.927 1272.75 399.123 1277.35 394.562" stroke="black" stroke-opacity="0.2" stroke-width="3" stroke-linecap="round"/>
<path d="M1371.15 814.606C1371.15 817.059 1370.36 820.814 1371.8 822.951" stroke="black" stroke-opacity="0.2" stroke-width="3" stroke-linecap="round"/>
<path d="M1391.84 814.606C1391.84 818.384 1393.13 821.979 1393.13 825.519" stroke="black" stroke-opacity="0.2" stroke-width="3" stroke-linecap="round"/>
<path d="M1370.5 844.775C1374.22 845.471 1378.78 848.627 1382.46 848.627C1385.09 848.627 1387.47 847.767 1390.04 847.2C1393.72 846.389 1397.22 845.206 1399.92 842.529C1400.99 841.462 1403.62 839.988 1404.12 838.998" stroke="black" stroke-opacity="0.2" stroke-width="3" stroke-linecap="round"/>
<path d="M1133.53 1181.63C1133.66 1188.11 1135.79 1196.12 1137.86 1202.3" stroke="black" stroke-opacity="0.2" stroke-width="3" stroke-linecap="round"/>
<path d="M1169.1 1179.91C1170.27 1187.36 1172.57 1195.66 1172.57 1203.16" stroke="black" stroke-opacity="0.2" stroke-width="3" stroke-linecap="round"/>
<path d="M1116.18 1242.79C1128.65 1242.79 1165.63 1252.44 1165.63 1230.73" stroke="black" stroke-opacity="0.2" stroke-width="3" stroke-linecap="round"/>
<path d="M388.208 1488.79C388.208 1500.31 388.826 1511.85 390.14 1523.31C390.469 1526.18 391.685 1529.08 391.685 1531.94" stroke="black" stroke-opacity="0.2" stroke-width="3" stroke-linecap="round"/>
<path d="M431.67 1487.06C431.872 1497.71 433.818 1508.34 435.147 1518.9C435.499 1521.69 436.552 1525.23 437.754 1527.62" stroke="black" stroke-opacity="0.2" stroke-width="3" stroke-linecap="round"/>
<path d="M374.301 1572.5C385.719 1574.24 396.667 1578.16 408.201 1579.21C419.274 1580.22 430.31 1580.38 441.424 1580.27C456.425 1580.12 467.067 1574.09 476 1563.01" stroke="black" stroke-opacity="0.2" stroke-width="3" stroke-linecap="round"/>
<path d="M1121.62 1742.85C1121.62 1748.91 1121.62 1754.97 1121.62 1761.02C1121.62 1762.25 1121.25 1763.47 1122.35 1764.02" stroke="black" stroke-opacity="0.2" stroke-width="3" stroke-linecap="round"/>
<path d="M1161.32 1747.96V1771.32" stroke="black" stroke-opacity="0.2" stroke-width="3" stroke-linecap="round"/>
<path d="M1115.74 1802.71C1121.24 1805.55 1126.38 1809.99 1132.48 1811.47C1137.96 1812.79 1143.89 1814.31 1149.55 1814.39C1157.09 1814.49 1164.89 1814.8 1171.61 1811.47" stroke="black" stroke-opacity="0.2" stroke-width="3" stroke-linecap="round"/>
</svg>
