<svg width="1770" height="453" viewBox="0 0 1770 453" fill="none" xmlns="http://www.w3.org/2000/svg">
<path d="M84.5528 269.11C69.0802 250.598 54.4426 234.809 43.5878 223.565C45.6667 221.694 47.877 219.694 50.1985 217.578C65.327 203.79 85.2856 184.997 104.398 165.14C123.317 145.485 142.148 124.034 154.527 104.938C160.523 95.6875 166.237 85.1607 169.015 74.2709C170.464 68.5904 171.496 61.3433 170.416 53.5273C169.261 45.1713 167.556 31.5933 161.756 33.9299C155.957 36.2666 146.341 57.6926 146.341 57.6926C145.633 60.4685 140.015 67.9921 134.619 76.3164C124.212 92.3699 107.248 111.933 88.5664 131.342C70.0785 150.549 50.6315 168.869 35.7544 182.428C34.2914 183.762 32.8736 185.048 31.5065 186.284C31.5065 186.284 37.5012 61.8136 31.5065 50.6073C25.5117 39.4011 9.83064 39.8352 3.83543 50.6073C-2.15979 61.3795 -0.314644 441.77 3.83557 447.951C7.98578 454.133 26.8951 455.211 31.5065 447.951C36.1178 440.692 31.5064 261.273 31.5064 261.273C41.4937 271.755 54.0644 285.494 67.2229 301.236C82.3038 319.279 97.9744 339.737 111.368 360.756C124.899 381.99 139.011 443.439 145.734 447.951C152.457 452.464 170.728 437.364 172.483 427.106C174.238 416.847 145.842 354.991 131.44 332.389C116.9 309.571 100.208 287.839 84.5528 269.11Z" fill="url(#paint0_linear_43_6)" fill-opacity="0.6"/>
<path d="M813.183 50.6073C814.997 58.6322 816.373 69.5852 817.56 70.1637C818.747 70.7423 821.349 68.5244 823.361 67.6923C827.388 66.0275 833.206 63.7101 840.3 61.1312C854.523 55.9609 873.715 49.7987 893.809 45.7069C914.04 41.5869 934.488 39.7162 951.466 42.5998C969.052 45.5865 979.525 53.0827 984.24 62.7316C986.536 67.4302 986.34 69.9571 985.934 71.9716C985.26 75.3154 983.011 80.6839 977.478 87.6443C966.434 101.537 947.638 115.238 926.076 127.466C904.889 139.482 882.447 149.307 865.192 156.154C856.591 159.567 850.127 160.983 845.034 162.777C845.034 162.777 837.194 162.777 835.81 165.524C834.427 168.271 836.009 166.814 839.218 186.857C839.218 186.857 841.054 205.897 842.122 207.002C843.189 208.107 844.839 206.103 845.563 205.86L845.576 205.856C847.69 205.182 850.784 204.237 854.623 203.183C862.319 201.071 872.921 198.546 884.584 196.868C896.291 195.183 908.783 194.395 920.335 195.601C932.074 196.826 941.8 200.014 948.641 205.211C959.206 213.237 965.373 221.069 969.919 229.473C974.691 238.291 978.196 248.625 982.875 263.65C988.718 282.413 991.709 296.366 992.043 308.991C992.359 320.916 990.338 333.461 983.683 349.37C975.102 369.884 967.147 380.46 948.629 394.561C939.728 401.339 927.348 405.321 912.782 406.843C898.405 408.346 882.918 407.36 868.473 405.278C854.072 403.203 840.99 400.083 831.498 397.474C826.761 396.173 822.941 395.005 820.324 394.169C819.017 393.751 816.902 392.176 816.391 392.864C815.518 393.55 814.135 405.226 813.183 412.907C812.23 420.588 809.046 431.142 809.976 432.951C810.906 434.76 815.018 435.679 816.441 436.133C819.285 437.042 821.449 436.618 826.477 438C836.514 440.758 850.411 444.078 865.808 446.296C881.161 448.508 898.291 449.669 914.72 447.951C930.961 446.254 947.574 441.649 961.226 431.253C983.254 414.479 995.416 399.259 1007.17 371.16C1016.21 349.543 1020.26 328.949 1019.69 307.366C1019.14 286.481 1014.28 266.556 1007.98 246.313C1003.34 231.422 998.609 216.819 991.466 203.616C984.098 189.999 974.673 178.726 961.215 168.502C956.478 164.904 951.347 162.14 946.018 160.034C964.668 148.616 982.769 134.932 995.334 119.126C1002.74 109.814 1009.56 98.1235 1012.44 83.8115C1015.59 68.1702 1013.44 52.4444 1006.61 38.483C994.834 14.3783 974.279 4.99769 954.602 1.65565C934.316 -1.78964 911.266 0.558904 890.06 4.87732C868.715 9.22392 848.532 15.7193 833.738 21.0971C826.324 23.7922 820.224 26.2214 815.959 27.9846C814.032 28.7816 810.445 28.846 809.168 30.889C807.891 32.932 811.368 42.5825 813.183 50.6073Z" fill="url(#paint1_linear_43_6)" fill-opacity="0.6"/>
<path d="M1079.32 50.6073C1071.01 48.0771 1067.48 44.5289 1065.79 46.303C1064.1 48.0771 1064.28 57.1485 1063.61 62.1583C1062.27 72.1758 1060.43 86.4625 1058.37 103.599C1054.27 137.823 1049.33 183.624 1046.03 229.564C1042.76 275.167 1040.99 322.251 1043.59 358.49C1044.88 376.389 1047.36 393.665 1052.17 407.061C1057.23 421.149 1066.04 433.512 1079.32 433.512C1097.19 433.512 1112.81 420.061 1126.29 402.286C1139.82 384.437 1152.73 360.159 1165.31 334.052C1173.17 317.738 1180.93 300.698 1188.76 283.503L1188.77 283.498L1188.77 283.494L1188.77 283.487C1199.47 260 1216.49 210.882 1221.69 213.615C1226.89 216.349 1219.25 410.282 1221.69 412.905C1224.13 415.528 1222.94 415.093 1235.53 412.907C1248.11 410.721 1247.39 415.089 1249.36 412.905C1251.34 410.721 1251.34 53.5717 1249.36 50.6081C1247.39 47.6444 1249.36 50.6073 1235.53 50.6073C1221.69 50.6073 1225.51 48.0771 1221.69 50.6081C1217.87 53.139 1226.43 131.183 1221.69 148.046C1216.95 164.91 1181.98 224.918 1164.57 263.136C1157.03 279.682 1149.79 295.58 1142.83 310.024C1130.49 335.625 1119.05 356.781 1107.94 371.44C1096.77 386.172 1087.48 392.302 1079.32 392.302C1078.99 392.302 1078.94 392.252 1078.84 392.138L1078.81 392.107C1078.51 391.786 1077.66 390.657 1076.57 387.618C1074.26 381.2 1072.26 370.172 1071.11 354.105C1068.83 322.413 1070.32 278.922 1073.55 233.95C1076.75 189.315 1081.58 144.541 1085.62 110.835C1087.63 94.0051 1095 58.3382 1092.84 54.9283C1090.84 51.5112 1087.62 53.1376 1079.32 50.6073Z" fill="url(#paint2_linear_43_6)" fill-opacity="0.6"/>
<path fill-rule="evenodd" clip-rule="evenodd" d="M598.489 244.845C600.446 243.302 603.443 244.074 606.65 244.899C608.424 245.356 610.263 245.83 612.026 245.937C627.999 246.906 648.768 247.008 665.131 242.767C668.393 241.921 671.719 241.12 675.061 240.315L675.063 240.314L675.065 240.314C685.183 237.875 695.449 235.401 704.525 231.566C717.258 226.183 729.502 217.515 739.632 200.547C749.978 183.217 754.507 164.589 753.654 144.725C752.856 126.13 747.402 108.705 741.265 92.9235C735.68 78.5603 729.363 66.7374 720.976 56.5675C712.706 46.5399 702.977 38.7932 691.167 31.5536C673.154 20.5114 647.841 9.3211 625.711 6.4812C614.776 5.07787 603.279 5.51921 593.545 10.4816C583.221 15.7447 573.724 26.9588 571.088 46.5605C569.608 57.5614 569.012 74.5093 568.787 92.1899C568.556 110.393 568.711 131.078 569.014 150.457C569.318 169.867 569.774 188.125 570.153 201.521C570.342 208.223 570.513 213.718 570.637 217.543C570.698 219.455 570.748 220.951 570.783 221.972L570.8 222.473L570.818 223.002C570.818 223.002 567.136 428.269 570.637 432.951C574.137 437.633 594.7 435.824 598.662 432.951C600.773 431.42 599.599 364.429 598.662 320.543V320.539C597.841 282.075 597.07 245.965 598.489 244.845ZM263.005 87.8987C286.149 57.0373 308.988 29.6428 350.42 30.0029C379.739 30.2577 396.859 42.8474 417.891 60.5348C441.582 80.4587 450.719 99.1367 462.977 125.616C477.846 157.735 480.76 181.15 484.473 210.992C484.784 213.494 485.101 216.041 485.431 218.641C486.326 225.697 487.402 232.598 488.547 239.935C488.95 242.518 489.361 245.154 489.775 247.87C491.313 257.943 492.84 268.772 493.634 279.773C495.253 302.191 493.914 326.599 483.348 350.206C470.772 378.302 449.224 397.99 426.101 411.049C402.696 424.267 376.017 431.645 351.023 433.486C330.575 434.993 314.751 433.34 299.761 427.106C284.853 420.907 271.661 410.532 256.351 396.623C225.23 368.348 218.893 321.91 214.059 286.477C213.51 282.455 212.98 278.574 212.436 274.878C208.637 249.075 214.397 219.304 219.54 199.048C222.266 188.308 225.17 178.938 227.386 172.258C228.499 168.906 229.449 166.199 230.133 164.3C230.393 163.578 230.614 162.972 230.793 162.49C230.872 162.2 230.963 161.869 231.066 161.498C231.465 160.064 232.042 158.038 232.784 155.555C234.264 150.602 236.424 143.76 239.163 136.136C244.471 121.364 252.62 101.748 263.005 87.8987ZM255.321 181.592L255.298 181.655C255.268 181.732 255.218 181.865 255.15 182.05C255.012 182.421 254.797 183.002 254.52 183.773C253.963 185.318 253.155 187.618 252.193 190.517C250.261 196.34 247.751 204.45 245.423 213.622C240.455 233.188 237.537 252.962 239.465 266.051C240.049 270.021 240.602 273.9 241.141 277.686L241.146 277.716L241.147 277.727C246.429 314.802 250.444 342.983 270.762 361.443C285.412 374.754 296.01 382.76 307.203 387.415C318.313 392.035 330.9 393.709 349.656 392.327C372.211 390.666 395.983 383.985 416.29 372.517C436.879 360.889 452.305 345.264 460.324 327.349C466.11 314.421 467.318 300.746 466.122 284.178C465.509 275.686 464.288 266.797 462.793 257.007C462.446 254.732 462.079 252.38 461.703 249.974L461.697 249.932L461.695 249.921C460.516 242.365 459.253 234.267 458.241 226.293C457.925 223.806 457.626 221.415 457.336 219.107C453.628 189.511 451.655 173.76 440.196 149.007C428.777 124.341 422.524 111.758 404.284 96.4182C384.724 79.9681 372.559 71.4055 350.259 71.2117C319.605 70.9453 303.448 89.2841 281.464 118.6C274.76 127.54 268.445 141.986 263.561 155.579C261.205 162.137 259.337 168.054 258.063 172.313C257.429 174.436 256.947 176.13 256.632 177.265C256.474 177.831 256.358 178.257 256.286 178.526C256.25 178.66 256.225 178.755 256.211 178.808L256.202 178.842L256.2 178.847L256.199 178.851L256.198 178.857L256.197 178.859L255.83 180.265L255.328 181.575L255.326 181.581L255.324 181.586L255.321 181.592ZM1301.46 101.65C1299.62 86.5399 1296.22 59.1303 1297.31 50.6073C1298.4 42.0843 1329.02 40.0239 1334.58 43.9561C1337.2 45.8073 1336.13 99.7632 1336.13 132.127C1336.13 177.888 1332.44 231.922 1336.13 234.377C1343.11 239.014 1430.25 243.475 1435.35 234.377C1437.87 229.874 1440.02 183.674 1442.18 137.412C1444.38 90.1805 1446.58 42.8845 1449.18 39.8352C1454.34 33.7992 1471.62 35.4256 1475.93 43.9561C1478.06 48.1677 1474.25 87.1607 1469.85 132.127C1465.34 178.241 1460.21 230.636 1460.25 258.246C1460.29 287.033 1466.14 329.02 1470.74 362.13C1474.33 387.918 1477.17 408.32 1475.93 412.907C1473.11 423.382 1457.21 425.158 1449.18 422.49C1444.93 421.074 1443.62 381.5 1442.37 343.759C1441.26 310.366 1440.2 278.408 1437.19 275.586C1430.78 269.575 1341.27 268.548 1334.58 275.586C1331.2 279.148 1335 313.38 1327.75 349.37C1320.67 384.494 1317.53 411.843 1314.83 412.907C1309.38 415.06 1290.36 411.867 1287.62 402.286C1286.49 398.306 1292.14 367.824 1298.69 344.099C1307.91 310.715 1307.12 280.183 1308.19 253.74C1309.71 216.195 1311.78 146.892 1301.46 101.65ZM598.22 54.6542C598.401 53.3093 598.68 51.4209 602.506 49.4701C606.923 47.2185 613.953 46.3344 623.336 47.5386C641.843 49.9136 664.336 59.6699 680.634 69.661C691.05 76.046 698.095 81.9646 703.505 88.5238C708.797 94.9409 713.062 102.627 717.319 113.575C722.904 127.937 725.662 138.559 726.04 147.354C726.363 154.88 725.031 162.984 718.952 173.166C713.439 182.401 706.534 187.879 696.969 191.922C689.569 195.05 681.623 196.968 672.073 199.273L672.071 199.273C668.429 200.152 664.554 201.088 660.386 202.168C651.013 204.597 632.772 204.591 621.841 204.588C617.282 204.586 613.995 204.585 613.153 204.761C612.677 204.861 612.038 205.058 611.287 205.289C607.52 206.45 600.927 208.483 597.905 203.476C594.281 197.471 596.678 149.496 596.678 149.496C596.379 130.39 596.233 110.35 596.453 92.9692C596.681 75.0662 597.289 61.5722 598.22 54.6542Z" fill="url(#paint3_linear_43_6)" fill-opacity="0.6"/>
<path fill-rule="evenodd" clip-rule="evenodd" d="M1730.24 246.323C1742.82 267.31 1736.07 404.396 1740.37 410.03C1744.67 415.664 1763.39 426.062 1767.86 414.682C1772.34 403.302 1770.75 282.119 1753.74 223.08C1736.56 163.466 1705.34 106.128 1656.76 35.3295C1649.99 25.4637 1642.67 17.6734 1634.66 14.7463C1625.66 11.4557 1617.39 14.8887 1610.9 22.8547C1605.12 29.9479 1601.23 39.9813 1598.41 49.5218C1595.49 59.3764 1593.12 70.7864 1591.06 82.5321C1588.66 96.2284 1586.37 112.323 1584.11 128.234L1584.11 128.243C1582.63 138.656 1581.16 148.991 1579.68 158.522C1575.68 184.269 1571.32 206.178 1565.64 220.992C1565.64 220.992 1495.89 396.821 1496.22 402.122C1496.55 407.423 1496.09 402.615 1508.23 412.356C1514.24 417.463 1517.72 423.82 1520.28 422.49C1522.84 421.159 1577.42 261.301 1586.56 249.539C1595.7 237.777 1717.67 225.335 1730.24 246.323ZM1600.28 203.456C1604.47 205.496 1708.97 203.266 1712.06 194.079C1715.15 184.891 1671.58 114.584 1637.41 64.7835C1632.52 57.6572 1631.68 54.3945 1628.33 54.8793C1624.98 55.364 1625.75 59.3213 1623.73 66.1373C1621.67 73.081 1619.74 82.0829 1617.83 92.9528C1615.52 106.143 1613.55 120.101 1611.45 134.91L1611.45 134.915L1611.45 134.918L1611.45 134.926L1611.44 134.996C1609.96 145.499 1608.41 156.431 1606.64 167.821C1604.8 179.669 1596.09 201.416 1600.28 203.456Z" fill="url(#paint4_linear_43_6)" fill-opacity="0.6"/>
<defs>
<linearGradient id="paint0_linear_43_6" x1="480.553" y1="-35.0279" x2="1882.73" y2="244.675" gradientUnits="userSpaceOnUse">
<stop stop-color="#E979FC"/>
<stop offset="0.9999" stop-color="#47FFFF" stop-opacity="0.92"/>
<stop offset="1" stop-color="#79FCF4" stop-opacity="0"/>
</linearGradient>
<linearGradient id="paint1_linear_43_6" x1="480.553" y1="-35.0279" x2="1882.73" y2="244.675" gradientUnits="userSpaceOnUse">
<stop stop-color="#E979FC"/>
<stop offset="0.9999" stop-color="#47FFFF" stop-opacity="0.92"/>
<stop offset="1" stop-color="#79FCF4" stop-opacity="0"/>
</linearGradient>
<linearGradient id="paint2_linear_43_6" x1="480.553" y1="-35.0279" x2="1882.73" y2="244.675" gradientUnits="userSpaceOnUse">
<stop stop-color="#E979FC"/>
<stop offset="0.9999" stop-color="#47FFFF" stop-opacity="0.92"/>
<stop offset="1" stop-color="#79FCF4" stop-opacity="0"/>
</linearGradient>
<linearGradient id="paint3_linear_43_6" x1="480.553" y1="-35.0279" x2="1882.73" y2="244.675" gradientUnits="userSpaceOnUse">
<stop stop-color="#E979FC"/>
<stop offset="0.9999" stop-color="#47FFFF" stop-opacity="0.92"/>
<stop offset="1" stop-color="#79FCF4" stop-opacity="0"/>
</linearGradient>
<linearGradient id="paint4_linear_43_6" x1="480.553" y1="-35.0279" x2="1882.73" y2="244.675" gradientUnits="userSpaceOnUse">
<stop stop-color="#E979FC"/>
<stop offset="0.9999" stop-color="#47FFFF" stop-opacity="0.92"/>
<stop offset="1" stop-color="#79FCF4" stop-opacity="0"/>
</linearGradient>
</defs>
</svg>
