<svg width="573" height="449" viewBox="0 0 573 449" fill="none" xmlns="http://www.w3.org/2000/svg">
<path d="M273.265 418.235C273.265 434.804 259.609 448.235 242.765 448.235C225.92 448.235 212.265 434.804 212.265 418.235C212.265 401.666 225.92 388.235 242.765 388.235C259.609 388.235 273.265 401.666 273.265 418.235Z" fill="#222222"/>
<path d="M273.265 418.235C273.265 434.804 259.609 448.235 242.765 448.235C225.92 448.235 212.265 434.804 212.265 418.235C212.265 401.666 225.92 388.235 242.765 388.235C259.609 388.235 273.265 401.666 273.265 418.235Z" stroke="black"/>
<path d="M259.265 418.735C259.265 427.848 252.101 435.235 243.265 435.235C234.428 435.235 227.265 427.848 227.265 418.735C227.265 409.622 234.428 402.235 243.265 402.235C252.101 402.235 259.265 409.622 259.265 418.735Z" fill="#535252"/>
<path d="M259.265 418.735C259.265 427.848 252.101 435.235 243.265 435.235C234.428 435.235 227.265 427.848 227.265 418.735C227.265 409.622 234.428 402.235 243.265 402.235C252.101 402.235 259.265 409.622 259.265 418.735Z" stroke="black"/>
<path fill-rule="evenodd" clip-rule="evenodd" d="M118.765 77.1943L210.765 308.235L535.265 284.735L572.265 117.235L118.765 77.1943ZM223.265 297.235L254.765 294.836L239.843 269.59L223.265 297.235ZM172.123 131.735L189.765 103.235L207.265 132.235L207.761 132.735L190.184 161.979L190.016 161.735L172.123 131.735ZM179.765 94.4459L148.265 91.735L164.369 118.735L179.765 94.4459ZM157.265 133.617L148.265 118.735L155.316 135.516L157.265 133.617ZM370.265 110.84L358.265 109.808L364.63 120.432L370.265 110.84ZM507.265 275.606L525.265 274.235L530.819 251.235L516.738 227.896L497.971 259.761L507.265 275.606ZM473.265 132.735L480.265 120.307L502.765 122.243L508.513 131.754L490.801 161.801L473.265 132.735ZM534.804 234.735L545.068 192.235L541.357 186.095L523.624 216.204L534.804 234.735ZM560.765 127.235L529.265 124.524L523.265 130.735L541.765 163.235L560.765 130.735V127.235ZM181.878 198.735L196.164 232.735L206.862 214.908L206.265 214.235L189.765 187.357L189.46 186.735L181.878 198.735ZM202.677 248.235L217.173 282.735L232.265 257.521V257.235L215.092 229.235L214.652 228.509L202.677 248.235ZM214.172 202.235L197.765 174.735L197.357 174.235L215.362 145.735L215.765 146.235L231.265 172.735L231.715 173.489L214.325 202.47L214.172 202.235ZM239.521 244.735L222.523 216.235L222.265 215.968L239.949 186.839L240.342 187.357L257.265 215.235L257.39 215.547L239.619 245.235L239.521 244.735ZM276.265 293.199L303.024 291.435L290.265 270.235L290.067 269.879L276.265 293.199ZM215.103 120.518L200.765 96.2532L228.265 98.6199L215.274 120.235L215.103 120.518ZM239.202 161.011L223.265 134.235L222.944 133.735L241.265 104.735L256.84 130.735L257.157 131.09L239.202 161.011ZM264.265 203.829L247.977 176.235L247.067 175.113L265.327 145.035L265.527 145.235L282.265 173.235L264.265 204.061V203.829ZM346.265 108.775L336.765 107.957L322.524 131.706L340.402 161.631L358.924 130.147L346.265 108.775ZM274.265 102.579L252.765 100.728L264.045 119.61L274.265 102.579ZM291.265 104.042L290.265 103.956L272.336 133.489L289.405 162.061L307.689 131.516L291.265 104.042ZM322.524 106.732L306.765 105.376L315.042 119.231L322.524 106.732ZM396.765 113.121L383.515 111.981L371.614 132.089L391.226 164.823L409.432 134.765L396.765 113.121ZM421.265 115.23L412.765 114.498L417.165 121.999L421.265 115.23ZM330.765 289.048L350.765 287.525L341.153 271.479L330.765 289.048ZM450.265 117.725L432.948 116.235L423.328 132.505L440.239 161.337L458.115 130.735L450.265 117.725ZM363.765 286.535L367.265 286.268L383.542 258.403L366.119 229.258L347.927 260.023L363.765 286.535ZM383.015 285.069L398.765 283.869L391.154 271.137L383.015 285.069ZM412.765 282.803L419.793 282.268L434.374 257.53L416.616 227.549L398.392 258.745L412.765 282.803ZM433.779 281.202L447.765 280.137L441.128 268.932L433.779 281.202ZM533.886 173.735L515.936 144.036L498.075 173.857L515.765 203.735L516.143 204.31L533.886 173.735ZM459.765 279.223L473.265 278.195L483.277 260.944L464.811 229.392L447.363 258.523L459.765 279.223ZM290.015 247.453L271.711 216.444L289.94 186.045L290.003 186.095L308.208 216.483L290.015 247.453ZM283.323 258.845L265.765 288.735L247.114 257.464L264.765 228.028L264.92 228.235L283.323 258.845ZM315.265 290.228L296.668 258.724L314.978 227.786L333.928 259.418L315.265 290.228ZM315.004 204.913L296.857 174.51L296.879 174.472L315.189 143.939L316.265 145.735L333.799 175.066L315.004 204.913ZM339.982 185.537L321.791 216.274L340.794 248.082L359.203 217.689L339.982 185.537ZM365.847 141.835L347.284 173.199L366.584 205.504L385.278 174.641L365.847 141.835ZM390.782 246.007L373.409 216.928L391.851 185.738L409.038 214.754L390.782 246.007ZM415.679 145.44L397.765 175.737L415.012 204.526L432.618 174.384L415.679 145.44ZM440.521 247.102L422.634 217.247L440.153 187.258L457.911 217.601L440.521 247.102ZM465.765 143.415L447.783 174.198L465.595 204.565L483.911 173.49L465.765 143.415ZM491.129 185.453L472.565 216.447L490.93 247.756L509.457 215.83L491.129 185.453ZM487.765 277.091L490.254 272.865L492.515 276.729L487.765 277.091ZM160.87 148.735L176.206 185.235L182.356 175.002L181.765 174.235L163.765 144.365L160.87 148.735Z" fill="#D9D9D9"/>
<path d="M74.765 10.735C74.765 10.735 17.8516 -0.771914 11.265 1.23501C4.67851 3.24193 2.28648 5.4462 1.26503 10.735C-0.0090512 17.3319 3.30829 21.7707 11.265 24.735L71.265 35.235C76.961 35.7864 78.235 38.0175 79.265 43.235C80.2951 48.4525 187.765 304.235 183.765 306.735C179.765 309.235 163.989 325.994 163.765 341.735C163.454 363.592 175.524 379.137 200.765 383.735C226.006 388.333 529.765 384.235 533.265 383.735C536.765 383.235 542.313 377.743 541.765 370.735C541.139 365.794 539.765 361.235 533.265 359.235C526.765 357.235 207.726 361.72 200.765 359.235C193.804 356.75 191.09 352.288 190.765 345.735C190.416 338.703 200.765 330.735 200.765 330.735C200.765 330.735 211.709 319.629 210.765 308.235L118.765 77.1943C118.765 77.1943 104.987 42.9759 100.265 30.735C95.5427 18.4941 90.5495 13.6046 74.765 10.735Z" fill="#FDCA8F"/>
<path d="M74.765 10.735L74.6659 11.2252L74.6756 11.2269L74.765 10.735ZM200.765 330.735L201.07 331.131L201.097 331.11L201.121 331.086L200.765 330.735ZM190.765 345.735L190.266 345.76L190.266 345.76L190.765 345.735ZM541.765 370.735L542.263 370.696L542.263 370.684L542.261 370.672L541.765 370.735ZM163.765 341.735L163.265 341.728L163.765 341.735ZM71.265 35.235L71.1788 35.7275L71.1977 35.7308L71.2169 35.7327L71.265 35.235ZM11.265 24.735L11.0905 25.2035L11.1336 25.2196L11.1788 25.2275L11.265 24.735ZM1.26503 10.735L0.774106 10.6402L1.26503 10.735ZM572.265 117.235L572.753 117.343L572.876 116.787L572.309 116.737L572.265 117.235ZM535.265 284.735L535.301 285.234L535.673 285.207L535.753 284.843L535.265 284.735ZM148.265 91.735L148.308 91.2368L147.336 91.1532L147.836 91.9911L148.265 91.735ZM560.765 127.235H561.265V126.776L560.808 126.737L560.765 127.235ZM525.265 274.235L525.303 274.734L525.666 274.706L525.751 274.352L525.265 274.235ZM223.265 297.235L222.836 296.978L222.339 297.807L223.303 297.734L223.265 297.235ZM148.265 118.735L148.693 118.476L147.804 118.929L148.265 118.735ZM254.765 294.836L254.803 295.335L255.604 295.274L255.195 294.582L254.765 294.836ZM265.765 288.735L265.336 288.991L265.768 289.717L266.196 288.988L265.765 288.735ZM370.265 110.84L370.696 111.094L371.098 110.41L370.308 110.342L370.265 110.84ZM189.765 103.235L190.193 102.977L189.77 102.276L189.34 102.972L189.765 103.235ZM303.024 291.435L303.057 291.934L303.875 291.88L303.452 291.177L303.024 291.435ZM172.123 131.735L171.698 131.472L171.538 131.73L171.693 131.991L172.123 131.735ZM179.765 94.4459L180.187 94.7136L180.628 94.0183L179.808 93.9478L179.765 94.4459ZM164.369 118.735L163.94 118.991L164.356 119.689L164.791 119.003L164.369 118.735ZM157.265 133.617L157.614 133.975L157.898 133.698L157.693 133.358L157.265 133.617ZM155.316 135.516L154.855 135.71L155.139 136.386L155.665 135.874L155.316 135.516ZM200.765 96.2532L200.808 95.755L199.841 95.6718L200.335 96.5075L200.765 96.2532ZM315.265 290.228L314.834 290.483L315.26 291.203L315.693 290.487L315.265 290.228ZM241.265 104.735L241.694 104.478L241.276 103.781L240.842 104.468L241.265 104.735ZM350.765 287.525L350.803 288.023L351.61 287.962L351.194 287.268L350.765 287.525ZM252.765 100.728L252.808 100.23L251.835 100.146L252.336 100.985L252.765 100.728ZM363.765 286.535L363.336 286.791L363.494 287.057L363.803 287.033L363.765 286.535ZM291.265 104.042L291.694 103.785L291.563 103.565L291.308 103.544L291.265 104.042ZM398.765 283.869L398.803 284.368L399.609 284.306L399.194 283.613L398.765 283.869ZM306.765 105.376L306.808 104.877L305.835 104.794L306.336 105.632L306.765 105.376ZM412.765 282.803L412.336 283.059L412.494 283.325L412.803 283.301L412.765 282.803ZM346.265 108.775L346.695 108.52L346.564 108.299L346.308 108.277L346.265 108.775ZM447.765 280.137L447.803 280.636L448.605 280.575L448.195 279.883L447.765 280.137ZM358.265 109.808L358.308 109.31L357.333 109.226L357.836 110.065L358.265 109.808ZM459.765 279.223L459.336 279.48L459.495 279.745L459.803 279.722L459.765 279.223ZM396.765 113.121L397.197 112.869L397.066 112.645L396.808 112.623L396.765 113.121ZM492.515 276.729L492.553 277.228L493.351 277.167L492.947 276.477L492.515 276.729ZM412.765 114.498L412.808 114L411.845 113.917L412.334 114.751L412.765 114.498ZM507.265 275.606L506.834 275.859L506.992 276.128L507.303 276.104L507.265 275.606ZM450.265 117.725L450.693 117.467L450.562 117.249L450.308 117.227L450.265 117.725ZM530.819 251.235L531.305 251.352L531.354 251.153L531.248 250.977L530.819 251.235ZM480.265 120.307L480.308 119.809L479.987 119.781L479.829 120.062L480.265 120.307ZM473.265 132.735L472.829 132.49L472.686 132.744L472.837 132.993L473.265 132.735ZM534.804 234.735L534.376 234.993L535.005 236.035L535.29 234.852L534.804 234.735ZM502.765 122.243L503.193 121.985L503.061 121.767L502.808 121.745L502.765 122.243ZM545.068 192.235L545.554 192.352L545.602 192.152L545.496 191.976L545.068 192.235ZM529.265 124.524L529.308 124.026L529.071 124.006L528.905 124.177L529.265 124.524ZM523.265 130.735L522.905 130.388L522.645 130.657L522.83 130.982L523.265 130.735ZM541.765 163.235L541.33 163.482L541.759 164.236L542.197 163.487L541.765 163.235ZM560.765 130.735L561.197 130.987L561.265 130.87V130.735H560.765ZM176.206 185.235L175.745 185.429L176.127 186.337L176.635 185.493L176.206 185.235ZM181.765 174.235L181.337 174.493L181.352 174.518L181.369 174.54L181.765 174.235ZM181.878 198.735L181.456 198.468L181.317 198.688L181.418 198.929L181.878 198.735ZM189.765 187.357L189.316 187.577L189.327 187.598L189.339 187.618L189.765 187.357ZM196.164 232.735L195.703 232.929L196.085 233.838L196.593 232.992L196.164 232.735ZM206.265 214.235L205.839 214.497L205.862 214.534L205.891 214.567L206.265 214.235ZM202.677 248.235L202.249 247.976L202.117 248.194L202.216 248.429L202.677 248.235ZM215.092 229.235L214.664 229.494L214.666 229.496L215.092 229.235ZM217.173 282.735L216.712 282.929L217.094 283.839L217.602 282.992L217.173 282.735ZM232.265 257.235H232.765V257.094L232.691 256.974L232.265 257.235ZM239.843 269.59L240.273 269.335L239.846 268.612L239.414 269.332L239.843 269.59ZM190.016 161.735L189.587 161.991L189.595 162.005L189.605 162.019L190.016 161.735ZM207.265 132.235L206.837 132.493L206.868 132.545L206.91 132.587L207.265 132.235ZM197.765 174.735L198.194 174.479L198.176 174.447L198.152 174.419L197.765 174.735ZM215.765 146.235L216.197 145.983L216.178 145.95L216.154 145.921L215.765 146.235ZM214.172 202.235L213.743 202.491L213.748 202.5L213.753 202.508L214.172 202.235ZM231.265 172.735L230.833 172.987L230.836 172.991L231.265 172.735ZM222.523 216.235L222.952 215.979L222.922 215.929L222.882 215.888L222.523 216.235ZM240.342 187.357L240.77 187.097L240.756 187.075L240.74 187.054L240.342 187.357ZM239.521 244.735L240.012 244.639L239.995 244.554L239.951 244.479L239.521 244.735ZM257.265 215.235L257.729 215.049L257.714 215.011L257.692 214.976L257.265 215.235ZM264.92 228.235L265.348 227.977L265.335 227.956L265.32 227.936L264.92 228.235ZM276.265 293.199L275.835 292.944L275.352 293.76L276.298 293.697L276.265 293.199ZM290.265 270.235L289.828 270.478L289.832 270.486L289.837 270.493L290.265 270.235ZM215.103 120.518L214.673 120.773L215.1 121.495L215.532 120.776L215.103 120.518ZM228.265 98.6199L228.694 98.8774L229.106 98.1904L228.308 98.1217L228.265 98.6199ZM223.265 134.235L223.695 133.979L223.69 133.972L223.686 133.965L223.265 134.235ZM239.202 161.011L238.773 161.267L239.201 161.986L239.631 161.268L239.202 161.011ZM256.84 130.735L256.411 130.992L256.436 131.032L256.467 131.067L256.84 130.735ZM247.977 176.235L248.407 175.981L248.389 175.949L248.365 175.92L247.977 176.235ZM265.527 145.235L265.956 144.978L265.924 144.925L265.88 144.881L265.527 145.235ZM264.265 203.829H264.765V203.692L264.696 203.575L264.265 203.829ZM282.265 173.235L282.697 173.487L282.846 173.232L282.694 172.978L282.265 173.235ZM336.765 107.957L336.808 107.459L336.497 107.433L336.336 107.7L336.765 107.957ZM322.524 131.706L322.095 131.449L321.941 131.706L322.095 131.963L322.524 131.706ZM296.857 174.51L296.428 174.253L296.274 174.509L296.428 174.766L296.857 174.51ZM290.003 186.095L290.432 185.838L290.385 185.759L290.313 185.702L290.003 186.095ZM274.265 102.579L274.694 102.836L275.106 102.149L274.308 102.08L274.265 102.579ZM290.265 103.956L290.308 103.457L289.999 103.431L289.838 103.696L290.265 103.956ZM322.524 106.732L322.953 106.989L323.364 106.302L322.567 106.234L322.524 106.732ZM383.515 111.981L383.558 111.483L383.245 111.456L383.085 111.726L383.515 111.981ZM421.265 115.23L421.693 115.489L422.11 114.8L421.308 114.731L421.265 115.23ZM330.765 289.048L330.335 288.793L329.846 289.619L330.803 289.546L330.765 289.048ZM432.948 116.235L432.991 115.737L432.678 115.71L432.518 115.981L432.948 116.235ZM458.115 130.735L458.546 130.987L458.696 130.731L458.543 130.477L458.115 130.735ZM367.265 286.268L367.303 286.767L367.565 286.747L367.697 286.52L367.265 286.268ZM383.015 285.069L382.583 284.816L382.102 285.64L383.053 285.567L383.015 285.069ZM465.765 143.415L466.193 143.156L465.758 142.435L465.333 143.163L465.765 143.415ZM508.513 131.754L508.944 132.008L509.095 131.75L508.941 131.495L508.513 131.754ZM419.793 282.268L419.831 282.766L420.091 282.746L420.224 282.522L419.793 282.268ZM433.779 281.202L433.35 280.946L432.854 281.774L433.817 281.701L433.779 281.202ZM515.936 144.036L516.364 143.778L515.935 143.066L515.508 143.779L515.936 144.036ZM533.886 173.735L534.319 173.986L534.468 173.73L534.314 173.476L533.886 173.735ZM473.265 278.195L473.303 278.694L473.565 278.674L473.697 278.446L473.265 278.195ZM541.357 186.095L541.784 185.836L541.351 185.119L540.926 185.841L541.357 186.095ZM487.765 277.091L487.334 276.837L486.848 277.662L487.803 277.59L487.765 277.091ZM264.045 119.61L263.616 119.867L264.044 120.584L264.474 119.868L264.045 119.61ZM272.336 133.489L271.909 133.229L271.752 133.487L271.907 133.745L272.336 133.489ZM271.711 216.444L271.283 216.187L271.13 216.442L271.281 216.698L271.711 216.444ZM289.405 162.061L288.976 162.318L289.405 163.036L289.834 162.318L289.405 162.061ZM290.015 247.453L289.585 247.707L290.016 248.438L290.446 247.706L290.015 247.453ZM283.323 258.845L283.755 259.098L283.905 258.842L283.752 258.587L283.323 258.845ZM296.668 258.724L296.238 258.469L296.088 258.723L296.238 258.978L296.668 258.724ZM315.042 119.231L314.613 119.487L315.042 120.205L315.471 119.488L315.042 119.231ZM307.689 131.516L308.118 131.773L308.272 131.516L308.118 131.259L307.689 131.516ZM315.004 204.913L314.575 205.169L314.993 205.869L315.428 205.179L315.004 204.913ZM321.791 216.274L321.361 216.019L321.21 216.275L321.362 216.53L321.791 216.274ZM314.978 227.786L315.407 227.529L314.976 226.808L314.548 227.531L314.978 227.786ZM308.208 216.483L308.639 216.736L308.789 216.481L308.637 216.226L308.208 216.483ZM340.402 161.631L339.972 161.887L340.405 162.611L340.833 161.884L340.402 161.631ZM347.284 173.199L346.854 172.944L346.703 173.2L346.855 173.455L347.284 173.199ZM339.982 185.537L340.412 185.28L339.98 184.559L339.552 185.282L339.982 185.537ZM333.799 175.066L334.222 175.332L334.385 175.072L334.228 174.809L333.799 175.066ZM340.794 248.082L340.364 248.339L340.791 249.052L341.221 248.341L340.794 248.082ZM347.927 260.023L347.497 259.769L347.346 260.024L347.498 260.28L347.927 260.023ZM341.153 271.479L341.582 271.223L341.15 270.502L340.723 271.225L341.153 271.479ZM333.928 259.418L334.355 259.677L334.511 259.419L334.357 259.161L333.928 259.418ZM364.63 120.432L364.202 120.689L364.635 121.412L365.062 120.686L364.63 120.432ZM371.614 132.089L371.184 131.835L371.032 132.091L371.185 132.346L371.614 132.089ZM365.847 141.835L366.277 141.58L365.846 140.853L365.416 141.58L365.847 141.835ZM358.924 130.147L359.355 130.4L359.505 130.146L359.354 129.892L358.924 130.147ZM366.584 205.504L366.155 205.76L366.581 206.474L367.012 205.763L366.584 205.504ZM373.409 216.928L372.979 216.673L372.828 216.929L372.98 217.184L373.409 216.928ZM366.119 229.258L366.548 229.001L366.116 228.279L365.688 229.003L366.119 229.258ZM359.203 217.689L359.631 217.949L359.787 217.691L359.632 217.433L359.203 217.689ZM391.154 271.137L391.583 270.88L391.149 270.154L390.722 270.884L391.154 271.137ZM398.392 258.745L397.961 258.493L397.812 258.748L397.963 259.002L398.392 258.745ZM390.782 246.007L390.353 246.263L390.787 246.99L391.214 246.259L390.782 246.007ZM383.542 258.403L383.973 258.655L384.122 258.4L383.971 258.146L383.542 258.403ZM391.226 164.823L390.797 165.08L391.223 165.792L391.653 165.082L391.226 164.823ZM397.765 175.737L397.334 175.483L397.183 175.739L397.336 175.994L397.765 175.737ZM391.851 185.738L392.282 185.483L391.851 184.757L391.421 185.484L391.851 185.738ZM385.278 174.641L385.706 174.9L385.861 174.644L385.709 174.386L385.278 174.641ZM417.165 121.999L416.733 122.252L417.158 122.975L417.592 122.258L417.165 121.999ZM423.328 132.505L422.897 132.251L422.747 132.504L422.896 132.758L423.328 132.505ZM415.679 145.44L416.111 145.187L415.682 144.454L415.249 145.186L415.679 145.44ZM409.432 134.765L409.86 135.024L410.014 134.77L409.864 134.513L409.432 134.765ZM415.012 204.526L414.583 204.783L415.018 205.508L415.444 204.778L415.012 204.526ZM422.634 217.247L422.202 216.995L422.053 217.251L422.205 217.504L422.634 217.247ZM416.616 227.549L417.047 227.294L416.613 226.563L416.185 227.297L416.616 227.549ZM409.038 214.754L409.469 215.006L409.618 214.752L409.468 214.499L409.038 214.754ZM441.128 268.932L441.558 268.678L441.131 267.955L440.699 268.675L441.128 268.932ZM447.363 258.523L446.934 258.266L446.78 258.523L446.934 258.78L447.363 258.523ZM440.521 247.102L440.092 247.359L440.524 248.081L440.952 247.356L440.521 247.102ZM434.374 257.53L434.805 257.784L434.955 257.529L434.805 257.275L434.374 257.53ZM440.153 187.258L440.585 187.006L440.153 186.268L439.721 187.006L440.153 187.258ZM447.783 174.198L447.351 173.945L447.203 174.198L447.351 174.451L447.783 174.198ZM440.239 161.337L439.808 161.59L440.24 162.327L440.671 161.589L440.239 161.337ZM432.618 174.384L433.05 174.636L433.198 174.384L433.05 174.131L432.618 174.384ZM490.801 161.801L490.373 162.06L490.806 162.777L491.232 162.055L490.801 161.801ZM498.075 173.857L497.646 173.6L497.493 173.855L497.645 174.112L498.075 173.857ZM491.129 185.453L491.557 185.195L491.128 184.483L490.7 185.196L491.129 185.453ZM483.911 173.49L484.342 173.744L484.494 173.487L484.34 173.232L483.911 173.49ZM465.595 204.565L465.164 204.818L465.594 205.551L466.026 204.818L465.595 204.565ZM472.565 216.447L472.136 216.19L471.984 216.445L472.134 216.7L472.565 216.447ZM464.811 229.392L465.243 229.139L464.816 228.411L464.382 229.135L464.811 229.392ZM457.911 217.601L458.341 217.855L458.491 217.602L458.342 217.348L457.911 217.601ZM515.765 203.735L515.335 203.99L515.341 204L515.347 204.01L515.765 203.735ZM523.624 216.204L523.193 215.95L523.042 216.207L523.196 216.462L523.624 216.204ZM516.738 227.896L517.166 227.638L516.733 226.92L516.307 227.643L516.738 227.896ZM509.457 215.83L509.89 216.081L510.038 215.825L509.886 215.572L509.457 215.83ZM490.93 247.756L490.498 248.009L490.932 248.749L491.362 248.007L490.93 247.756ZM497.971 259.761L497.54 259.508L497.391 259.761L497.54 260.014L497.971 259.761ZM490.254 272.865L490.685 272.613L490.255 271.878L489.823 272.612L490.254 272.865ZM483.277 260.944L483.709 261.195L483.855 260.943L483.708 260.691L483.277 260.944ZM160.87 148.735L160.453 148.459L160.305 148.682L160.409 148.929L160.87 148.735ZM163.765 144.365L164.193 144.107L163.785 143.429L163.348 144.089L163.765 144.365ZM316.265 145.735L316.694 145.478L316.694 145.478L316.265 145.735ZM315.189 143.939L315.618 143.682L315.189 142.966L314.76 143.682L315.189 143.939ZM290.067 269.879L290.503 269.635L290.08 268.874L289.636 269.624L290.067 269.879ZM516.143 204.31L515.725 204.585L516.169 205.26L516.575 204.561L516.143 204.31ZM296.879 174.472L297.308 174.73L297.308 174.73L296.879 174.472ZM289.94 186.045L290.25 185.652L289.803 185.3L289.511 185.788L289.94 186.045ZM264.765 228.028L265.166 227.729L264.72 227.131L264.336 227.771L264.765 228.028ZM247.114 257.464L246.685 257.207L246.531 257.463L246.684 257.72L247.114 257.464ZM264.265 204.061H263.765V205.909L264.697 204.313L264.265 204.061ZM257.39 215.547L257.819 215.803L257.946 215.591L257.854 215.36L257.39 215.547ZM239.619 245.235L239.129 245.331L239.379 246.61L240.048 245.492L239.619 245.235ZM232.265 257.521L232.694 257.778L232.765 257.659V257.521H232.265ZM214.652 228.509L215.079 228.25L214.652 227.545L214.224 228.25L214.652 228.509ZM222.265 215.968L221.838 215.709L221.638 216.038L221.905 216.316L222.265 215.968ZM239.949 186.839L240.347 186.536L239.903 185.951L239.521 186.579L239.949 186.839ZM247.067 175.113L246.64 174.854L246.457 175.155L246.679 175.428L247.067 175.113ZM265.327 145.035L265.68 144.682L265.23 144.231L264.899 144.776L265.327 145.035ZM257.157 131.09L257.585 131.347L257.774 131.032L257.53 130.758L257.157 131.09ZM231.715 173.489L232.143 173.747L232.297 173.49L232.144 173.233L231.715 173.489ZM214.325 202.47L213.906 202.742L214.342 203.412L214.754 202.727L214.325 202.47ZM206.862 214.908L207.29 215.165L207.479 214.85L207.236 214.576L206.862 214.908ZM189.46 186.735L189.909 186.515L189.514 185.712L189.037 186.468L189.46 186.735ZM197.357 174.235L196.934 173.968L196.742 174.272L196.97 174.551L197.357 174.235ZM215.362 145.735L215.752 145.421L215.313 144.877L214.94 145.468L215.362 145.735ZM222.944 133.735L222.521 133.468L222.351 133.737L222.523 134.005L222.944 133.735ZM182.356 175.002L182.785 175.26L182.961 174.967L182.752 174.697L182.356 175.002ZM190.184 161.979L189.772 162.262L190.213 162.902L190.613 162.236L190.184 161.979ZM207.761 132.735L208.189 132.993L208.39 132.659L208.116 132.383L207.761 132.735ZM215.274 120.235L215.702 120.493L215.702 120.493L215.274 120.235ZM11.4108 1.7133C11.7579 1.60754 12.3128 1.53628 13.0803 1.51069C13.8386 1.4854 14.7716 1.5054 15.8566 1.56622C18.0262 1.68784 20.7765 1.97107 23.9025 2.36872C30.1529 3.16381 37.8758 4.41249 45.399 5.72497C52.921 7.03724 60.238 8.4123 65.6748 9.45939C68.3931 9.98291 70.6412 10.4244 72.2095 10.735C72.9937 10.8903 73.608 11.0128 74.0261 11.0965C74.2352 11.1384 74.3952 11.1706 74.5029 11.1922C74.5568 11.2031 74.5976 11.2113 74.6249 11.2168C74.6385 11.2196 74.6488 11.2216 74.6557 11.223C74.6591 11.2237 74.6617 11.2242 74.6634 11.2246C74.6643 11.2247 74.6649 11.2249 74.6653 11.225C74.6657 11.225 74.6659 11.2251 74.765 10.735C74.8641 10.2449 74.8639 10.2449 74.8634 10.2448C74.863 10.2447 74.8623 10.2446 74.8615 10.2444C74.8597 10.244 74.8571 10.2435 74.8536 10.2428C74.8467 10.2414 74.8363 10.2393 74.8226 10.2365C74.7952 10.231 74.7542 10.2228 74.7002 10.2119C74.5922 10.1901 74.4318 10.1579 74.2224 10.116C73.8036 10.0321 73.1887 9.90945 72.4038 9.75401C70.834 9.44315 68.5842 9.00133 65.8639 8.47743C60.4237 7.42968 53.1006 6.05345 45.5709 4.73985C38.0425 3.42647 30.302 2.17471 24.0287 1.37671C20.8928 0.977801 18.1161 0.691312 15.9126 0.567788C14.811 0.506039 13.8459 0.484603 13.0469 0.511244C12.2571 0.537581 11.5955 0.611612 11.1193 0.756718L11.4108 1.7133ZM74.6756 11.2269C82.5366 12.6561 87.6324 14.576 91.3472 17.6081C95.0582 20.6372 97.4482 24.8227 99.7985 30.915L100.732 30.555C98.3595 24.4065 95.8918 20.0267 91.9795 16.8334C88.0709 13.6431 82.7779 11.6836 74.8545 10.2431L74.6756 11.2269ZM210.267 308.276C210.726 313.812 208.293 319.324 205.695 323.493C204.4 325.57 203.076 327.296 202.075 328.502C201.575 329.105 201.157 329.578 200.864 329.899C200.718 330.059 200.603 330.181 200.525 330.263C200.486 330.304 200.457 330.335 200.437 330.355C200.427 330.365 200.42 330.373 200.415 330.378C200.413 330.38 200.411 330.382 200.41 330.383C200.41 330.383 200.409 330.384 200.409 330.384C200.409 330.384 200.409 330.384 200.409 330.384C200.409 330.384 200.409 330.384 200.765 330.735C201.121 331.086 201.121 331.086 201.121 331.086C201.122 331.086 201.122 331.085 201.122 331.085C201.123 331.085 201.123 331.084 201.124 331.083C201.126 331.082 201.128 331.079 201.131 331.076C201.136 331.07 201.145 331.062 201.156 331.051C201.177 331.028 201.209 330.995 201.25 330.952C201.332 330.865 201.452 330.738 201.603 330.573C201.905 330.241 202.334 329.757 202.845 329.141C203.867 327.909 205.22 326.146 206.543 324.022C209.181 319.79 211.749 314.052 211.263 308.194L210.267 308.276ZM200.765 330.735C200.46 330.339 200.46 330.339 200.46 330.339C200.46 330.339 200.459 330.339 200.459 330.339C200.459 330.34 200.458 330.34 200.457 330.341C200.456 330.342 200.454 330.344 200.451 330.346C200.446 330.35 200.438 330.356 200.428 330.364C200.407 330.38 200.377 330.404 200.338 330.435C200.26 330.496 200.147 330.587 200.004 330.705C199.717 330.94 199.309 331.283 198.821 331.716C197.847 332.582 196.549 333.812 195.26 335.267C193.973 336.719 192.685 338.408 191.739 340.19C190.795 341.97 190.172 343.878 190.266 345.76L191.264 345.71C191.183 344.076 191.724 342.352 192.622 340.659C193.518 338.97 194.752 337.348 196.009 335.93C197.263 334.513 198.531 333.312 199.486 332.464C199.962 332.04 200.36 331.706 200.638 331.478C200.777 331.364 200.886 331.276 200.96 331.218C200.997 331.189 201.025 331.167 201.043 331.152C201.053 331.145 201.059 331.139 201.064 331.136C201.066 331.134 201.068 331.133 201.069 331.132C201.069 331.132 201.07 331.131 201.07 331.131C201.07 331.131 201.07 331.131 201.07 331.131C201.07 331.131 201.07 331.131 200.765 330.735ZM190.266 345.76C190.431 349.098 191.208 351.953 192.868 354.299C194.531 356.648 197.045 358.438 200.597 359.706L200.933 358.764C197.524 357.547 195.201 355.863 193.685 353.722C192.167 351.577 191.424 348.925 191.264 345.71L190.266 345.76ZM200.597 359.706C200.759 359.764 200.989 359.806 201.25 359.842C201.521 359.879 201.864 359.914 202.273 359.946C203.091 360.012 204.193 360.07 205.556 360.122C208.283 360.227 212.075 360.307 216.778 360.366C226.184 360.486 239.246 360.522 254.741 360.502C285.734 360.462 326.471 360.197 367.192 359.917C407.913 359.637 448.619 359.341 479.55 359.241C495.016 359.191 508.037 359.189 517.393 359.263C522.072 359.3 525.832 359.355 528.522 359.433C529.867 359.471 530.941 359.515 531.728 359.565C532.121 359.59 532.438 359.616 532.678 359.643C532.93 359.671 533.066 359.697 533.118 359.713L533.412 358.757C533.261 358.711 533.041 358.677 532.789 358.649C532.526 358.62 532.192 358.592 531.791 358.567C530.988 358.516 529.901 358.472 528.551 358.433C525.85 358.355 522.082 358.3 517.401 358.263C508.039 358.189 495.014 358.191 479.547 358.241C448.613 358.341 407.905 358.637 367.185 358.917C326.463 359.197 285.729 359.462 254.74 359.502C239.246 359.522 226.189 359.486 216.79 359.367C212.09 359.307 208.308 359.227 205.594 359.123C204.236 359.071 203.151 359.013 202.353 358.95C201.953 358.918 201.631 358.885 201.385 358.851C201.128 358.816 200.989 358.784 200.933 358.764L200.597 359.706ZM533.118 359.713C536.264 360.681 538.128 362.251 539.292 364.144C540.468 366.057 540.958 368.344 541.269 370.798L542.261 370.672C541.946 368.186 541.436 365.722 540.144 363.62C538.839 361.499 536.766 359.789 533.412 358.757L533.118 359.713ZM541.267 370.774C541.529 374.133 540.332 377.139 538.635 379.373C536.923 381.626 534.766 383.015 533.194 383.24L533.336 384.23C535.264 383.955 537.631 382.348 539.431 379.978C541.247 377.588 542.549 374.345 542.263 370.696L541.267 370.774ZM533.194 383.24C533.192 383.24 533.192 383.24 533.186 383.241C533.18 383.242 533.175 383.242 533.165 383.243C533.147 383.245 533.124 383.247 533.094 383.249C533.035 383.253 532.957 383.257 532.859 383.262C532.664 383.271 532.397 383.281 532.059 383.292C531.383 383.315 530.431 383.34 529.22 383.368C526.798 383.424 523.344 383.492 519 383.567C510.311 383.718 498.06 383.901 483.378 384.093C454.015 384.475 414.93 384.891 375.165 385.147C335.399 385.403 294.956 385.5 262.878 385.245C246.839 385.118 232.894 384.903 222.171 384.576C211.429 384.248 203.965 383.81 200.855 383.243L200.675 384.227C203.875 384.81 211.425 385.249 222.14 385.575C232.874 385.903 246.828 386.118 262.87 386.245C294.956 386.5 335.404 386.403 375.171 386.147C414.939 385.891 454.027 385.475 483.391 385.093C498.074 384.901 510.326 384.718 519.017 384.567C523.363 384.492 526.818 384.424 529.243 384.368C530.455 384.34 531.411 384.314 532.091 384.292C532.752 384.27 533.192 384.251 533.336 384.23L533.194 383.24ZM200.855 383.243C188.318 380.959 179.105 375.967 173.063 368.883C167.024 361.8 164.111 352.575 164.265 341.742L163.265 341.728C163.108 352.752 166.075 362.228 172.303 369.531C178.529 376.833 187.972 381.913 200.675 384.227L200.855 383.243ZM164.265 341.742C164.375 334.02 168.309 325.995 172.76 319.554C174.981 316.341 177.319 313.54 179.348 311.388C181.386 309.226 183.087 307.749 184.03 307.159L183.5 306.311C182.443 306.971 180.671 308.526 178.62 310.702C176.559 312.888 174.189 315.728 171.938 318.985C167.446 325.484 163.379 333.71 163.265 341.728L164.265 341.742ZM184.03 307.159C184.192 307.058 184.271 306.907 184.31 306.797C184.349 306.685 184.365 306.568 184.371 306.462C184.383 306.249 184.359 305.989 184.314 305.698C184.223 305.11 184.029 304.297 183.743 303.285C183.171 301.257 182.217 298.367 180.937 294.742C178.376 287.491 174.5 277.268 169.735 265.06C160.205 240.644 147.113 208.271 133.864 175.815C120.616 143.359 107.21 110.818 97.0528 86.0666C91.974 73.6904 87.7075 63.2623 84.6787 55.7654C83.1642 52.0168 81.9597 49.0026 81.1181 46.8449C80.6972 45.7657 80.3679 44.9031 80.1363 44.2708C79.8973 43.6186 79.7784 43.2537 79.7556 43.1382L78.7745 43.3319C78.8161 43.5424 78.9695 43.993 79.1973 44.6149C79.4325 45.2567 79.7647 46.1268 80.1865 47.2083C81.0304 49.3718 82.2366 52.3904 83.7515 56.14C86.7815 63.6397 91.0489 74.0701 96.1277 86.4463C106.286 111.2 119.691 143.738 132.939 176.193C146.187 208.648 159.276 241.015 168.804 265.424C173.568 277.629 177.439 287.84 179.994 295.075C181.272 298.695 182.218 301.561 182.781 303.557C183.063 304.558 183.245 305.324 183.326 305.85C183.367 306.117 183.379 306.297 183.373 306.407C183.369 306.462 183.363 306.475 183.367 306.464C183.37 306.454 183.4 306.373 183.5 306.311L184.03 307.159ZM79.7556 43.1382C79.2406 40.5298 78.6463 38.5407 77.3852 37.1494C76.104 35.736 74.2129 35.018 71.3132 34.7373L71.2169 35.7327C74.0131 36.0034 75.607 36.6767 76.6443 37.821C77.7016 38.9875 78.2594 40.7228 78.7745 43.3319L79.7556 43.1382ZM71.3512 34.7425L11.3512 24.2425L11.1788 25.2275L71.1788 35.7275L71.3512 34.7425ZM11.4396 24.2665C7.50696 22.8014 4.79199 20.9965 3.20881 18.8045C1.63925 16.6313 1.14005 14.0189 1.75596 10.8298L0.774106 10.6402C0.115936 14.0481 0.638356 16.9535 2.39814 19.39C4.14428 21.8077 7.06636 23.7044 11.0905 25.2035L11.4396 24.2665ZM1.75596 10.8298C2.25478 8.24703 3.07425 6.48468 4.52145 5.11779C5.98446 3.73599 8.13808 2.71049 11.4108 1.7133L11.1193 0.756718C7.80547 1.76645 5.46981 2.84654 3.83481 4.3908C2.184 5.94999 1.29673 7.93417 0.774106 10.6402L1.75596 10.8298ZM99.7985 30.915C102.161 37.0389 106.787 48.6567 110.822 58.7407C112.839 63.7833 114.709 68.4434 116.075 71.8428C116.757 73.5425 117.314 74.927 117.7 75.8866C117.893 76.3665 118.043 76.74 118.145 76.9937C118.196 77.1205 118.235 77.2173 118.262 77.2825C118.275 77.315 118.285 77.3397 118.291 77.3562C118.295 77.3644 118.297 77.3706 118.299 77.3748C118.3 77.3769 118.3 77.3784 118.301 77.3795C118.301 77.38 118.301 77.3804 118.301 77.3806C118.301 77.3809 118.301 77.381 118.765 77.1943C119.229 77.0075 119.229 77.0074 119.229 77.0071C119.229 77.0069 119.228 77.0065 119.228 77.006C119.228 77.0049 119.227 77.0034 119.226 77.0013C119.225 76.9972 119.222 76.9909 119.219 76.9827C119.212 76.9662 119.202 76.9416 119.189 76.909C119.163 76.8439 119.124 76.7471 119.073 76.6203C118.971 76.3668 118.821 75.9932 118.628 75.5135C118.242 74.554 117.685 73.1696 117.002 71.47C115.637 68.0709 113.767 63.4113 111.75 58.3693C107.715 48.2839 103.091 36.6721 100.732 30.555L99.7985 30.915ZM118.301 77.3793L210.301 308.42L211.23 308.05L119.23 77.0093L118.301 77.3793ZM118.721 77.6923L572.221 117.733L572.309 116.737L118.809 76.6962L118.721 77.6923ZM571.777 117.127L534.777 284.627L535.753 284.843L572.753 117.343L571.777 117.127ZM535.229 284.236L210.729 307.736L210.801 308.734L535.301 285.234L535.229 284.236ZM254.727 294.337L223.227 296.736L223.303 297.734L254.803 295.335L254.727 294.337ZM189.34 102.972L171.698 131.472L172.548 131.998L190.19 103.498L189.34 102.972ZM148.222 92.2332L179.722 94.9441L179.808 93.9478L148.308 91.2368L148.222 92.2332ZM147.836 91.9911L163.94 118.991L164.799 118.479L148.694 91.4789L147.836 91.9911ZM179.343 94.1782L163.947 118.467L164.791 119.003L180.187 94.7136L179.343 94.1782ZM147.837 118.994L156.837 133.876L157.693 133.358L148.693 118.476L147.837 118.994ZM155.777 135.322L148.726 118.541L147.804 118.929L154.855 135.71L155.777 135.322ZM156.916 133.259L154.967 135.158L155.665 135.874L157.614 133.975L156.916 133.259ZM358.222 110.306L370.222 111.339L370.308 110.342L358.308 109.31L358.222 110.306ZM525.227 273.736L507.227 275.107L507.303 276.104L525.303 274.734L525.227 273.736ZM530.333 251.118L524.779 274.118L525.751 274.352L531.305 251.352L530.333 251.118ZM479.829 120.062L472.829 132.49L473.701 132.98L480.701 120.553L479.829 120.062ZM480.222 120.805L502.722 122.742L502.808 121.745L480.308 119.809L480.222 120.805ZM544.582 192.118L534.318 234.618L535.29 234.852L545.554 192.352L544.582 192.118ZM529.222 125.022L560.722 127.733L560.808 126.737L529.308 124.026L529.222 125.022ZM528.905 124.177L522.905 130.388L523.625 131.082L529.625 124.871L528.905 124.177ZM522.83 130.982L541.33 163.482L542.2 162.988L523.7 130.488L522.83 130.982ZM542.197 163.487L561.197 130.987L560.333 130.483L541.333 162.983L542.197 163.487ZM196.625 232.541L182.339 198.541L181.418 198.929L195.703 232.929L196.625 232.541ZM189.339 187.618L205.839 214.497L206.691 213.973L190.191 187.095L189.339 187.618ZM217.634 282.541L203.138 248.041L202.216 248.429L216.712 282.929L217.634 282.541ZM214.666 229.496L231.839 257.496L232.691 256.974L215.518 228.974L214.666 229.496ZM239.412 269.844L254.335 295.09L255.195 294.582L240.273 269.335L239.412 269.844ZM171.693 131.991L189.587 161.991L190.446 161.479L172.552 131.479L171.693 131.991ZM189.337 103.493L206.837 132.493L207.693 131.977L190.193 102.977L189.337 103.493ZM197.336 174.991L213.743 202.491L214.602 201.979L198.194 174.479L197.336 174.991ZM215.333 146.487L230.833 172.987L231.697 172.483L216.197 145.983L215.333 146.487ZM222.093 216.491L239.092 244.991L239.951 244.479L222.952 215.979L222.093 216.491ZM239.915 187.616L256.838 215.494L257.692 214.976L240.77 187.097L239.915 187.616ZM302.991 290.936L276.232 292.7L276.298 293.697L303.057 291.934L302.991 290.936ZM289.837 270.493L302.596 291.693L303.452 291.177L290.693 269.977L289.837 270.493ZM200.335 96.5075L214.673 120.773L215.534 120.264L201.195 95.9988L200.335 96.5075ZM200.722 96.7513L228.222 99.118L228.308 98.1217L200.808 95.755L200.722 96.7513ZM222.835 134.491L238.773 161.267L239.632 160.755L223.695 133.979L222.835 134.491ZM240.836 104.992L256.411 130.992L257.269 130.478L241.694 104.478L240.836 104.992ZM247.546 176.489L263.834 204.083L264.696 203.575L248.407 175.981L247.546 176.489ZM265.097 145.492L281.836 173.492L282.694 172.978L265.956 144.978L265.097 145.492ZM336.722 108.456L346.222 109.273L346.308 108.277L336.808 107.459L336.722 108.456ZM252.722 101.226L274.222 103.077L274.308 102.08L252.808 100.23L252.722 101.226ZM290.222 104.454L291.222 104.54L291.308 103.544L290.308 103.457L290.222 104.454ZM306.722 105.874L322.481 107.23L322.567 106.234L306.808 104.877L306.722 105.874ZM383.472 112.479L396.722 113.619L396.808 112.623L383.558 111.483L383.472 112.479ZM412.722 114.996L421.222 115.728L421.308 114.731L412.808 114L412.722 114.996ZM350.727 287.026L330.727 288.549L330.803 289.546L350.803 288.023L350.727 287.026ZM432.905 116.733L450.222 118.223L450.308 117.227L432.991 115.737L432.905 116.733ZM449.837 117.984L457.686 130.993L458.543 130.477L450.693 117.467L449.837 117.984ZM367.227 285.77L363.727 286.036L363.803 287.033L367.303 286.767L367.227 285.77ZM398.727 283.371L382.977 284.57L383.053 285.567L398.803 284.368L398.727 283.371ZM502.337 122.502L508.085 132.012L508.941 131.495L503.193 121.985L502.337 122.502ZM419.755 281.769L412.727 282.304L412.803 283.301L419.831 282.766L419.755 281.769ZM447.727 279.639L433.741 280.704L433.817 281.701L447.803 280.636L447.727 279.639ZM515.509 144.295L533.458 173.994L534.314 173.476L516.364 143.778L515.509 144.295ZM473.227 277.697L459.727 278.725L459.803 279.722L473.303 278.694L473.227 277.697ZM540.929 186.353L544.64 192.494L545.496 191.976L541.784 185.836L540.929 186.353ZM264.474 119.868L274.694 102.836L273.836 102.321L263.616 119.353L264.474 119.868ZM252.336 100.985L263.616 119.867L264.474 119.354L253.194 100.472L252.336 100.985ZM289.838 103.696L271.909 133.229L272.764 133.748L290.692 104.215L289.838 103.696ZM271.907 133.745L288.976 162.318L289.834 161.805L272.765 133.233L271.907 133.745ZM271.281 216.698L289.585 247.707L290.446 247.199L272.142 216.19L271.281 216.698ZM266.196 288.988L283.755 259.098L282.892 258.591L265.334 288.482L266.196 288.988ZM264.491 228.493L282.895 259.102L283.752 258.587L265.348 227.977L264.491 228.493ZM296.238 258.978L314.834 290.483L315.696 289.974L297.099 258.469L296.238 258.978ZM315.471 119.488L322.953 106.989L322.095 106.475L314.613 118.974L315.471 119.488ZM306.336 105.632L314.613 119.487L315.472 118.974L307.194 105.119L306.336 105.632ZM289.834 162.318L308.118 131.773L307.26 131.259L288.976 161.804L289.834 162.318ZM290.836 104.298L307.26 131.772L308.118 131.259L291.694 103.785L290.836 104.298ZM296.428 174.766L314.575 205.169L315.434 204.657L297.286 174.253L296.428 174.766ZM297.099 258.978L315.409 228.04L314.548 227.531L296.238 258.469L297.099 258.978ZM289.575 186.352L307.779 216.74L308.637 216.226L290.432 185.838L289.575 186.352ZM290.446 247.706L308.639 216.736L307.777 216.23L289.584 247.199L290.446 247.706ZM322.095 131.963L339.972 161.887L340.831 161.374L322.953 131.45L322.095 131.963ZM322.222 216.528L340.413 185.791L339.552 185.282L321.361 216.019L322.222 216.528ZM315.428 205.179L334.222 175.332L333.376 174.799L314.581 204.646L315.428 205.179ZM321.362 216.53L340.364 248.339L341.223 247.826L322.221 216.017L321.362 216.53ZM347.498 260.28L363.336 286.791L364.194 286.278L348.356 259.767L347.498 260.28ZM331.195 289.302L341.584 271.734L340.723 271.225L330.335 288.793L331.195 289.302ZM340.724 271.736L350.336 287.782L351.194 287.268L341.582 271.223L340.724 271.736ZM314.549 228.043L333.499 259.675L334.357 259.161L315.407 227.529L314.549 228.043ZM333.5 259.159L314.837 289.969L315.693 290.487L334.355 259.677L333.5 259.159ZM365.062 120.686L370.696 111.094L369.834 110.587L364.199 120.179L365.062 120.686ZM357.836 110.065L364.202 120.689L365.059 120.175L358.694 109.551L357.836 110.065ZM372.045 132.344L383.945 112.235L383.085 111.726L371.184 131.835L372.045 132.344ZM347.715 173.453L366.277 142.089L365.416 141.58L346.854 172.944L347.715 173.453ZM345.835 109.03L358.494 130.402L359.354 129.892L346.695 108.52L345.835 109.03ZM340.833 161.884L359.355 130.4L358.493 129.893L339.971 161.377L340.833 161.884ZM346.855 173.455L366.155 205.76L367.014 205.247L347.714 172.942L346.855 173.455ZM348.358 260.278L366.549 229.512L365.688 229.003L347.497 259.769L348.358 260.278ZM339.553 185.793L358.774 217.946L359.632 217.433L340.412 185.28L339.553 185.793ZM358.776 217.43L340.366 247.823L341.221 248.341L359.631 217.949L358.776 217.43ZM390.724 271.393L398.336 284.126L399.194 283.613L391.583 270.88L390.724 271.393ZM383.447 285.321L391.585 271.389L390.722 270.884L382.583 284.816L383.447 285.321ZM397.963 259.002L412.336 283.059L413.194 282.546L398.822 258.489L397.963 259.002ZM372.98 217.184L390.353 246.263L391.211 245.751L373.839 216.671L372.98 217.184ZM383.11 258.151L366.833 286.016L367.697 286.52L383.973 258.655L383.11 258.151ZM365.689 229.514L383.112 258.66L383.971 258.146L366.548 229.001L365.689 229.514ZM371.185 132.346L390.797 165.08L391.654 164.566L372.043 131.832L371.185 132.346ZM373.84 217.182L392.282 185.993L391.421 185.484L372.979 216.673L373.84 217.182ZM365.416 142.089L384.848 174.896L385.709 174.386L366.277 141.58L365.416 142.089ZM384.851 174.382L366.157 205.245L367.012 205.763L385.706 174.9L384.851 174.382ZM420.837 114.971L416.737 121.74L417.592 122.258L421.693 115.489L420.837 114.971ZM412.334 114.751L416.733 122.252L417.596 121.746L413.196 114.245L412.334 114.751ZM423.758 132.76L433.379 116.489L432.518 115.981L422.897 132.251L423.758 132.76ZM398.195 175.992L416.11 145.695L415.249 145.186L397.334 175.483L398.195 175.992ZM396.334 113.374L409 135.018L409.864 134.513L397.197 112.869L396.334 113.374ZM409.004 134.506L390.798 164.564L391.653 165.082L409.86 135.024L409.004 134.506ZM397.336 175.994L414.583 204.783L415.441 204.269L398.194 175.48L397.336 175.994ZM398.824 258.997L417.048 227.801L416.185 227.297L397.961 258.493L398.824 258.997ZM391.421 185.993L408.607 215.009L409.468 214.499L392.282 185.483L391.421 185.993ZM408.606 214.502L390.35 245.755L391.214 246.259L409.469 215.006L408.606 214.502ZM440.698 269.187L447.335 280.392L448.195 279.883L441.558 268.678L440.698 269.187ZM434.208 281.459L441.557 269.189L440.699 268.675L433.35 280.946L434.208 281.459ZM446.934 258.78L459.336 279.48L460.194 278.966L447.792 258.266L446.934 258.78ZM422.205 217.504L440.092 247.359L440.95 246.846L423.063 216.99L422.205 217.504ZM433.944 257.276L419.362 282.014L420.224 282.522L434.805 257.784L433.944 257.276ZM416.186 227.804L433.944 257.785L434.805 257.275L417.047 227.294L416.186 227.804ZM423.066 217.5L440.585 187.51L439.721 187.006L422.202 216.995L423.066 217.5ZM448.214 174.45L466.197 143.667L465.333 143.163L447.351 173.945L448.214 174.45ZM422.896 132.758L439.808 161.59L440.671 161.084L423.759 132.252L422.896 132.758ZM457.683 130.483L439.808 161.085L440.671 161.589L458.546 130.987L457.683 130.483ZM432.187 174.132L414.58 204.273L415.444 204.778L433.05 174.636L432.187 174.132ZM415.248 145.693L432.187 174.636L433.05 174.131L416.111 145.187L415.248 145.693ZM508.082 131.5L490.371 161.547L491.232 162.055L508.944 132.008L508.082 131.5ZM472.837 132.993L490.373 162.06L491.23 161.543L473.693 132.477L472.837 132.993ZM498.504 174.114L516.365 144.293L515.508 143.779L497.646 173.6L498.504 174.114ZM465.337 143.673L483.483 173.749L484.34 173.232L466.193 143.156L465.337 143.673ZM483.481 173.236L465.164 204.311L466.026 204.818L484.342 173.744L483.481 173.236ZM447.351 174.451L465.164 204.818L466.026 204.312L448.214 173.945L447.351 174.451ZM472.994 216.704L491.558 185.71L490.7 185.196L472.136 216.19L472.994 216.704ZM447.792 258.78L465.24 229.649L464.382 229.135L446.934 258.266L447.792 258.78ZM439.721 187.511L457.479 217.853L458.342 217.348L440.585 187.006L439.721 187.511ZM457.48 217.347L440.09 246.849L440.952 247.356L458.341 217.855L457.48 217.347ZM497.645 174.112L515.335 203.99L516.195 203.48L498.505 173.602L497.645 174.112ZM523.196 216.462L534.376 234.993L535.232 234.477L524.052 215.946L523.196 216.462ZM540.926 185.841L523.193 215.95L524.055 216.458L541.787 186.348L540.926 185.841ZM516.31 228.155L530.391 251.493L531.248 250.977L517.166 227.638L516.31 228.155ZM490.701 185.711L509.029 216.088L509.886 215.572L491.557 185.195L490.701 185.711ZM509.025 215.579L490.497 247.505L491.362 248.007L509.89 216.081L509.025 215.579ZM472.134 216.7L490.498 248.009L491.361 247.503L472.996 216.194L472.134 216.7ZM497.54 260.014L506.834 275.859L507.696 275.353L498.402 259.508L497.54 260.014ZM516.307 227.643L497.54 259.508L498.402 260.015L517.169 228.15L516.307 227.643ZM489.823 272.612L487.334 276.837L488.196 277.345L490.685 273.119L489.823 272.612ZM489.822 273.118L492.084 276.982L492.947 276.477L490.685 272.613L489.822 273.118ZM464.38 229.645L482.845 261.196L483.708 260.691L465.243 229.139L464.38 229.645ZM482.844 260.693L472.833 277.944L473.697 278.446L483.709 261.195L482.844 260.693ZM561.265 130.735V127.235H560.265V130.735H561.265ZM176.667 185.041L161.331 148.541L160.409 148.929L175.745 185.429L176.667 185.041ZM163.337 144.623L181.337 174.493L182.193 173.977L164.193 144.107L163.337 144.623ZM161.287 149.011L164.182 144.641L163.348 144.089L160.453 148.459L161.287 149.011ZM487.803 277.59L492.553 277.228L492.477 276.231L487.727 276.592L487.803 277.59ZM336.336 107.7L322.095 131.449L322.953 131.963L337.194 108.215L336.336 107.7ZM315.836 145.992L333.37 175.322L334.228 174.809L316.694 145.478L315.836 145.992ZM316.694 145.478L315.618 143.682L314.76 144.196L315.836 145.992L316.694 145.478ZM276.695 293.453L290.497 270.133L289.636 269.624L275.835 292.944L276.695 293.453ZM290.702 269.992L290.503 269.635L289.63 270.122L289.828 270.478L290.702 269.992ZM533.454 173.484L515.71 204.059L516.575 204.561L534.319 173.986L533.454 173.484ZM515.347 204.01L515.725 204.585L516.561 204.035L516.183 203.46L515.347 204.01ZM314.76 143.682L296.451 174.215L297.308 174.73L315.618 144.196L314.76 143.682ZM297.286 174.767L297.308 174.73L296.451 174.215L296.428 174.253L297.286 174.767ZM289.511 185.788L271.283 216.187L272.14 216.701L290.369 186.302L289.511 185.788ZM290.313 185.702L290.25 185.652L289.631 186.437L289.694 186.487L290.313 185.702ZM265.32 227.936L265.166 227.729L264.364 228.327L264.519 228.534L265.32 227.936ZM264.336 227.771L246.685 257.207L247.542 257.721L265.194 228.285L264.336 227.771ZM246.684 257.72L265.336 288.991L266.194 288.479L247.543 257.208L246.684 257.72ZM239.414 269.332L222.836 296.978L223.694 297.492L240.271 269.847L239.414 269.332ZM264.697 204.313L282.697 173.487L281.833 172.983L263.833 203.809L264.697 204.313ZM263.765 203.829V204.061H264.765V203.829H263.765ZM256.801 215.421L256.926 215.733L257.854 215.36L257.729 215.049L256.801 215.421ZM240.048 245.492L257.819 215.803L256.961 215.29L239.19 244.978L240.048 245.492ZM239.031 244.831L239.129 245.331L240.11 245.139L240.012 244.639L239.031 244.831ZM217.602 282.992L232.694 257.778L231.836 257.264L216.744 282.478L217.602 282.992ZM231.765 257.235V257.521H232.765V257.235H231.765ZM214.224 228.25L202.249 247.976L203.104 248.494L215.079 228.769L214.224 228.25ZM215.519 228.976L215.079 228.25L214.224 228.768L214.664 229.494L215.519 228.976ZM222.882 215.888L222.625 215.621L221.905 216.316L222.163 216.582L222.882 215.888ZM239.521 186.579L221.838 215.709L222.692 216.228L240.376 187.098L239.521 186.579ZM240.74 187.054L240.347 186.536L239.551 187.141L239.944 187.659L240.74 187.054ZM248.365 175.92L247.455 174.798L246.679 175.428L247.589 176.55L248.365 175.92ZM264.899 144.776L246.64 174.854L247.494 175.373L265.754 145.295L264.899 144.776ZM265.88 144.881L265.68 144.682L264.973 145.389L265.173 145.589L265.88 144.881ZM256.467 131.067L256.783 131.423L257.53 130.758L257.214 130.403L256.467 131.067ZM239.631 161.268L257.585 131.347L256.728 130.833L238.774 160.754L239.631 161.268ZM230.836 172.991L231.285 173.745L232.144 173.233L231.695 172.479L230.836 172.991ZM214.754 202.727L232.143 173.747L231.286 173.232L213.896 202.212L214.754 202.727ZM213.753 202.508L213.906 202.742L214.744 202.197L214.591 201.962L213.753 202.508ZM196.593 232.992L207.29 215.165L206.433 214.65L195.735 232.478L196.593 232.992ZM205.891 214.567L206.488 215.239L207.236 214.576L206.639 213.903L205.891 214.567ZM182.301 199.002L189.882 187.002L189.037 186.468L181.456 198.468L182.301 199.002ZM190.214 187.136L189.909 186.515L189.011 186.955L189.316 187.577L190.214 187.136ZM198.152 174.419L197.744 173.919L196.97 174.551L197.378 175.051L198.152 174.419ZM197.78 174.502L215.785 146.002L214.94 145.468L196.934 173.968L197.78 174.502ZM216.154 145.921L215.752 145.421L214.973 146.049L215.376 146.549L216.154 145.921ZM223.366 134.002L241.688 105.002L240.842 104.468L222.521 133.468L223.366 134.002ZM223.686 133.965L223.364 133.465L222.523 134.005L222.844 134.505L223.686 133.965ZM176.635 185.493L182.785 175.26L181.928 174.745L175.778 184.977L176.635 185.493ZM181.369 174.54L181.96 175.308L182.752 174.697L182.161 173.93L181.369 174.54ZM189.605 162.019L189.772 162.262L190.596 161.695L190.428 161.451L189.605 162.019ZM190.613 162.236L208.189 132.993L207.332 132.477L189.756 161.721L190.613 162.236ZM206.91 132.587L207.405 133.087L208.116 132.383L207.62 131.883L206.91 132.587ZM215.702 120.493L228.694 98.8774L227.836 98.3623L214.845 119.977L215.702 120.493ZM215.532 120.776L215.702 120.493L214.845 119.977L214.675 120.261L215.532 120.776Z" fill="black"/>
<path d="M538.265 418.235C538.265 434.804 524.609 448.235 507.765 448.235C490.92 448.235 477.265 434.804 477.265 418.235C477.265 401.666 490.92 388.235 507.765 388.235C524.609 388.235 538.265 401.666 538.265 418.235Z" fill="#222222"/>
<path d="M538.265 418.235C538.265 434.804 524.609 448.235 507.765 448.235C490.92 448.235 477.265 434.804 477.265 418.235C477.265 401.666 490.92 388.235 507.765 388.235C524.609 388.235 538.265 401.666 538.265 418.235Z" stroke="black"/>
<path d="M524.265 418.735C524.265 427.848 517.101 435.235 508.265 435.235C499.428 435.235 492.265 427.848 492.265 418.735C492.265 409.622 499.428 402.235 508.265 402.235C517.101 402.235 524.265 409.622 524.265 418.735Z" fill="#535252"/>
<path d="M524.265 418.735C524.265 427.848 517.101 435.235 508.265 435.235C499.428 435.235 492.265 427.848 492.265 418.735C492.265 409.622 499.428 402.235 508.265 402.235C517.101 402.235 524.265 409.622 524.265 418.735Z" stroke="black"/>
</svg>
