<svg width="1053" height="797" viewBox="0 0 1053 797" fill="none" xmlns="http://www.w3.org/2000/svg">
<path d="M667.5 242.51C667.919 240.205 671 248.51 667.5 236.51C664.472 226.129 652.436 223.593 641.5 217.283C641.5 217.283 648.334 222.948 641.5 224.51L624 228.51C617.166 230.072 616.677 232.761 612 235.51C606.716 238.615 603.547 240.034 598.5 243.51C593.578 246.9 591.084 249.175 586.5 253.01C583.527 255.497 580.093 255.791 579 259.51C578.282 261.952 578.512 263.663 579.5 266.01C580.897 269.328 583.101 270.823 586.5 272.01C590.985 273.576 594.012 271.569 598.5 270.01C603.625 268.229 605.943 265.954 610.5 263.01C615.552 259.746 617.826 257.078 623 254.01C625.104 252.762 626.216 251.887 628.5 251.01C634.697 248.629 639.825 247.564 645.5 251.01C648.096 252.586 648.612 254.632 651 256.51C653.001 258.084 654.261 258.797 656.5 260.01C660.198 262.014 662.313 263.61 666.5 264.01C667.912 264.144 670.132 264.01 670.132 264.01C669.462 262.965 668.671 261.938 667.5 261.01C663.599 257.917 657.941 260.094 656 255.51C653.358 249.268 666.287 249.179 667.5 242.51Z" fill="white"/>
<path d="M712.333 239.51C712.059 244.746 710.385 250.03 707.5 255.51C706.377 257.643 705.385 259.424 704.266 261.01L720.5 270.01C725.772 271.377 728.67 272.387 734 273.51C737.212 274.186 739.917 274.696 742.5 275.098C745.157 275.511 747.684 275.811 750.5 276.062C752.338 276.226 754.299 276.369 756.5 276.51C764.684 277.032 769.324 277.155 777.5 276.51C785.181 275.904 789.407 274.815 797 273.51C804.247 272.264 808.331 271.646 815.5 270.01C819.227 269.159 825 267.647 825 267.647C815.581 263.524 804.938 260.156 804.5 255.51C804.458 255.06 804.536 254.556 804.716 254.01C804.716 254.01 776.057 256.61 758 254.01C751.897 253.131 748.466 252.566 742.5 251.01C735.725 249.242 731.958 247.756 725.615 245.253L725 245.01C719.983 243.031 712.333 239.51 712.333 239.51Z" fill="white"/>
<path d="M564 653.51C559.5 649.51 548 653.51 538 653.51L537.5 662.01L538.474 671.01C539.196 673.556 537.978 680.373 540 684.51C541.355 687.284 541 689.51 544.5 691.01C548 692.51 604.001 691.01 604.001 691.01C584.581 675.984 567.907 656.983 564 653.51Z" fill="white"/>
<path fill-rule="evenodd" clip-rule="evenodd" d="M742.5 275.098C739.917 274.696 737.212 274.186 734 273.51C731.513 288.782 730.454 297.564 729 313.51L562.587 305.01C564.682 308.019 566 310.01 566 310.01L575.228 321.51L709 329.01L594.5 468.01C590.255 482.277 586.794 493.674 584.011 505.01L727.5 334.01V357.51C727.5 357.51 717.514 365.157 711.5 370.51C706.445 375.008 703.667 377.609 699 382.51C693.844 387.924 691.324 391.298 686.5 397.01C681.757 402.625 678.778 405.533 674.5 411.51C670.873 416.576 669.167 419.645 666 425.01C662.49 430.955 660.799 434.445 657.5 440.51C653.367 448.107 650.656 452.172 647 460.01C643.328 467.88 641.646 472.629 638.839 480.553L638.5 481.51C636.169 488.087 634.72 491.747 633 498.51C631.82 503.149 631 506.51 630 509.51C629.135 512.103 629.122 515.148 630.5 517.51C631.196 518.702 633 520.01 633 520.01C635.845 520.259 637.299 519.83 639.5 517.51L643.5 504.51L647 494.51L651.5 495.01C651.5 495.01 648.57 505.324 647 512.01C645.45 518.608 644.587 522.319 643.5 529.01C641.957 538.503 641.537 543.907 641 553.51C640.346 565.207 640.505 571.804 641 583.51C641.422 593.49 641.382 599.153 643 609.01C644.665 619.151 646.588 624.654 649.5 634.51L649.513 634.555C651.482 641.219 652.593 644.977 655 651.51C657.934 659.473 659.752 663.895 663.5 671.51C667.671 679.984 670.394 684.563 675.5 692.51C680.567 700.397 683.501 704.806 689.5 712.01C697.099 721.134 702.266 725.465 711 733.51C716.904 738.948 720.151 742.097 726.5 747.01C736.911 755.066 743.244 759.085 755 765.01C765.88 770.493 772.337 772.987 784 776.51C794.34 779.633 800.327 780.849 811 782.51C821.847 784.198 828.023 784.85 839 785.01C852.117 785.201 859.557 784.655 872.5 782.51C887.689 779.993 896.158 777.608 910.5 772.01C926.774 765.657 935.62 760.931 950 751.01C961.977 742.747 968.113 737.199 978.5 727.01C989.567 716.153 995.385 709.55 1004.5 697.01C1012.59 685.876 1016.78 679.289 1023 667.01C1029.37 654.427 1032.31 646.977 1036.5 633.51C1039.67 623.336 1040.99 617.475 1043 607.01C1045.22 595.402 1046.18 588.801 1047 577.01L1047.04 576.456C1047.91 563.94 1048.41 556.632 1047 544.01C1045.89 534.115 1044.09 528.744 1042 519.01C1039.81 508.822 1039.04 502.976 1036 493.01C1032.44 481.357 1029.77 474.995 1024.5 464.01C1019.05 452.654 1015.44 446.519 1008.5 436.01C1002.88 427.504 999.626 422.755 993 415.01C984.831 405.462 979.63 400.581 970 392.51C960.78 384.782 955.247 380.812 945 374.51C931.834 366.413 924.013 362.327 909.5 357.01C900.333 353.651 895.024 352.156 885.5 350.01C875.854 347.836 870.356 346.796 860.5 346.01C850.573 345.218 844.936 345.34 835 346.01C823.979 346.752 817.764 347.53 807 350.01C798.452 351.979 793.778 353.608 785.5 356.51C779.374 358.657 775.903 359.81 770 362.51C763.962 365.271 761.031 367.735 755 370.51C752.298 371.753 748 373.51 748 373.51V360.01C748 360.01 760.294 351.673 769 348.01C777.43 344.463 787.122 342.207 796 340.01C805.479 337.664 807.878 337.176 817.5 335.51C827.023 333.861 830.872 333.852 840.5 333.01C853.145 331.904 860.388 331.072 873 332.51C879.507 333.251 890.536 334.454 897 335.51C907.111 337.161 905.405 337.26 915.5 339.01C922.367 340.2 926.291 340.623 933 342.51C937.161 343.68 940.738 345.73 945 345.01C947.326 344.617 947.275 345.12 949 343.51C951.043 341.602 951.123 340.235 950.5 337.51C949.812 334.5 948.2 334.007 945.5 332.51C938.294 328.513 933.024 329.384 925 327.51C918.957 326.098 916.529 325.767 909.5 324.01C902.47 322.252 901.529 322.767 894.5 321.01C887.47 319.252 881.746 318.941 875.5 318.51C867.88 317.984 863.637 317.619 856 317.51C846.61 317.375 841.339 317.522 832 318.51C822.773 319.486 817.571 320.061 808.5 322.01C801.921 323.423 798.235 324.515 791.895 326.393L791.5 326.51C786.585 327.965 783.795 328.701 779 330.51C773.602 332.546 770.817 334.271 765.5 336.51C760.654 338.55 757.975 339.75 753.5 342.51C750.541 344.334 746 347.01 746 347.01C746 347.01 743.634 322.576 745 307.01C746.073 294.782 750.5 276.062 750.5 276.062C747.684 275.811 745.157 275.511 742.5 275.098ZM732.5 384.01L731.5 371.51C731.5 371.51 726.463 373.993 723.5 376.01C717.678 379.973 715.462 383.511 710.5 388.51L710.42 388.591C706.286 392.755 703.94 395.118 700 399.51C696.577 403.325 694.707 405.512 691.5 409.51C687.835 414.079 685.837 416.696 682.5 421.51C679.198 426.273 677.444 429.018 674.5 434.01C670.906 440.104 669.149 443.174 666 449.51C663.122 455.298 661.268 458.168 658.5 464.01C656.181 468.903 654.9 472.439 653 477.51C651.569 481.328 650 487.51 650 487.51H655.5L656.5 484.51C656.5 484.51 658.775 477.743 660.5 473.51C662.445 468.736 663.679 466.113 666 461.51C669.031 455.498 670.825 452.151 674.5 446.51C678.081 441.012 680.579 438.27 684.5 433.01C688.584 427.53 690.631 424.265 695 419.01C698.182 415.181 700.077 413.124 703.5 409.51C708.912 403.795 712.067 400.683 718 395.51C723.447 390.76 732.5 384.01 732.5 384.01ZM684.5 498.51C733.418 516.24 759.767 527.98 804 553.51L805.5 549.01C776.406 502.052 762.325 473.201 741.5 417.01C741.5 417.01 732.128 423.701 726.5 429.01C722.381 432.895 720.233 434.752 716.5 439.01C712.535 443.533 709.63 446.713 706 451.51C701.307 457.71 698.967 461.821 695 468.51C692.148 473.319 690.941 476.266 689 481.51C686.616 487.95 684.5 498.51 684.5 498.51ZM836.5 547.01C832.557 546.451 826.5 549.01 826.5 549.01C827.036 549.134 836.761 563.51 836.5 566.51C836.239 569.51 836.527 571.516 834.5 573.51C832.606 575.372 828 575.51 828 575.51L810 564.01C810 564.01 807.528 569.655 807 573.51C806.576 576.605 806.367 578.45 807 581.51C808.011 586.396 809.993 588.96 813.5 592.51C816.889 595.941 819.495 597.288 824 599.01C829.52 601.12 833.166 601.951 839 601.01C843.582 600.271 846.089 599.01 850 596.51L850.001 596.509C854.074 593.906 856.671 592.245 859 588.01C860.94 584.482 861.384 582.034 861.5 578.01C861.69 571.405 859.789 567.423 856 562.01C853.228 558.049 850.833 556.456 847 553.51C843.177 550.57 841.275 547.687 836.5 547.01ZM799.5 559.01C754.243 535.294 727.987 524.326 680.5 506.51C680.5 506.51 676.48 520.086 675 529.01C673.078 540.593 673.373 547.274 673 559.01C672.658 569.744 672.254 575.796 673 586.51C673.892 599.32 674.824 606.567 678 619.01C681.883 634.223 685.379 642.516 692.5 656.51C697.785 666.896 701.089 672.626 708 682.01C716.849 694.025 722.878 700.062 734 710.01C745.556 720.346 752.309 726.234 766 733.51C776.214 738.938 782.435 741.14 793.5 744.51C805.516 748.17 812.512 749.662 825 751.01C838.978 752.518 847.052 752.774 861 751.01C870.308 749.832 875.48 748.594 884.5 746.01C895.133 742.963 901.076 740.896 911 736.01C921.547 730.816 927.01 726.949 936.5 720.01C945.561 713.384 950.521 709.406 958.5 701.51C967.563 692.541 972.394 687.097 979.5 676.51C985.927 666.935 988.39 660.848 993.5 650.51C998.999 639.383 1002.7 633.325 1006.5 621.51C1010.52 609.006 1011.33 601.539 1013 588.51L1013.17 587.153C1014.49 576.912 1015.28 570.699 1015 560.01C1014.68 548.001 1013.14 541.33 1011 529.51C1008.13 513.666 1007.08 504.418 1001 489.51C996.743 479.077 993.519 473.535 987.5 464.01C979.404 451.197 973.943 444.494 963.5 433.51C951.183 420.555 943.628 413.532 928.5 404.01C914.823 395.401 906.428 391.32 891 386.51C881.638 383.591 876.212 382.364 866.5 381.01C853.73 379.229 846.376 379.35 833.5 380.01C824.477 380.472 819.335 380.62 810.5 382.51C796.777 385.445 789.709 389.56 777 395.51C768.615 399.435 756 406.51 756 406.51C775.516 460.671 788.378 490.303 819.5 540.01C819.5 540.01 824.491 537.269 828 536.51C832.199 535.602 834.75 535.886 839 536.51C844.744 537.352 847.923 538.694 853 541.51C857.269 543.877 859.735 545.381 863 549.01C866.337 552.719 867.638 555.381 869.5 560.01C871.515 565.02 872.068 568.126 872.5 573.51C872.75 576.624 872.892 578.41 872.5 581.51C871.934 585.982 871.095 588.518 869 592.51C866.234 597.779 863.421 600.025 859 604.01C854.734 607.855 852.366 610.465 847 612.51C841.4 614.643 837.679 614.405 831.764 614.027L831.5 614.01C825.92 613.653 822.554 613.402 817.5 611.01C811.986 608.399 809.676 605.456 805.5 601.01C801.971 597.252 799.698 595.173 797.5 590.51C795.359 585.969 795.004 584.03 795 579.01C794.997 575.447 795.137 572.467 796 569.01C797.001 564.995 799.5 559.01 799.5 559.01Z" fill="white"/>
<path fill-rule="evenodd" clip-rule="evenodd" d="M233 298.51C230 298.51 191.971 302.463 172 294.51C170.938 294.087 169.941 293.639 169 293.166C169 293.166 164.283 297.813 161.5 301.01C159.678 303.103 157.958 303.905 157 306.51C155.989 309.259 155.83 311.325 157 314.01C158.17 316.695 163.5 318.545 166.5 319.51C170.332 320.742 180 320.01 179 321.51C178 323.01 166.415 325.524 158.5 328.51C152.189 330.89 148.653 332.249 142.5 335.01L141.886 335.285C135.093 338.333 131.075 340.135 124.5 344.01C119.041 347.227 116.214 349.41 111 353.01C107.656 355.318 105.758 356.582 102.5 359.01C97.0471 363.074 93.988 365.387 88.9999 370.01C82.4102 376.116 79.5259 380.346 73.4999 387.01C69.9759 390.907 67.7509 392.882 64.4999 397.01C60.5792 401.987 58.895 405.16 55.4999 410.51C52.6828 414.949 51.075 417.426 48.4999 422.01C46.6602 425.284 46.2274 427.486 43.9999 430.51C43.0954 431.738 42.9999 432.51 41.4999 433.51C39.9999 434.51 16.9999 429.51 14.9999 430.51C12.9999 431.51 12.4999 433.51 12.4999 433.51C12.4999 433.51 9.49988 473.51 12.4999 475.51C15.4999 477.51 17.9999 477.51 17.9999 477.51C17.9999 477.51 21.9912 476.932 23.4999 478.51C24.876 479.949 23.9704 481.59 24.4999 483.51C25.223 486.132 24.7607 488.466 26.9999 490.01C29.2505 491.561 31.5154 491.15 33.9999 490.01C35.636 489.259 36.3834 488.422 37.4999 487.01C39.0741 485.018 39.1686 483.408 39.9999 481.01C40.9926 478.146 41.0962 476.403 41.9999 473.51C42.8652 470.739 43.4357 469.21 44.4999 466.51C45.91 462.931 46.4999 457.51 48.4999 457.51C50.4999 457.51 52.9266 459.603 55.4999 461.51C58.7647 463.928 63.4999 466.51 63.4999 468.51C63.4999 470.51 62.6431 471.575 61.9999 473.51C60.5354 477.914 59.1078 480.156 57.4999 484.51C55.5104 489.897 54.6228 493.001 52.9999 498.51C51.969 502.009 51.4477 503.987 50.4999 507.51C48.408 515.284 46.8923 519.58 45.4999 527.51C44.7501 531.78 44.5133 534.205 43.9999 538.51C42.863 548.042 42.4829 553.422 41.9999 563.01C41.5969 571.008 41.5946 575.512 41.9999 583.51C42.3982 591.371 42.9178 595.713 43.9999 603.51C44.7325 608.789 45.1872 611.742 45.9999 617.01C46.7537 621.896 47.6248 624.644 48.4999 629.51C49.3811 634.409 50.0467 637.248 51.4999 642.01C52.8547 646.449 53.3734 648.663 54.9999 653.01C56.9473 658.215 57.3038 661.405 59.4999 666.51C61.7784 671.806 63.7246 674.456 66.4999 679.51L66.91 680.257C70.1087 686.083 72.0246 689.572 75.4999 695.51C77.8004 699.44 79.0383 701.678 81.4999 705.51C84.4569 710.113 86.2307 712.623 89.4999 717.01C93.3995 722.242 95.7383 725.067 99.9999 730.01C105.052 735.869 107.764 739.318 113.5 744.51C118.972 749.463 122.597 751.578 128.5 756.01C132.966 759.363 135.324 761.457 140 764.51C146.511 768.761 150.46 770.708 157.5 774.01C161.539 775.904 163.88 776.798 168 778.51C172.855 780.527 175.493 781.906 180.5 783.51C186.228 785.345 190.129 786.698 196 788.01C201.457 789.229 203.975 789.15 209.5 790.01C217.239 791.214 221.673 791.225 229.5 791.51C236.915 791.78 241.102 792.078 248.5 791.51C255.19 790.996 258.877 791.089 265.5 790.01C269.999 789.276 272.554 788.018 277 787.01C282.964 785.657 286.208 784.474 292 782.51C299.142 780.087 302.992 778.299 310 775.51C316.266 773.016 320.049 772.184 326 769.01C331.59 766.027 334.32 763.659 339.5 760.01C344.065 756.793 346.609 754.961 351 751.51C354.381 748.852 356.266 747.344 359.5 744.51C363.966 740.595 366.334 738.242 370.5 734.01C376.222 728.196 379.289 724.785 384.5 718.51L384.944 717.976C388.316 713.916 390.344 711.475 393.5 707.01C397.096 701.922 398.763 698.833 402 693.51C404.592 689.246 406.042 686.852 408.5 682.51C411.555 677.112 413.568 674.216 416 668.51C417.864 664.136 418.263 661.436 420 657.01C420.927 654.647 420.5 652.51 422.5 651.01C424.5 649.51 528.5 674.01 530.5 674.01C532.5 674.01 531.708 670.785 533.5 670.01C534.934 669.39 535 670.01 537.5 670.01C537.997 670.01 538.295 670.378 538.474 671.01L537.5 662.01C532.295 662.851 529.204 662.851 524 662.01C520.399 661.428 518.021 661.462 514.5 660.51C510.019 659.299 507.755 658.363 503.5 656.51C499.723 654.865 497.687 653.619 494.5 651.01C491.4 648.472 489.84 647.336 487 644.51C484.355 641.879 483.011 639.768 480.5 637.01C477.397 633.602 475.658 631.582 473.5 627.51C471.274 623.308 470.579 620.641 469.5 616.01C468.414 611.347 468.267 608.568 468.02 603.892L468 603.51C467.794 599.61 467.711 597.404 468 593.51C468.292 589.572 468.306 587.274 469.5 583.51C470.477 580.429 471.599 578.923 473 576.01C474.892 572.075 475.679 569.708 478 566.01C480.221 562.47 481.558 560.477 484.5 557.51C487.141 554.846 488.993 553.752 492 551.51C495.603 548.822 497.575 547.201 501.5 545.01C505.776 542.623 508.351 541.548 513 540.01L513.072 539.986C516.849 538.736 519.032 538.014 523 537.51C527.261 536.968 534 537.51 534 537.51C533.798 535.389 533.797 534.401 533.5 532.51C533.5 532.51 522.847 531.389 518.5 532.01C512.998 532.795 508.5 534.51 508.5 534.51L400.75 294.51C399.007 292.936 398 292.01 398 292.01L359.5 252.604C359.5 252.604 346.796 263.163 338 269.01L337.589 269.283C332.877 272.415 328.897 275.061 325 277.413C325 277.413 326.498 279.926 327.5 281.51C329.005 283.89 329.649 285.388 331.5 287.51C333.227 289.489 334.591 290.205 336.5 292.01C338.707 294.096 339.463 295.839 342 297.51C344.787 299.345 346.764 299.698 350 300.51C354.75 301.702 357.606 301.336 362.5 301.51C366.403 301.648 368.623 301.04 372.5 301.51C376.496 301.994 378.988 302.042 382.5 304.01C384.681 305.232 386.369 305.78 387.5 308.01C388.737 310.448 388.431 312.44 387.5 315.01C382.323 329.296 362.642 348.568 362.5 349.51C362.357 350.452 358.517 347.106 356 345.51C351.839 342.87 349.727 341.044 345.5 338.51C338.759 334.468 334.756 332.528 327.5 329.51C320.829 326.735 316.933 325.542 310 323.51C302.865 321.418 290.5 321.01 291.5 319.01C292.5 317.01 294.257 316.588 296 315.01C298.97 312.321 300.869 311.032 303.5 308.01C306.452 304.619 308.078 302.573 310 298.51C312.571 293.073 313.5 283.514 313.5 283.514C310.496 284.878 307.235 286.189 303.5 287.51C291.08 291.904 283.505 292.404 270.5 294.51C255.962 296.864 236 298.51 233 298.51ZM21.4999 442.01H37.4999C35.6388 453.09 33.5683 458.796 28.4999 469.51H21.4999V442.01ZM52.4999 442.51C52.9999 445.51 68.4999 457.01 71.4999 456.51C74.4999 456.01 76.5582 447.901 79.9999 442.51C83.0305 437.762 84.7693 435.123 87.9999 430.51C91.7632 425.135 93.7937 422.045 97.9999 417.01C103.149 410.846 106.483 407.696 112.249 402.247L112.5 402.01C118.134 396.686 121.435 393.837 127.5 389.01C134.284 383.61 138.245 380.759 145.5 376.01L145.695 375.882C152.971 371.119 157.142 368.388 165 364.51C172.381 360.867 176.698 359.134 184.5 356.51C193.477 353.49 198.67 352.142 208 350.51C214.394 349.391 218.023 348.932 224.5 348.51C232.099 348.014 236.385 348.51 244 348.51C251.225 348.51 255.299 347.929 262.5 348.51C268.005 348.954 271.062 349.543 276.5 350.51C281.213 351.348 283.863 351.821 288.5 353.01C293.047 354.175 295.569 354.959 300 356.51C305.373 358.391 308.341 359.602 313.5 362.01C318.09 364.152 320.566 365.56 325 368.01C328.752 370.083 330.881 371.211 334.5 373.51C337.7 375.543 340.5 378.51 342.5 379.01C344.5 379.51 356.5 362.01 356.5 360.51C356.5 359.01 352.728 357.536 351 356.51C347.135 354.215 346.356 353.82 342.5 351.51C337.631 348.593 334.695 347.297 329.5 345.01C323.957 342.569 320.693 341.576 315 339.51C307.628 336.834 303.536 335.18 296 333.01L295.285 332.804C290.306 331.369 287.291 330.5 282 329.51C274.857 328.173 270.744 328.084 263.5 327.51C252.203 326.615 245.829 326.271 234.5 326.51C227.461 326.658 223.519 326.962 216.5 327.51C208.868 328.105 204.517 328.063 197 329.51C187.357 331.365 182.288 333.822 173 337.01C165.521 339.577 161.136 340.602 154 344.01C148.318 346.723 145.457 348.868 140 352.01C133.934 355.502 130.316 357.115 124.5 361.01C119.632 364.269 117.186 366.495 112.5 370.01C107.814 373.524 104.974 375.229 100.5 379.01C95.7529 383.021 93.2675 385.492 88.9999 390.01C83.7637 395.553 81.2211 399.022 76.4999 405.01C73.9125 408.291 72.503 410.164 69.9999 413.51C66.8181 417.763 64.8728 420.042 61.9999 424.51C57.7009 431.195 51.9999 439.51 52.4999 442.51ZM201 546.01C199 546.01 97.9999 474.01 97.9999 474.01C97.9999 474.01 100.676 468.793 102.5 465.51C104.923 461.148 106.239 458.666 109 454.51C111.411 450.881 112.984 448.868 115.545 445.591L116 445.01C120.264 439.552 122.901 436.688 127.5 431.51C132.454 425.931 134.854 422.387 140.5 417.51C145.052 413.577 147.892 411.686 153 408.51C157.526 405.695 165 400.51 165 400.51C165 400.51 174.557 394.934 181 392.01C186.349 389.582 189.499 388.571 195 386.51C200.436 384.472 203.375 382.948 209 381.51C216.438 379.608 220.853 379.695 228.5 379.01C235.9 378.346 240.07 377.906 247.5 378.01C253.37 378.092 256.668 378.333 262.5 379.01C268.399 379.695 271.777 379.922 277.5 381.51C282.741 382.964 285.415 384.579 290.5 386.51C295.179 388.286 297.922 388.986 302.5 391.01C307.532 393.235 310.174 394.868 315 397.51C319.143 399.777 324.5 401.01 325.5 403.51C326.5 406.01 237 535.51 235 537.01C233 538.51 223.5 535.51 223.5 535.51C219.79 535.51 218.086 536.06 214.5 537.01C211.291 537.859 209.746 539.145 207 541.01C204.477 542.724 203 546.01 201 546.01ZM250 542.51L339 414.51C339 414.51 345.551 420.139 349.5 424.01C353.149 427.587 355.23 429.582 358.5 433.51C362.624 438.464 364.311 441.723 368 447.01C371.534 452.073 373.673 454.808 377 460.01C380.537 465.539 382.609 468.617 385.5 474.51C388.822 481.281 389.781 485.474 392.5 492.51C394.46 497.584 395.867 500.321 397.5 505.51C399.605 512.197 400.202 516.12 401.5 523.01C402.706 529.414 404 539.51 404 539.51L250 542.51ZM405.5 549.51L252 554.01C252 554.01 253.647 559.427 254 563.01C254.287 565.925 254.264 567.593 254 570.51C253.658 574.286 253.431 576.499 252 580.01C250.508 583.671 249.112 585.541 246.5 588.51C243.659 591.738 238 595.51 238 595.51L396 632.51L399.5 623.01L403 603.51L405.5 583.51V562.51V549.51ZM227.5 546.01L218 557.51L209.5 550.01C215.781 543.802 219.861 543.782 227.5 546.01ZM223.5 573.01C223.5 573.01 205 561.51 203 563.01C201 564.51 200.803 572.003 203 577.01C204.831 581.184 207.299 582.849 211 585.51C215.769 588.939 219.128 591.162 225 591.01C230.511 590.867 233.813 589.096 238 585.51C241.743 582.304 243.305 579.637 245 575.01C246.624 570.575 247.68 567.583 246.5 563.01C245.444 558.92 243 554.01 240.5 554.01C238 554.01 223.5 573.01 223.5 573.01ZM194.5 557.51L91.9999 487.01C91.9999 487.01 87.4322 496.329 84.9999 502.51C81.6981 510.899 80.1086 515.744 77.9999 524.51C75.6422 534.31 74.8421 539.965 73.9999 550.01C73.021 561.685 73.5689 568.302 73.9999 580.01C74.4681 592.731 74.1642 599.996 76.4999 612.51C77.9424 620.238 79.1573 624.505 81.4999 632.01C84.5577 641.806 86.8145 647.14 90.9999 656.51C96.3077 668.392 99.202 675.235 106.5 686.01C110.946 692.575 113.836 695.993 119 702.01C126.105 710.287 130.245 714.879 138.5 722.01C147.398 729.696 152.9 733.49 163 739.51C172.001 744.874 177.156 747.917 187 751.51C197.545 755.358 203.881 756.463 215 758.01C224.687 759.357 230.221 759.691 240 759.51C250.995 759.306 257.31 759.091 268 756.51C274.183 755.017 277.475 753.549 283.5 751.51C291.164 748.916 295.691 747.98 303 744.51C310.2 741.091 313.872 738.435 320.5 734.01C326.541 729.976 329.988 727.742 335.5 723.01C342.101 717.343 345.181 713.477 351 707.01C357.772 699.483 361.406 695.096 367.5 687.01C373.074 679.613 376.359 675.525 381 667.51C386.385 658.21 392.5 642.51 392.5 642.51L227.5 603.51L212 597.51L201 590.01L194.5 580.01L193.5 569.01L194.5 557.51ZM395 333.01C395 333.01 375.928 355.51 377 358.01C378.071 360.51 383.296 364.216 387.5 368.01C391.509 371.628 394.066 373.31 398 377.01C404.544 383.165 407.791 387.072 413.5 394.01L413.662 394.207C417.011 398.277 418.945 400.626 422 405.01C425.16 409.544 426.813 412.181 429.5 417.01C431.835 421.207 432.827 423.727 435 428.01C437.884 433.695 439.834 436.719 442.5 442.51C444.623 447.121 445.525 449.833 447.5 454.51C449.813 459.99 451.286 462.989 453.5 468.51C455.133 472.583 456.696 474.696 457.5 479.01C458.322 483.425 460.889 487.563 457.5 490.51C454.553 493.072 449.5 492.51 447.5 490.51C445.5 488.51 444.964 483.534 443.5 479.01C441.806 473.778 441.397 470.671 439.5 465.51C437.66 460.504 436.198 457.869 434 453.01C431.155 446.723 429.745 443.1 426.5 437.01C423.287 430.981 421.306 427.683 417.5 422.01C412.843 415.07 409.624 411.612 404.5 405.01C400.237 399.517 398.203 396.131 393.5 391.01C389.483 386.636 386.835 384.568 382.5 380.51C377.859 376.165 370.5 369.51 370.5 369.51L356.5 387.51C356.5 387.51 360.306 389.745 362.5 391.51C366.923 395.067 368.222 398.273 372 402.51C377.149 408.285 380.351 411.235 385.5 417.01C389.277 421.246 391.584 423.477 395 428.01C399.173 433.547 401.018 437.013 404.5 443.01C407.395 447.996 408.902 450.862 411.5 456.01C415.082 463.108 417.14 467.091 420 474.51C423.088 482.52 424.041 487.285 426.5 495.51C428.712 502.911 430.376 506.958 432 514.51C433.904 523.366 435 537.51 435 537.51L490 536.01L395 333.01ZM436 548.51L484 547.51C484 547.51 478.446 552.677 475.5 556.51C472.826 559.989 471.733 562.233 469.5 566.01C467.453 569.471 466.259 571.394 464.5 575.01C462.739 578.629 462.373 579.58 461.5 583.51C460.441 588.275 460.5 592.128 460.5 597.01C460.5 601.696 459.961 604.355 460.5 609.01C461.006 613.386 461.583 615.839 463 620.01C464.237 623.652 465.181 625.621 467 629.01L467.254 629.484C469.465 633.607 471.261 636.955 474.407 640.51L480 646.51C480 646.51 490 651.01 485.5 653.51C481 656.01 424.5 639.51 424.5 639.51C424.5 639.51 426.393 633.128 427.5 629.01C428.754 624.345 429.416 621.717 430.5 617.01C431.798 611.375 432.618 608.225 433.5 602.51C434.368 596.884 434.538 593.684 435 588.01C435.602 580.604 435.797 576.437 436 569.01C436.218 561.007 436 548.51 436 548.51Z" fill="white"/>
<path d="M588 559.01C583.948 554.297 577 547.51 577 547.51C576.717 550.554 576.343 554.009 575.938 557.51C575.938 557.51 584.268 563.678 588 569.01C591.558 574.094 592.729 577.562 594.5 583.51C596.305 589.571 596.971 593.186 597 599.51C597.03 606.027 598.154 610.613 594.5 616.01C592.563 618.87 588 622.01 588 622.01C589.432 623.754 592.026 626.343 595.222 629.484C595.222 629.484 600.235 620.367 602 614.01C604.151 606.259 604.519 601.537 604.001 593.51C603.525 586.133 603.029 581.752 600 575.01C596.799 567.885 593.092 564.932 588 559.01Z" fill="white"/>
<path d="M534.316 541.51C534.316 541.51 530.958 543.199 529.5 545.01C527.794 547.128 527.224 548.799 527 551.51C526.804 553.877 526.895 555.407 528 557.51C529.516 560.394 534.68 562.51 534.68 562.51C534.792 555.854 534.753 548.284 534.316 541.51Z" fill="white"/>
<path d="M573.943 573.51C573.391 577.7 573 580.51 573 580.51C573 580.51 573.71 585.669 574.411 590.51C574.411 590.51 579.058 592.697 582 592.01C583.958 591.553 585.214 591.055 586.5 589.51C588.045 587.653 587.722 585.909 588 583.51C588.247 581.376 588.685 580.046 588 578.01C587.29 575.899 586.408 574.656 584.5 573.51C582.629 572.385 581.183 572.476 579 572.51C576.987 572.541 573.943 573.51 573.943 573.51Z" fill="white"/>
<path d="M506 547.51C507.915 547.685 508.964 548.353 510.5 549.51C512.278 550.849 513.174 551.942 514 554.01C514.872 556.193 514.819 557.68 514.5 560.01C514.25 561.836 514.06 562.953 513.072 564.51C511.948 566.28 510.976 567.307 509 568.01C507.16 568.664 505.909 568.418 504 568.01C502.119 567.608 500.967 567.253 499.5 566.01C498.218 564.924 497.789 563.993 497 562.51C496.216 561.037 495.71 560.165 495.5 558.51C495.225 556.344 495.405 554.898 496.5 553.01C497.331 551.576 498.21 551.05 499.5 550.01C500.596 549.126 501.183 548.509 502.5 548.01C503.791 547.52 504.625 547.384 506 547.51Z" fill="white"/>
<path d="M487.5 573.01C489.205 573.389 490.087 573.983 491.5 575.01C492.84 575.984 493.585 576.628 494.5 578.01C495.321 579.25 495.647 580.065 496 581.51C496.51 583.596 496.47 584.914 496 587.01C495.579 588.886 495.357 590.147 494 591.51C492.387 593.129 490.775 593.289 488.5 593.51C486.136 593.74 484.546 593.716 482.5 592.51C480.712 591.456 479.729 590.682 478.5 589.01C477.409 587.526 476.803 586.327 476.5 584.51C476.204 582.734 476.818 581.676 477.5 580.01C478.3 578.055 479.052 577.047 480.5 575.51C481.545 574.4 482.068 573.535 483.5 573.01C484.966 572.472 485.975 572.671 487.5 573.01Z" fill="white"/>
<path d="M486 605.51C487.667 605.572 488.741 605.915 490 607.01C491.164 608.022 491.732 609.08 492.456 610.428L492.5 610.51C493.326 612.048 493.597 612.81 494 614.51C494.389 616.153 494.248 617.186 494.027 618.81L494 619.01C493.726 621.03 493.767 622.413 492.5 624.01C491.355 625.453 490.23 625.878 488.5 626.51C486.291 627.317 484.61 628.048 482.5 627.01C480.924 626.234 480.213 625.412 479.086 624.109L479 624.01C477.642 622.44 476.809 621.421 476 619.51C475.235 617.703 475.242 616.455 475.5 614.51C475.777 612.425 476.148 611.121 477.5 609.51C478.58 608.223 481 607.01 481 607.01C481 607.01 483.648 605.566 485.5 605.51C485.5 605.51 485.805 605.503 486 605.51Z" fill="white"/>
<path d="M507.5 631.01C509.11 631.01 510.094 631.225 511.5 632.01C513.312 633.021 513.892 634.254 515 636.01C516.026 637.636 516.598 638.629 517 640.51C517.408 642.419 517.555 643.638 517 645.51C516.553 647.019 516.068 647.854 515 649.01C513.774 650.337 512.737 650.775 511.097 651.469L511 651.51C509.691 652.064 508.919 652.425 507.5 652.51C504.785 652.673 503.054 651.793 501 650.01C499.405 648.625 498.617 647.53 498 645.51C497.372 643.456 497.589 642.118 498 640.01C498.402 637.945 498.743 636.696 500 635.01C501.076 633.566 501.89 632.815 503.5 632.01C504.94 631.29 505.89 631.01 507.5 631.01Z" fill="white"/>
<path d="M870.5 123.01C868.157 123.01 866.823 123.32 864.5 123.01C860.673 122.5 857.353 119.885 854.592 116.51M870.5 123.01C871.277 127.433 871.277 130.087 870.5 134.51C869.08 142.599 866.297 147.193 860.5 153.01C855.517 158.01 851.053 158.678 845 162.31M870.5 123.01C878.896 123.01 883.943 120.647 892 123.01C900.005 125.357 907.681 126.497 910 134.51C910.977 137.886 910.573 140.042 910 143.51C908.214 154.314 891.517 154.07 892 165.01C892.161 168.654 893.334 170.554 894.5 174.01C905.713 207.245 942.992 203.054 963.5 231.51C971.43 242.513 978.299 248.218 981 261.51C982.672 269.738 983.97 275.156 981 283.01C978.063 290.776 973.867 294.343 967 299.01C955.848 306.588 946.483 305.101 933 305.01C923.142 304.943 917.64 303.572 908 301.51C889.941 297.647 880.548 292.611 863.5 285.51C850.193 279.967 842.786 276.666 830 270.01C828.422 269.188 826.732 268.405 825 267.647M691 139.01C681.823 125.342 675.433 128.54 667.5 104.01C659.567 79.4796 657.78 60.6391 672 40.0099C677.801 31.5944 682.478 27.6525 691 22.0099C701.158 15.284 705.385 12.0937 720 10.5099C734.615 8.92603 741.735 7.21514 755 10.5099C779.727 16.6514 799.5 51.01 804.5 53.0099C809.5 55.0098 882.249 49.4014 892 53.0099C901.752 56.6183 907 63.51 906.5 68.0099C906 72.5098 903.015 79.9383 892 85.0099C880.986 90.0815 853 85.0099 853 85.0099C845.958 85.4974 844.453 88.5115 845 97.5099C845 97.5099 848.387 108.927 854.592 116.51M691 139.01C701.154 144.477 707.542 146.411 717 153.01C728.106 160.759 733.705 166.212 742.5 176.51C752.314 188 749.956 202.309 763.5 209.01C775.226 214.811 788.83 219.228 797 209.01C799.786 205.526 800.71 202.901 801.5 198.51C802.123 195.051 802.123 192.969 801.5 189.51M691 139.01C683.415 136.087 679.234 134.216 672 130.51C643.828 116.076 631.177 102.097 609 79.5099C602.319 72.7055 599.855 67.5788 592.5 61.5099C584.596 54.9884 579.409 52.0692 570 48.0099C557.126 42.4556 548.786 37.4523 535 40.0099C527.261 41.4457 522.02 42.3989 516.5 48.0099C507.785 56.8679 509.572 67.323 512 79.5099C514.5 92.0555 521.737 96.9795 529 107.51C539.32 122.472 546.136 130.187 558.5 143.51C567.986 153.732 574.095 158.693 584 168.51C592.238 176.674 596.799 181.309 605 189.51M801.5 189.51C801.5 185.995 800.373 183.839 801.5 180.51C802.961 176.192 805.897 174.803 809.5 172.01C819.309 164.406 829.583 170.914 840.5 165.01C842.303 164.035 843.292 163.442 845 162.31M801.5 189.51C829.259 197.199 890.23 232.328 898 242.51C889.776 241.638 853.221 192.306 845 162.31M821.5 236.51C822.5 238.51 808.896 251.961 804.716 254.01M605 189.51C617.302 199.078 636.5 214.01 636.5 214.01C638.114 215.222 639.794 216.298 641.5 217.283M605 189.51C585.611 193.114 573.889 193.114 554.5 189.51C539.08 186.644 530.659 183.256 516.5 176.51C498.215 167.798 491.179 157.394 473.5 147.51C462.295 141.246 456.479 136.021 444 133.01C432.415 130.214 425.33 130.573 413.5 132.01C388.532 135.043 355.5 160.01 355.5 160.01M575.5 85.0099C575.5 85.0099 588.223 98.5199 596 107.51C604.898 117.796 609.938 123.555 618 134.51C625.73 145.013 628.285 152.182 636.5 162.31C646.016 174.041 652.835 179.336 664 189.51C671.061 195.943 674.885 199.743 682.5 205.51C691.741 212.508 701.562 211.555 707.5 221.51C711.129 227.594 712.647 233.52 712.333 239.51M355.5 160.01C355.5 160.01 349.123 183.241 348.5 198.51C347.697 218.21 342.614 233.587 355.5 248.51C356.961 250.202 359.5 252.604 359.5 252.604M355.5 160.01C355.5 160.01 336.892 169.114 325 175.01C312.482 181.216 305.387 184.547 293 191.01C281.38 197.072 274.59 200.026 263.5 207.01C249.224 216 238 225.51 227 232.01C223.166 234.275 218 236.01 218 236.01M516.5 376.01L478 350.51C478 350.51 452.945 336.279 438 325.51C424.892 316.065 407.423 300.537 400.75 294.51M516.5 376.01L545.5 400.51C552.156 407.07 550.536 410.185 545.5 415.51C540.464 420.835 537.862 429.861 534 439.51C530.559 448.109 528.237 452.912 526.5 462.01C524.047 474.86 525.427 482.471 526.5 495.51C527.645 509.418 531.555 520.124 533.5 532.51M516.5 376.01C535.727 350.053 549.272 338.971 581.247 329.01M534 537.51C533.798 535.389 533.797 534.401 533.5 532.51M534 537.51C534 537.51 527.261 536.968 523 537.51C519.032 538.014 516.849 538.736 513.072 539.986M534 537.51C534.123 538.801 534.228 540.139 534.316 541.51M534 597.01C529.9 609.507 527.046 616.345 523.5 629.01C520.018 641.445 528 653.51 538 653.51M534 597.01C534 590.566 534 580.51 534 580.51M534 597.01C540.834 604.43 542.337 611.791 551.5 616.01C563.062 621.333 582 614.01 582 614.01M538 653.51C548 653.51 559.5 649.51 564 653.51C567.907 656.983 584.581 675.984 604.001 691.01M538 653.51C538 653.51 537.695 658.69 537.5 662.01M538 653.51L537.5 662.01M588 622.01C584 617.139 582 614.01 582 614.01M588 622.01C589.432 623.754 592.026 626.343 595.222 629.484M588 622.01C588 622.01 592.563 618.87 594.5 616.01C598.154 610.613 597.03 606.027 597 599.51C596.971 593.186 596.305 589.571 594.5 583.51C592.729 577.562 591.558 574.094 588 569.01C584.268 563.678 575.938 557.51 575.938 557.51M577 547.51C578.565 530.678 580.85 517.883 584.011 505.01M577 547.51C577 547.51 583.948 554.297 588 559.01C593.092 564.932 596.799 567.885 600 575.01C603.029 581.752 603.525 586.133 604.001 593.51C604.519 601.537 604.151 606.259 602 614.01C600.235 620.367 595.222 629.484 595.222 629.484M577 547.51C576.717 550.554 576.343 554.009 575.938 557.51M594.5 468.01C600.7 447.174 609.258 436.924 613 415.51C615.124 403.354 617.599 396.17 615.5 384.01C613.005 369.553 606.648 362.71 598.5 350.51C592.521 341.558 581.247 329.01 581.247 329.01M594.5 468.01L709 329.01L575.228 321.51M594.5 468.01C590.255 482.277 586.794 493.674 584.011 505.01M545.5 283.01C528.823 265.133 495 246.01 495 246.01C495 246.01 472.315 231.126 469.5 216.01C468.463 210.443 469.5 201.51 469.5 201.51M545.5 283.01C545.5 283.01 577.597 289.929 598.5 291.51C617.386 292.938 628.09 292.582 647 291.51C660.908 290.721 668.905 291.052 682.5 288.01C692.503 285.771 698.62 285.13 707.5 280.01C713.049 276.81 715.984 274.552 720.5 270.01M545.5 283.01C551.469 289.408 558.503 299.144 562.587 305.01M218 236.01C218 236.01 229.767 255.201 232.5 269.01C235.233 282.819 233 298.51 233 298.51M218 236.01C210.541 236.992 207.5 227.01 207.5 227.01C207.5 227.01 204.969 215.798 198 203.51C174.803 162.611 126.599 116.141 126.675 106.51M126.675 106.51L124.5 92.0099M126.675 106.51H85M124.5 92.0099C127.5 91.0098 141.5 67.5098 143 64.5099C144.5 61.51 145 58.5098 143 52.0099C141 45.51 134.5 41.0099 131.5 38.5099C128.5 36.0099 119.5 31.01 115 32.5099C110.5 34.0098 104.5 41.01 100 41.0099C95.4999 41.0098 79 30.0099 79 30.0099C58.668 15.9119 24.0001 6.01011 20.5 6.00987C16.9999 6.00964 4.99997 1.50963 5 11.5099C5.00003 21.5101 62 76.0099 62 76.0099M124.5 92.0099C120.455 77.3706 111.639 68.5549 97 64.5099C89.0952 62.3256 83.6454 61.5426 76 64.5099C69.404 67.0698 62 76.0099 62 76.0099M62 76.0099L85 106.51M85 106.51L109 162.01L127.5 219.51C127.5 219.51 142.905 268.286 169 293.166M233 298.51C230 298.51 191.971 302.463 172 294.51C170.938 294.087 169.941 293.639 169 293.166M233 298.51C236 298.51 255.962 296.864 270.5 294.51C283.505 292.404 291.08 291.904 303.5 287.51C307.235 286.189 310.496 284.878 313.5 283.514M338 269.01C346.796 263.163 359.5 252.604 359.5 252.604M338 269.01L337.589 269.283M338 269.01C337.862 269.101 337.725 269.193 337.589 269.283M359.5 252.604L398 292.01C398 292.01 399.007 292.936 400.75 294.51M581.247 329.01L575.228 321.51M534 580.51H573M534 580.51C534 580.51 534.511 572.551 534.68 562.51M573 580.51C573 580.51 573.391 577.7 573.943 573.51M573 580.51C573 580.51 573.71 585.669 574.411 590.51M582 614.01C582 614.01 576.229 602.641 575 594.51C574.816 593.293 574.614 591.915 574.411 590.51M747.5 70.0099C756.454 54.1191 765.04 51.8786 785.5 57.5099M792.5 70.0099C797.717 86.7875 794.028 91.2502 776.5 91.0099M794 113.01C795.795 119.78 796.637 124.897 795.712 130.51M790.5 144.51C793.403 139.012 795.034 134.628 795.712 130.51M795.712 130.51C824.607 135.02 837.32 131.653 854.592 116.51M616 28.5098C616 28.5098 622.935 20.1053 629 20.0098C634.239 19.9272 635.891 24.8486 641 26.0098C645.76 27.0916 648.763 27.1888 653.5 26.0098C659.807 24.44 661.202 18.6152 667.5 17.0098C672.42 15.7558 675.495 16.1599 680.5 17.0098C688.594 18.3843 699.5 26.0098 699.5 26.0098M598.5 45.0098C598.5 45.0098 608.404 36.6656 616 36.5098C622.421 36.378 625.184 40.8416 631.5 42.0098C638.796 43.3592 643.369 44.0624 650.5 42.0098C656.296 40.3413 658.095 35.7384 664 34.5098C670.355 33.1875 674.095 35.4578 680.5 36.5098C689.988 38.0682 704.5 42.0098 704.5 42.0098M609 65.5098C609 65.5098 619.32 57.9415 627 57.5099C633.43 57.1485 636.578 61.0184 643 61.5099C645.92 61.7334 647.587 61.8194 650.5 61.5099C657.568 60.7588 660.509 56.2933 667.5 55.0098C674.414 53.7404 678.606 53.634 685.5 55.0098C692.114 56.3297 701.5 61.5099 701.5 61.5099M609 85.0099C609 85.0099 617.774 79.9226 624 79.5099C628.933 79.1828 631.574 81.0983 636.5 81.5098C641.948 81.9648 645.072 82.1646 650.5 81.5098C659.266 80.4521 663.189 75.0877 672 74.5098C683.058 73.7844 699.5 81.5098 699.5 81.5098M618 101.51C618 101.51 628.71 93.7216 636.5 94.0098C641.622 94.1992 643.944 97.1666 649 98.0098C654.778 98.9735 658.207 98.8772 664 98.0098C669.438 97.1956 672.086 94.9717 677.5 94.0098C685.959 92.5067 691.131 92.0666 699.5 94.0098C703.952 95.0436 710.5 98.0098 710.5 98.0098M658 119.01C658 119.01 668.122 112.436 675.5 111.01C681.443 109.861 685.057 109.861 691 111.01M691 111.01C694.319 115.306 694.692 119.488 699.5 122.01C704.86 124.822 715 122.01 715 122.01M691 111.01C697.444 111.791 702.683 108.659 707.5 113.01C710.16 115.413 715 122.01 715 122.01M691 111.01C691 119.01 672 122.01 672 122.01M715 122.01C715 122.01 723.228 132.371 728.5 139.01M720.5 270.01C714.16 266.495 704.266 261.01 704.266 261.01M720.5 270.01C725.772 271.377 728.67 272.387 734 273.51M720.5 270.01L704.266 261.01M641.5 217.283C652.436 223.593 664.472 226.129 667.5 236.51C671 248.51 667.919 240.205 667.5 242.51C666.287 249.179 653.358 249.268 656 255.51C657.941 260.094 663.599 257.917 667.5 261.01C668.671 261.938 669.462 262.965 670.132 264.01M641.5 217.283C641.5 217.283 648.334 222.948 641.5 224.51M641.5 224.51C634.666 226.072 630.834 226.948 624 228.51M641.5 224.51L624 228.51M624 228.51C617.166 230.072 616.677 232.761 612 235.51C606.716 238.615 603.547 240.034 598.5 243.51C593.578 246.9 591.084 249.175 586.5 253.01C583.527 255.497 580.093 255.791 579 259.51C578.282 261.952 578.512 263.663 579.5 266.01C580.897 269.328 583.101 270.823 586.5 272.01C590.985 273.576 594.012 271.569 598.5 270.01C603.625 268.229 605.943 265.954 610.5 263.01C615.552 259.746 617.826 257.078 623 254.01C625.104 252.762 626.216 251.887 628.5 251.01C634.697 248.629 639.825 247.564 645.5 251.01C648.096 252.586 648.612 254.632 651 256.51C653.001 258.084 654.261 258.797 656.5 260.01C660.198 262.014 662.313 263.61 666.5 264.01C667.912 264.144 670.132 264.01 670.132 264.01M670.132 264.01C671.512 266.163 672.377 268.394 675 270.01C682.712 274.761 690.475 272.053 698 267.01C700.837 265.109 702.68 263.256 704.266 261.01M712.333 239.51C712.059 244.746 710.385 250.03 707.5 255.51C706.377 257.643 705.385 259.424 704.266 261.01M712.333 239.51C712.333 239.51 719.983 243.031 725 245.01M725 245.01L725.615 245.253M725 245.01C725.208 245.092 725.413 245.173 725.615 245.253M804.716 254.01C804.536 254.556 804.458 255.06 804.5 255.51C804.938 260.156 815.581 263.524 825 267.647M804.716 254.01C804.716 254.01 776.057 256.61 758 254.01C751.897 253.131 748.466 252.566 742.5 251.01C735.725 249.242 731.958 247.756 725.615 245.253M734 273.51C737.212 274.186 739.917 274.696 742.5 275.098C745.157 275.511 747.684 275.811 750.5 276.062M734 273.51C731.513 288.782 730.454 297.564 729 313.51L562.587 305.01M825 267.647C825 267.647 819.227 269.159 815.5 270.01C808.331 271.646 804.247 272.264 797 273.51C789.407 274.815 785.181 275.904 777.5 276.51C769.324 277.155 764.684 277.032 756.5 276.51C754.299 276.369 752.338 276.226 750.5 276.062M169 293.166C169 293.166 164.283 297.813 161.5 301.01C159.678 303.103 157.958 303.905 157 306.51C155.989 309.259 155.83 311.325 157 314.01C158.17 316.695 163.5 318.545 166.5 319.51C170.332 320.742 180 320.01 179 321.51C178 323.01 166.415 325.524 158.5 328.51C152.189 330.89 148.653 332.249 142.5 335.01M142.5 335.01L141.886 335.285M142.5 335.01C142.293 335.103 142.088 335.194 141.886 335.285M66.4999 679.51C63.7246 674.456 61.7784 671.806 59.4999 666.51C57.3038 661.405 56.9473 658.215 54.9999 653.01C53.3734 648.663 52.8547 646.449 51.4999 642.01C50.0467 637.248 49.3811 634.409 48.4999 629.51C47.6248 624.644 46.7537 621.896 45.9999 617.01C45.1872 611.742 44.7325 608.789 43.9999 603.51C42.9178 595.713 42.3982 591.371 41.9999 583.51C41.5946 575.512 41.5969 571.008 41.9999 563.01C42.4829 553.422 42.863 548.042 43.9999 538.51C44.5133 534.205 44.7501 531.78 45.4999 527.51C46.8923 519.58 48.408 515.284 50.4999 507.51C51.4477 503.987 51.969 502.009 52.9999 498.51C54.6228 493.001 55.5104 489.897 57.4999 484.51C59.1078 480.156 60.5354 477.914 61.9999 473.51C62.6431 471.575 63.4999 470.51 63.4999 468.51C63.4999 466.51 58.7647 463.928 55.4999 461.51C52.9266 459.603 50.4999 457.51 48.4999 457.51C46.4999 457.51 45.91 462.931 44.4999 466.51C43.4357 469.21 42.8652 470.739 41.9999 473.51C41.0962 476.403 40.9926 478.146 39.9999 481.01C39.1686 483.408 39.0741 485.018 37.4999 487.01C36.3834 488.422 35.636 489.259 33.9999 490.01C31.5154 491.15 29.2505 491.561 26.9999 490.01C24.7607 488.466 25.223 486.132 24.4999 483.51C23.9704 481.59 24.876 479.949 23.4999 478.51C21.9912 476.932 17.9999 477.51 17.9999 477.51C17.9999 477.51 15.4999 477.51 12.4999 475.51C9.49988 473.51 12.4999 433.51 12.4999 433.51C12.4999 433.51 12.9999 431.51 14.9999 430.51C16.9999 429.51 39.9999 434.51 41.4999 433.51C42.9999 432.51 43.0954 431.738 43.9999 430.51C46.2274 427.486 46.6602 425.284 48.4999 422.01C51.075 417.426 52.6828 414.949 55.4999 410.51C58.895 405.16 60.5792 401.987 64.4999 397.01C67.7509 392.882 69.9759 390.907 73.4999 387.01C79.5259 380.346 82.4102 376.116 88.9999 370.01C93.988 365.387 97.0471 363.074 102.5 359.01C105.758 356.582 107.656 355.318 111 353.01C116.214 349.41 119.041 347.227 124.5 344.01C131.075 340.135 135.093 338.333 141.886 335.285M66.4999 679.51L66.91 680.257M66.4999 679.51C66.639 679.763 66.7756 680.012 66.91 680.257M384.5 718.51C379.289 724.785 376.222 728.196 370.5 734.01C366.334 738.242 363.966 740.595 359.5 744.51C356.266 747.344 354.381 748.852 351 751.51C346.609 754.961 344.065 756.793 339.5 760.01C334.32 763.659 331.59 766.027 326 769.01C320.049 772.184 316.266 773.016 310 775.51C302.992 778.299 299.142 780.087 292 782.51C286.208 784.474 282.964 785.657 277 787.01C272.554 788.018 269.999 789.276 265.5 790.01C258.877 791.089 255.19 790.996 248.5 791.51C241.102 792.078 236.915 791.78 229.5 791.51C221.673 791.225 217.239 791.214 209.5 790.01C203.975 789.15 201.457 789.229 196 788.01C190.129 786.698 186.228 785.345 180.5 783.51C175.493 781.906 172.855 780.527 168 778.51C163.88 776.798 161.539 775.904 157.5 774.01C150.46 770.708 146.511 768.761 140 764.51C135.324 761.457 132.966 759.363 128.5 756.01C122.597 751.578 118.972 749.463 113.5 744.51C107.764 739.318 105.052 735.869 99.9999 730.01C95.7383 725.067 93.3995 722.242 89.4999 717.01C86.2307 712.623 84.4569 710.113 81.4999 705.51C79.0383 701.678 77.8004 699.44 75.4999 695.51C72.0246 689.572 70.1087 686.083 66.91 680.257M384.5 718.51L384.944 717.976M384.5 718.51C384.65 718.329 384.798 718.151 384.944 717.976M604.001 691.01C606.949 693.291 609.96 695.48 613 697.51C619 700.51 627.381 700.01 630 697.51C632.619 695.01 632.5 681.01 630 673.51C627.5 666.01 621.965 658.184 615 650.01C608.619 642.521 600.953 635.116 595.222 629.484M604.001 691.01C604.001 691.01 548 692.51 544.5 691.01C541 689.51 541.355 687.284 540 684.51C537.978 680.373 539.196 673.556 538.474 671.01M296 333.01C303.536 335.18 307.628 336.834 315 339.51C320.693 341.576 323.957 342.569 329.5 345.01C334.695 347.297 337.631 348.593 342.5 351.51C346.356 353.82 347.135 354.215 351 356.51C352.728 357.536 356.5 359.01 356.5 360.51C356.5 362.01 344.5 379.51 342.5 379.01C340.5 378.51 337.7 375.543 334.5 373.51C330.881 371.211 328.752 370.083 325 368.01C320.566 365.56 318.09 364.152 313.5 362.01C308.341 359.602 305.373 358.391 300 356.51C295.569 354.959 293.047 354.175 288.5 353.01C283.863 351.821 281.213 351.348 276.5 350.51C271.062 349.543 268.005 348.954 262.5 348.51C255.299 347.929 251.225 348.51 244 348.51C236.385 348.51 232.099 348.014 224.5 348.51C218.023 348.932 214.394 349.391 208 350.51C198.67 352.142 193.477 353.49 184.5 356.51C176.698 359.134 172.381 360.867 165 364.51C157.142 368.388 152.971 371.119 145.695 375.882M296 333.01L295.285 332.804M296 333.01C295.757 332.94 295.519 332.871 295.285 332.804M145.5 376.01C138.245 380.759 134.284 383.61 127.5 389.01C121.435 393.837 118.134 396.686 112.5 402.01M145.5 376.01L145.695 375.882M145.5 376.01C145.565 375.967 145.63 375.924 145.695 375.882M112.5 402.01L112.249 402.247M112.5 402.01C112.416 402.089 112.332 402.168 112.249 402.247M313.5 283.514C313.5 283.514 312.571 293.073 310 298.51C308.078 302.573 306.452 304.619 303.5 308.01C300.869 311.032 298.97 312.321 296 315.01C294.257 316.588 292.5 317.01 291.5 319.01C290.5 321.01 302.865 321.418 310 323.51C316.933 325.542 320.829 326.735 327.5 329.51C334.756 332.528 338.759 334.468 345.5 338.51C349.727 341.044 351.839 342.87 356 345.51C358.517 347.106 362.357 350.452 362.5 349.51C362.642 348.568 382.323 329.296 387.5 315.01C388.431 312.44 388.737 310.448 387.5 308.01C386.369 305.78 384.681 305.232 382.5 304.01C378.988 302.042 376.496 301.994 372.5 301.51C368.623 301.04 366.403 301.648 362.5 301.51C357.606 301.336 354.75 301.702 350 300.51C346.764 299.698 344.787 299.345 342 297.51C339.463 295.839 338.707 294.096 336.5 292.01C334.591 290.205 333.227 289.489 331.5 287.51C329.649 285.388 329.005 283.89 327.5 281.51C326.498 279.926 325 277.413 325 277.413M313.5 283.514L325 277.413M325 277.413C328.897 275.061 332.877 272.415 337.589 269.283M116 445.01C120.264 439.552 122.901 436.688 127.5 431.51C132.454 425.931 134.854 422.387 140.5 417.51C145.052 413.577 147.892 411.686 153 408.51C157.526 405.695 165 400.51 165 400.51C165 400.51 174.557 394.934 181 392.01C186.349 389.582 189.499 388.571 195 386.51C200.436 384.472 203.375 382.948 209 381.51C216.438 379.608 220.853 379.695 228.5 379.01C235.9 378.346 240.07 377.906 247.5 378.01C253.37 378.092 256.668 378.333 262.5 379.01C268.399 379.695 271.777 379.922 277.5 381.51C282.741 382.964 285.415 384.579 290.5 386.51C295.179 388.286 297.922 388.986 302.5 391.01C307.532 393.235 310.174 394.868 315 397.51C319.143 399.777 324.5 401.01 325.5 403.51C326.5 406.01 237 535.51 235 537.01C233 538.51 223.5 535.51 223.5 535.51C219.79 535.51 218.086 536.06 214.5 537.01C211.291 537.859 209.746 539.145 207 541.01C204.477 542.724 203 546.01 201 546.01C199 546.01 97.9999 474.01 97.9999 474.01C97.9999 474.01 100.676 468.793 102.5 465.51C104.923 461.148 106.239 458.666 109 454.51C111.411 450.881 112.984 448.868 115.545 445.591M116 445.01L115.545 445.591M116 445.01C115.845 445.208 115.693 445.402 115.545 445.591M413.5 394.01C407.791 387.072 404.544 383.165 398 377.01C394.066 373.31 391.509 371.628 387.5 368.01C383.296 364.216 378.071 360.51 377 358.01C375.928 355.51 395 333.01 395 333.01L490 536.01L435 537.51C435 537.51 433.904 523.366 432 514.51C430.376 506.958 428.712 502.911 426.5 495.51C424.041 487.285 423.088 482.52 420 474.51C417.14 467.091 415.082 463.108 411.5 456.01C408.902 450.862 407.395 447.996 404.5 443.01C401.018 437.013 399.173 433.547 395 428.01C391.584 423.477 389.277 421.246 385.5 417.01C380.351 411.235 377.149 408.285 372 402.51C368.222 398.273 366.923 395.067 362.5 391.51C360.306 389.745 356.5 387.51 356.5 387.51L370.5 369.51C370.5 369.51 377.859 376.165 382.5 380.51C386.835 384.568 389.483 386.636 393.5 391.01C398.203 396.131 400.237 399.517 404.5 405.01C409.624 411.612 412.843 415.07 417.5 422.01C421.306 427.683 423.287 430.981 426.5 437.01C429.745 443.1 431.155 446.723 434 453.01C436.198 457.869 437.66 460.504 439.5 465.51C441.397 470.671 441.806 473.778 443.5 479.01C444.964 483.534 445.5 488.51 447.5 490.51C449.5 492.51 454.553 493.072 457.5 490.51C460.889 487.563 458.322 483.425 457.5 479.01C456.696 474.696 455.133 472.583 453.5 468.51C451.286 462.989 449.813 459.99 447.5 454.51C445.525 449.833 444.623 447.121 442.5 442.51C439.834 436.719 437.884 433.695 435 428.01C432.827 423.727 431.835 421.207 429.5 417.01C426.813 412.181 425.16 409.544 422 405.01C418.945 400.626 417.011 398.277 413.662 394.207M413.5 394.01L413.662 394.207M413.5 394.01C413.554 394.076 413.608 394.142 413.662 394.207M533.5 532.51C533.5 532.51 522.847 531.389 518.5 532.01C512.998 532.795 508.5 534.51 508.5 534.51L400.75 294.51M467 629.01C465.181 625.621 464.237 623.652 463 620.01C461.583 615.839 461.006 613.386 460.5 609.01C459.961 604.355 460.5 601.696 460.5 597.01C460.5 592.128 460.441 588.275 461.5 583.51C462.373 579.58 462.739 578.629 464.5 575.01C466.259 571.394 467.453 569.471 469.5 566.01C471.733 562.233 472.826 559.989 475.5 556.51C478.446 552.677 484 547.51 484 547.51L436 548.51C436 548.51 436.218 561.007 436 569.01C435.797 576.437 435.602 580.604 435 588.01C434.538 593.684 434.368 596.884 433.5 602.51C432.618 608.225 431.798 611.375 430.5 617.01C429.416 621.717 428.754 624.345 427.5 629.01C426.393 633.128 424.5 639.51 424.5 639.51C424.5 639.51 481 656.01 485.5 653.51C490 651.01 480 646.51 480 646.51L474.407 640.51C471.261 636.955 469.465 633.607 467.254 629.484M467 629.01L467.254 629.484M467 629.01C467.085 629.169 467.17 629.327 467.254 629.484M562.587 305.01C564.682 308.019 566 310.01 566 310.01L575.228 321.51M513 540.01C508.351 541.548 505.776 542.623 501.5 545.01C497.575 547.201 495.603 548.822 492 551.51C488.993 553.752 487.141 554.846 484.5 557.51C481.558 560.477 480.221 562.47 478 566.01C475.679 569.708 474.892 572.075 473 576.01C471.599 578.923 470.477 580.429 469.5 583.51C468.306 587.274 468.292 589.572 468 593.51C467.711 597.404 467.794 599.61 468 603.51M513 540.01L513.072 539.986M513 540.01C513.024 540.002 513.048 539.994 513.072 539.986M468 603.51L468.02 603.892M468 603.51C468.007 603.638 468.013 603.766 468.02 603.892M537.5 662.01C532.295 662.851 529.204 662.851 524 662.01C520.399 661.428 518.021 661.462 514.5 660.51C510.019 659.299 507.755 658.363 503.5 656.51C499.723 654.865 497.687 653.619 494.5 651.01C491.4 648.472 489.84 647.336 487 644.51C484.355 641.879 483.011 639.768 480.5 637.01C477.397 633.602 475.658 631.582 473.5 627.51C471.274 623.308 470.579 620.641 469.5 616.01C468.414 611.347 468.267 608.568 468.02 603.892M537.5 662.01C537.88 665.524 538.474 671.01 538.474 671.01M537.5 662.01L538.474 671.01M538.474 671.01C538.295 670.378 537.997 670.01 537.5 670.01C535 670.01 534.934 669.39 533.5 670.01C531.708 670.785 532.5 674.01 530.5 674.01C528.5 674.01 424.5 649.51 422.5 651.01C420.5 652.51 420.927 654.647 420 657.01C418.263 661.436 417.864 664.136 416 668.51C413.568 674.216 411.555 677.112 408.5 682.51C406.042 686.852 404.592 689.246 402 693.51C398.763 698.833 397.096 701.922 393.5 707.01C390.344 711.475 388.316 713.916 384.944 717.976M584.011 505.01L727.5 334.01V357.51C727.5 357.51 717.514 365.157 711.5 370.51C706.445 375.008 703.667 377.609 699 382.51C693.844 387.924 691.324 391.298 686.5 397.01C681.757 402.625 678.778 405.533 674.5 411.51C670.873 416.576 669.167 419.645 666 425.01C662.49 430.955 660.799 434.445 657.5 440.51C653.367 448.107 650.656 452.172 647 460.01C643.328 467.88 641.646 472.629 638.839 480.553M638.5 481.51C636.169 488.087 634.72 491.747 633 498.51C631.82 503.149 631 506.51 630 509.51C629.135 512.103 629.122 515.148 630.5 517.51C631.196 518.702 633 520.01 633 520.01C635.845 520.259 637.299 519.83 639.5 517.51L643.5 504.51L647 494.51L651.5 495.01C651.5 495.01 648.57 505.324 647 512.01C645.45 518.608 644.587 522.319 643.5 529.01C641.957 538.503 641.537 543.907 641 553.51C640.346 565.207 640.505 571.804 641 583.51C641.422 593.49 641.382 599.153 643 609.01C644.665 619.151 646.588 624.654 649.5 634.51M638.5 481.51L638.839 480.553M638.5 481.51C638.615 481.186 638.728 480.867 638.839 480.553M649.5 634.51L649.513 634.555M649.5 634.51C649.504 634.525 649.509 634.54 649.513 634.555M1047 577.01C1046.18 588.801 1045.22 595.402 1043 607.01C1040.99 617.475 1039.67 623.336 1036.5 633.51C1032.31 646.977 1029.37 654.427 1023 667.01C1016.78 679.289 1012.59 685.876 1004.5 697.01C995.385 709.55 989.567 716.153 978.5 727.01C968.113 737.199 961.977 742.747 950 751.01C935.62 760.931 926.774 765.657 910.5 772.01C896.158 777.608 887.689 779.993 872.5 782.51C859.557 784.655 852.117 785.201 839 785.01C828.023 784.85 821.847 784.198 811 782.51C800.327 780.849 794.34 779.633 784 776.51C772.337 772.987 765.88 770.493 755 765.01C743.244 759.085 736.911 755.066 726.5 747.01C720.151 742.097 716.904 738.948 711 733.51C702.266 725.465 697.099 721.134 689.5 712.01C683.501 704.806 680.567 700.397 675.5 692.51C670.394 684.563 667.671 679.984 663.5 671.51C659.752 663.895 657.934 659.473 655 651.51C652.593 644.977 651.482 641.219 649.513 634.555M1047 577.01L1047.04 576.456M1047 577.01C1047.01 576.824 1047.03 576.639 1047.04 576.456M791.5 326.51C786.585 327.965 783.795 328.701 779 330.51C773.602 332.546 770.817 334.271 765.5 336.51C760.654 338.55 757.975 339.75 753.5 342.51C750.541 344.334 746 347.01 746 347.01C746 347.01 743.634 322.576 745 307.01C746.073 294.782 750.5 276.062 750.5 276.062M791.5 326.51L791.895 326.393M791.5 326.51C791.633 326.47 791.764 326.431 791.895 326.393M710.5 388.51C715.462 383.511 717.678 379.973 723.5 376.01C726.463 373.993 731.5 371.51 731.5 371.51L732.5 384.01C732.5 384.01 723.447 390.76 718 395.51C712.067 400.683 708.912 403.795 703.5 409.51C700.077 413.124 698.182 415.181 695 419.01C690.631 424.265 688.584 427.53 684.5 433.01C680.579 438.27 678.081 441.012 674.5 446.51C670.825 452.151 669.031 455.498 666 461.51C663.679 466.113 662.445 468.736 660.5 473.51C658.775 477.743 656.5 484.51 656.5 484.51L655.5 487.51H650C650 487.51 651.569 481.328 653 477.51C654.9 472.439 656.181 468.903 658.5 464.01C661.268 458.168 663.122 455.298 666 449.51C669.149 443.174 670.906 440.104 674.5 434.01C677.444 429.018 679.198 426.273 682.5 421.51C685.837 416.696 687.835 414.079 691.5 409.51C694.707 405.512 696.577 403.325 700 399.51C703.94 395.118 706.286 392.755 710.42 388.591M710.5 388.51L710.42 388.591M710.5 388.51C710.473 388.537 710.446 388.564 710.42 388.591M831.5 614.01C825.92 613.653 822.554 613.402 817.5 611.01C811.986 608.399 809.676 605.456 805.5 601.01C801.971 597.252 799.698 595.173 797.5 590.51C795.359 585.969 795.004 584.03 795 579.01C794.997 575.447 795.137 572.467 796 569.01C797.001 564.995 799.5 559.01 799.5 559.01C754.243 535.294 727.987 524.326 680.5 506.51C680.5 506.51 676.48 520.086 675 529.01C673.078 540.593 673.373 547.274 673 559.01C672.658 569.744 672.254 575.796 673 586.51C673.892 599.32 674.824 606.567 678 619.01C681.883 634.223 685.379 642.516 692.5 656.51C697.785 666.896 701.089 672.626 708 682.01C716.849 694.025 722.878 700.062 734 710.01C745.556 720.346 752.309 726.234 766 733.51C776.214 738.938 782.435 741.14 793.5 744.51C805.516 748.17 812.512 749.662 825 751.01C838.978 752.518 847.052 752.774 861 751.01C870.308 749.832 875.48 748.594 884.5 746.01C895.133 742.963 901.076 740.896 911 736.01C921.547 730.816 927.01 726.949 936.5 720.01C945.561 713.384 950.521 709.406 958.5 701.51C967.563 692.541 972.394 687.097 979.5 676.51C985.927 666.935 988.39 660.848 993.5 650.51C998.999 639.383 1002.7 633.325 1006.5 621.51C1010.52 609.006 1011.33 601.539 1013 588.51M831.5 614.01L831.764 614.027M831.5 614.01C831.588 614.015 831.677 614.021 831.764 614.027M1013 588.51L1013.17 587.153M1013 588.51C1013.06 588.05 1013.12 587.598 1013.17 587.153M1047.04 576.456C1047.91 563.94 1048.41 556.632 1047 544.01C1045.89 534.115 1044.09 528.744 1042 519.01C1039.81 508.822 1039.04 502.976 1036 493.01C1032.44 481.357 1029.77 474.995 1024.5 464.01C1019.05 452.654 1015.44 446.519 1008.5 436.01C1002.88 427.504 999.626 422.755 993 415.01C984.831 405.462 979.63 400.581 970 392.51C960.78 384.782 955.247 380.812 945 374.51C931.834 366.413 924.013 362.327 909.5 357.01C900.333 353.651 895.024 352.156 885.5 350.01C875.854 347.836 870.356 346.796 860.5 346.01C850.573 345.218 844.936 345.34 835 346.01C823.979 346.752 817.764 347.53 807 350.01C798.452 351.979 793.778 353.608 785.5 356.51C779.374 358.657 775.903 359.81 770 362.51C763.962 365.271 761.031 367.735 755 370.51C752.298 371.753 748 373.51 748 373.51V360.01C748 360.01 760.294 351.673 769 348.01C777.43 344.463 787.122 342.207 796 340.01C805.479 337.664 807.878 337.176 817.5 335.51C827.023 333.861 830.872 333.852 840.5 333.01C853.145 331.904 860.388 331.072 873 332.51C879.507 333.251 890.536 334.454 897 335.51C907.111 337.161 905.405 337.26 915.5 339.01C922.367 340.2 926.291 340.623 933 342.51C937.161 343.68 940.738 345.73 945 345.01C947.326 344.617 947.275 345.12 949 343.51C951.043 341.602 951.123 340.235 950.5 337.51C949.812 334.5 948.2 334.007 945.5 332.51C938.294 328.513 933.024 329.384 925 327.51C918.957 326.098 916.529 325.767 909.5 324.01C902.47 322.252 901.529 322.767 894.5 321.01C887.47 319.252 881.746 318.941 875.5 318.51C867.88 317.984 863.637 317.619 856 317.51C846.61 317.375 841.339 317.522 832 318.51C822.773 319.486 817.571 320.061 808.5 322.01C801.921 323.423 798.235 324.515 791.895 326.393M1013.17 587.153C1014.49 576.912 1015.28 570.699 1015 560.01C1014.68 548.001 1013.14 541.33 1011 529.51C1008.13 513.666 1007.08 504.418 1001 489.51C996.743 479.077 993.519 473.535 987.5 464.01C979.404 451.197 973.943 444.494 963.5 433.51C951.183 420.555 943.628 413.532 928.5 404.01C914.823 395.401 906.428 391.32 891 386.51C881.638 383.591 876.212 382.364 866.5 381.01C853.73 379.229 846.376 379.35 833.5 380.01C824.477 380.472 819.335 380.62 810.5 382.51C796.777 385.445 789.709 389.56 777 395.51C768.615 399.435 756 406.51 756 406.51C775.516 460.671 788.378 490.303 819.5 540.01C819.5 540.01 824.491 537.269 828 536.51C832.199 535.602 834.75 535.886 839 536.51C844.744 537.352 847.923 538.694 853 541.51C857.269 543.877 859.735 545.381 863 549.01C866.337 552.719 867.638 555.381 869.5 560.01C871.515 565.02 872.068 568.126 872.5 573.51C872.75 576.624 872.892 578.41 872.5 581.51C871.934 585.982 871.095 588.518 869 592.51C866.234 597.779 863.421 600.025 859 604.01C854.734 607.855 852.366 610.465 847 612.51C841.4 614.643 837.679 614.405 831.764 614.027M112.249 402.247C106.483 407.696 103.149 410.846 97.9999 417.01C93.7937 422.045 91.7632 425.135 87.9999 430.51C84.7693 435.123 83.0305 437.762 79.9999 442.51C76.5582 447.901 74.4999 456.01 71.4999 456.51C68.4999 457.01 52.9999 445.51 52.4999 442.51C51.9999 439.51 57.7009 431.195 61.9999 424.51C64.8728 420.042 66.8181 417.763 69.9999 413.51C72.503 410.164 73.9125 408.291 76.4999 405.01C81.2211 399.022 83.7637 395.553 88.9999 390.01C93.2675 385.492 95.7529 383.021 100.5 379.01C104.974 375.229 107.814 373.524 112.5 370.01C117.186 366.495 119.632 364.269 124.5 361.01C130.316 357.115 133.934 355.502 140 352.01C145.457 348.868 148.318 346.723 154 344.01C161.136 340.602 165.521 339.577 173 337.01C182.288 333.822 187.357 331.365 197 329.51C204.517 328.063 208.868 328.105 216.5 327.51C223.519 326.962 227.461 326.658 234.5 326.51C245.829 326.271 252.203 326.615 263.5 327.51C270.744 328.084 274.857 328.173 282 329.51C287.291 330.5 290.306 331.369 295.285 332.804M575.938 557.51C575.272 563.263 574.52 569.138 573.943 573.51M534.316 541.51C534.316 541.51 530.958 543.199 529.5 545.01C527.794 547.128 527.224 548.799 527 551.51C526.804 553.877 526.895 555.407 528 557.51C529.516 560.394 534.68 562.51 534.68 562.51M534.316 541.51C534.753 548.284 534.792 555.854 534.68 562.51M573.943 573.51C573.943 573.51 576.987 572.541 579 572.51C581.183 572.476 582.629 572.385 584.5 573.51C586.408 574.656 587.29 575.899 588 578.01C588.685 580.046 588.247 581.376 588 583.51C587.722 585.909 588.045 587.653 586.5 589.51C585.214 591.055 583.958 591.553 582 592.01C579.058 592.697 574.411 590.51 574.411 590.51M492.5 610.51C493.326 612.048 493.597 612.81 494 614.51C494.389 616.153 494.248 617.186 494.027 618.81M492.5 610.51L492.456 610.428M492.5 610.51C492.485 610.482 492.471 610.455 492.456 610.428M494 619.01C493.726 621.03 493.767 622.413 492.5 624.01C491.355 625.453 490.23 625.878 488.5 626.51C486.291 627.317 484.61 628.048 482.5 627.01C480.924 626.234 480.213 625.412 479.086 624.109M494 619.01L494.027 618.81M494 619.01C494.009 618.942 494.018 618.875 494.027 618.81M479 624.01C477.642 622.44 476.809 621.421 476 619.51C475.235 617.703 475.242 616.455 475.5 614.51C475.777 612.425 476.148 611.121 477.5 609.51C478.58 608.223 481 607.01 481 607.01C481 607.01 483.648 605.566 485.5 605.51C485.5 605.51 485.805 605.503 486 605.51C487.667 605.572 488.741 605.915 490 607.01C491.164 608.022 491.732 609.08 492.456 610.428M479 624.01L479.086 624.109M479 624.01C479.029 624.043 479.057 624.076 479.086 624.109M511 651.51C509.691 652.064 508.919 652.425 507.5 652.51C504.785 652.673 503.054 651.793 501 650.01C499.405 648.625 498.617 647.53 498 645.51C497.372 643.456 497.589 642.118 498 640.01C498.402 637.945 498.743 636.696 500 635.01C501.076 633.566 501.89 632.815 503.5 632.01C504.94 631.29 505.89 631.01 507.5 631.01C509.11 631.01 510.094 631.225 511.5 632.01C513.312 633.021 513.892 634.254 515 636.01C516.026 637.636 516.598 638.629 517 640.51C517.408 642.419 517.555 643.638 517 645.51C516.553 647.019 516.068 647.854 515 649.01C513.774 650.337 512.737 650.775 511.097 651.469M511 651.51L511.097 651.469M511 651.51C511.033 651.496 511.065 651.482 511.097 651.469M37.4999 442.01H21.4999V469.51H28.4999C33.5683 458.796 35.6388 453.09 37.4999 442.01ZM339 414.51L250 542.51L404 539.51C404 539.51 402.706 529.414 401.5 523.01C400.202 516.12 399.605 512.197 397.5 505.51C395.867 500.321 394.46 497.584 392.5 492.51C389.781 485.474 388.822 481.281 385.5 474.51C382.609 468.617 380.537 465.539 377 460.01C373.673 454.808 371.534 452.073 368 447.01C364.311 441.723 362.624 438.464 358.5 433.51C355.23 429.582 353.149 427.587 349.5 424.01C345.551 420.139 339 414.51 339 414.51ZM252 554.01L405.5 549.51V562.51V583.51L403 603.51L399.5 623.01L396 632.51L238 595.51C238 595.51 243.659 591.738 246.5 588.51C249.112 585.541 250.508 583.671 252 580.01C253.431 576.499 253.658 574.286 254 570.51C254.264 567.593 254.287 565.925 254 563.01C253.647 559.427 252 554.01 252 554.01ZM218 557.51L227.5 546.01C219.861 543.782 215.781 543.802 209.5 550.01L218 557.51ZM203 563.01C205 561.51 223.5 573.01 223.5 573.01C223.5 573.01 238 554.01 240.5 554.01C243 554.01 245.444 558.92 246.5 563.01C247.68 567.583 246.624 570.575 245 575.01C243.305 579.637 241.743 582.304 238 585.51C233.813 589.096 230.511 590.867 225 591.01C219.128 591.162 215.769 588.939 211 585.51C207.299 582.849 204.831 581.184 203 577.01C200.803 572.003 201 564.51 203 563.01ZM91.9999 487.01L194.5 557.51L193.5 569.01L194.5 580.01L201 590.01L212 597.51L227.5 603.51L392.5 642.51C392.5 642.51 386.385 658.21 381 667.51C376.359 675.525 373.074 679.613 367.5 687.01C361.406 695.096 357.772 699.483 351 707.01C345.181 713.477 342.101 717.343 335.5 723.01C329.988 727.742 326.541 729.976 320.5 734.01C313.872 738.435 310.2 741.091 303 744.51C295.691 747.98 291.164 748.916 283.5 751.51C277.475 753.549 274.183 755.017 268 756.51C257.31 759.091 250.995 759.306 240 759.51C230.221 759.691 224.687 759.357 215 758.01C203.881 756.463 197.545 755.358 187 751.51C177.156 747.917 172.001 744.874 163 739.51C152.9 733.49 147.398 729.696 138.5 722.01C130.245 714.879 126.105 710.287 119 702.01C113.836 695.993 110.946 692.575 106.5 686.01C99.202 675.235 96.3077 668.392 90.9999 656.51C86.8145 647.14 84.5577 641.806 81.4999 632.01C79.1573 624.505 77.9424 620.238 76.4999 612.51C74.1642 599.996 74.4681 592.731 73.9999 580.01C73.5689 568.302 73.021 561.685 73.9999 550.01C74.8421 539.965 75.6422 534.31 77.9999 524.51C80.1086 515.744 81.6981 510.899 84.9999 502.51C87.4322 496.329 91.9999 487.01 91.9999 487.01ZM804 553.51C759.767 527.98 733.418 516.24 684.5 498.51C684.5 498.51 686.616 487.95 689 481.51C690.941 476.266 692.148 473.319 695 468.51C698.967 461.821 701.307 457.71 706 451.51C709.63 446.713 712.535 443.533 716.5 439.01C720.233 434.752 722.381 432.895 726.5 429.01C732.128 423.701 741.5 417.01 741.5 417.01C762.325 473.201 776.406 502.052 805.5 549.01L804 553.51ZM826.5 549.01C826.5 549.01 832.557 546.451 836.5 547.01C841.275 547.687 843.177 550.57 847 553.51C850.833 556.456 853.228 558.049 856 562.01C859.789 567.423 861.69 571.405 861.5 578.01C861.384 582.034 860.94 584.482 859 588.01C856.671 592.245 854.074 593.906 850.001 596.509L850 596.51C846.089 599.01 843.582 600.271 839 601.01C833.166 601.951 829.52 601.12 824 599.01C819.495 597.288 816.889 595.941 813.5 592.51C809.993 588.96 808.011 586.396 807 581.51C806.367 578.45 806.576 576.605 807 573.51C807.528 569.655 810 564.01 810 564.01L828 575.51C828 575.51 832.606 575.372 834.5 573.51C836.527 571.516 836.239 569.51 836.5 566.51C836.761 563.51 827.036 549.134 826.5 549.01ZM506 547.51C507.915 547.685 508.964 548.353 510.5 549.51C512.278 550.849 513.174 551.942 514 554.01C514.872 556.193 514.819 557.68 514.5 560.01C514.25 561.836 514.06 562.953 513.072 564.51C511.948 566.28 510.976 567.307 509 568.01C507.16 568.664 505.909 568.418 504 568.01C502.119 567.608 500.967 567.253 499.5 566.01C498.218 564.924 497.789 563.993 497 562.51C496.216 561.037 495.71 560.165 495.5 558.51C495.225 556.344 495.405 554.898 496.5 553.01C497.331 551.576 498.21 551.05 499.5 550.01C500.596 549.126 501.183 548.509 502.5 548.01C503.791 547.52 504.625 547.384 506 547.51ZM487.5 573.01C489.205 573.389 490.087 573.983 491.5 575.01C492.84 575.984 493.585 576.628 494.5 578.01C495.321 579.25 495.647 580.065 496 581.51C496.51 583.596 496.47 584.914 496 587.01C495.579 588.886 495.357 590.147 494 591.51C492.387 593.129 490.775 593.289 488.5 593.51C486.136 593.74 484.546 593.716 482.5 592.51C480.712 591.456 479.729 590.682 478.5 589.01C477.409 587.526 476.803 586.327 476.5 584.51C476.204 582.734 476.818 581.676 477.5 580.01C478.3 578.055 479.052 577.047 480.5 575.51C481.545 574.4 482.068 573.535 483.5 573.01C484.966 572.472 485.975 572.671 487.5 573.01Z" stroke="white" stroke-width="10"/>
</svg>
