<svg width="1412" height="410" viewBox="0 0 1412 410" fill="none" xmlns="http://www.w3.org/2000/svg">
<path fill-rule="evenodd" clip-rule="evenodd" d="M554.333 46.4531C554.333 46.4531 647.833 24.9531 656.833 38.4531C665.833 51.9531 682.333 289.453 684.333 296.453C686.333 303.453 700.833 325.453 703.833 325.453C706.833 325.453 716 337 703.833 336.953C691.667 336.906 594.333 344 589.833 344.953C585.333 345.906 589.833 329.453 594.333 325.453C598.833 321.453 572.833 82.4531 572.833 82.4531C570.441 69.0743 561.833 70.4531 554.333 58.4531C546.833 46.4531 554.333 46.4531 554.333 46.4531ZM651.333 179.453C657.333 169.953 651.333 58.4531 641.333 54.9531C631.333 51.4531 583.833 58.4531 583.833 58.4531C583.833 58.4531 576.833 61.4531 583.833 64.9531C590.833 68.4532 624.425 73.1029 630.833 99.9531C630.416 139.68 596.833 169.953 594.333 179.453C591.833 188.953 605.333 304.453 609.333 312.453C613.333 320.453 615.333 327.453 625.833 329.453C636.333 331.453 659.333 329.453 670.833 325.453C682.333 321.453 670.833 317.453 670.833 317.453C670.833 317.453 635.833 310.906 630.833 303.453C625.833 296 630.833 254.5 625.833 248.453C620.833 242.406 610.016 234.291 609.333 215.453C609.669 195.694 645.333 188.953 651.333 179.453Z" fill="white" stroke="white" stroke-width="0.3"/>
<path fill-rule="evenodd" clip-rule="evenodd" d="M685.333 36.4531C685.333 36.4531 778.833 14.9531 787.833 28.4531C796.833 41.9531 813.333 279.453 815.333 286.453C817.333 293.453 831.833 315.453 834.833 315.453C837.833 315.453 847 327 834.833 326.953C822.667 326.906 725.333 334 720.833 334.953C716.333 335.906 720.833 319.453 725.333 315.453C729.833 311.453 703.833 72.4531 703.833 72.4531C701.441 59.0743 692.833 60.4531 685.333 48.4531C677.833 36.4531 685.333 36.4531 685.333 36.4531ZM782.333 169.453C788.333 159.953 782.333 48.4531 772.333 44.9531C762.333 41.4531 714.833 48.4531 714.833 48.4531C714.833 48.4531 707.833 51.4531 714.833 54.9531C721.833 58.4532 755.425 63.1029 761.833 89.9531C761.416 129.68 727.833 159.953 725.333 169.453C722.833 178.953 736.333 294.453 740.333 302.453C744.333 310.453 746.333 317.453 756.833 319.453C767.333 321.453 790.333 319.453 801.833 315.453C813.333 311.453 801.833 307.453 801.833 307.453C801.833 307.453 766.833 300.906 761.833 293.453C756.833 286 761.833 244.5 756.833 238.453C751.833 232.406 741.016 224.291 740.333 205.453C740.669 185.694 776.333 178.953 782.333 169.453Z" fill="white" stroke="white" stroke-width="0.3"/>
<path fill-rule="evenodd" clip-rule="evenodd" d="M436.845 128C436.845 128 516.845 110 528.845 119C540.845 128 553.97 190.5 540.845 209.5C527.72 228.5 540.22 233 546.345 239C552.47 245 556.845 342 556.845 342C559.193 349.389 563.22 347 569.845 354C576.47 361 575.22 362.5 569.845 365.5C564.47 368.5 461.345 376.5 461.345 376.5C461.345 376.5 450.97 365.5 460.345 361C469.72 356.5 467.308 358.801 466.345 354L445.845 158C445.518 149.716 442.72 149 433.845 143C424.97 137 424.47 128 433.845 128C443.22 128 436.845 128 436.845 128ZM513.845 227C522.47 224 521.47 139 513.845 137C506.22 135 485.845 146.5 480.845 146C475.845 145.5 467.345 154 466.345 161C465.345 168 480.845 176.5 484.845 190C488.845 203.5 482.345 201 484.845 209.5C487.345 218 505.22 230 513.845 227ZM516.845 286.5C502.845 291.5 494.72 279.5 487.845 283C480.97 286.5 484.933 317.406 484.851 340.232L484.845 342C485.183 348.128 486.415 350.936 491.845 354C491.845 354 503.345 357.5 511.345 354C519.345 350.5 516.845 328 527.345 330L540.845 329C550.47 324 540.091 294.605 535.345 273C535.345 273 535.345 265.5 529.345 268.5C529.345 268.5 523.845 284.5 516.845 286.5Z" fill="white"/>
<path fill-rule="evenodd" clip-rule="evenodd" d="M466.345 1C470.845 1 479.845 1.00001 484.845 1.50001C489.845 2.00001 496.345 5.49999 500.345 8C504.345 10.5 513.845 22.5 513.845 22.5C513.845 22.5 521.345 34 522.345 36C523.345 38 525.345 46.5 525.345 51C525.345 55.5 523.845 64 522.345 66.5C520.845 69 516.345 76.5 513.845 79C511.345 81.5 504.345 87.5 502.845 88.5C501.345 89.5 492.345 95.5 488.345 96C484.345 96.5 484.345 96.5 480.845 96.5C477.345 96.5 474.845 96.5 472.845 96C470.845 95.5 464.845 92.5 464.845 92.5L458.845 88.5C458.845 88.5 450.345 82.5 445.845 79C441.345 75.5 435.345 69 433.845 66.5C432.345 64 430.095 61.5 429.47 53.5C428.845 45.5 428.845 49.5 428.845 39.5C428.845 29.5 429.22 33.5 430.845 23.5C432.47 13.5 437.845 9.99999 440.845 8C443.845 6.00001 450.845 3 453.845 2C456.845 1 461.845 1 466.345 1ZM466.345 16C459.345 17.5 455.845 19 455.845 22.5C455.845 26 459.345 27 461.845 27.5C464.345 28 474.845 26.5 477.845 27.5C480.845 28.5 483.345 31.5 484.845 33.5C486.345 35.5 488.345 37 490.345 41C492.345 45 493.345 50 492.345 53.5C491.345 57 490.345 57 488.845 60C487.345 63 486.345 62.5 484.845 66.5C483.345 70.5 482.345 78 484.845 79C487.345 80 494.345 76.5 495.345 76C496.345 75.5 502.345 69.5 503.345 68.5C504.345 67.5 508.345 62 509.845 59.5C511.345 57 510.845 49.5 509.345 45C507.845 40.5 505.845 38 502.845 33.5C499.845 29 498.345 26.5 495.345 23.5C492.345 20.5 488.345 18 484.845 16C481.345 14 473.345 14.5 466.345 16Z" fill="white"/>
<path d="M516.845 286.5C502.845 291.5 494.72 279.5 487.845 283C480.97 286.5 484.933 317.406 484.851 340.232M516.845 286.5C525.245 282.286 527.767 269.768 529.345 268.5M516.845 286.5C523.845 284.5 529.345 268.5 529.345 268.5M529.345 268.5C535.345 265.5 535.345 273 535.345 273C540.091 294.605 550.47 324 540.845 329M540.845 329C535.573 329.391 532.617 329.609 527.345 330M540.845 329L527.345 330M527.345 330C516.845 328 519.345 350.5 511.345 354C503.345 357.5 491.845 354 491.845 354C486.415 350.936 485.183 348.128 484.845 342M484.845 342L484.851 340.232M484.845 342C484.847 341.404 484.849 340.815 484.851 340.232M436.845 128C436.845 128 516.845 110 528.845 119C540.845 128 553.97 190.5 540.845 209.5C527.72 228.5 540.22 233 546.345 239C552.47 245 556.845 342 556.845 342C559.193 349.389 563.22 347 569.845 354C576.47 361 575.22 362.5 569.845 365.5C564.47 368.5 461.345 376.5 461.345 376.5C461.345 376.5 450.97 365.5 460.345 361C469.72 356.5 467.308 358.801 466.345 354L445.845 158C445.518 149.716 442.72 149 433.845 143C424.97 137 424.47 128 433.845 128C443.22 128 436.845 128 436.845 128ZM513.845 137C521.47 139 522.47 224 513.845 227C505.22 230 487.345 218 484.845 209.5C482.345 201 488.845 203.5 484.845 190C480.845 176.5 465.345 168 466.345 161C467.345 154 475.845 145.5 480.845 146C485.845 146.5 506.22 135 513.845 137ZM466.345 1C470.845 1 479.845 1.00001 484.845 1.50001C489.845 2.00001 496.345 5.49999 500.345 8C504.345 10.5 513.845 22.5 513.845 22.5C513.845 22.5 521.345 34 522.345 36C523.345 38 525.345 46.5 525.345 51C525.345 55.5 523.845 64 522.345 66.5C520.845 69 516.345 76.5 513.845 79C511.345 81.5 504.345 87.5 502.845 88.5C501.345 89.5 492.345 95.5 488.345 96C484.345 96.5 484.345 96.5 480.845 96.5C477.345 96.5 474.845 96.5 472.845 96C470.845 95.5 464.845 92.5 464.845 92.5L458.845 88.5C458.845 88.5 450.345 82.5 445.845 79C441.345 75.5 435.345 69 433.845 66.5C432.345 64 430.095 61.5 429.47 53.5C428.845 45.5 428.845 49.5 428.845 39.5C428.845 29.5 429.22 33.5 430.845 23.5C432.47 13.5 437.845 9.99999 440.845 8C443.845 6.00001 450.845 3 453.845 2C456.845 1 461.845 1 466.345 1ZM455.845 22.5C455.845 19 459.345 17.5 466.345 16C473.345 14.5 481.345 14 484.845 16C488.345 18 492.345 20.5 495.345 23.5C498.345 26.5 499.845 29 502.845 33.5C505.845 38 507.845 40.5 509.345 45C510.845 49.5 511.345 57 509.845 59.5C508.345 62 504.345 67.5 503.345 68.5C502.345 69.5 496.345 75.5 495.345 76C494.345 76.5 487.345 80 484.845 79C482.345 78 483.345 70.5 484.845 66.5C486.345 62.5 487.345 63 488.845 60C490.345 57 491.345 57 492.345 53.5C493.345 50 492.345 45 490.345 41C488.345 37 486.345 35.5 484.845 33.5C483.345 31.5 480.845 28.5 477.845 27.5C474.845 26.5 464.345 28 461.845 27.5C459.345 27 455.845 26 455.845 22.5Z" stroke="white" stroke-width="0.3"/>
<path fill-rule="evenodd" clip-rule="evenodd" d="M142.152 256.017C64.2141 187.939 81.6793 389.263 144.652 301.517C144.652 301.517 145.652 298.198 148.152 297.517C150.652 296.836 219.652 324.836 223.652 331.017C227.652 337.198 210.039 371.743 183.152 394.517C155.152 411.017 128.284 411.738 89.6516 407.017C61.5628 399.972 46.6517 398.836 25.1517 368.017C3.65165 337.198 0.151658 329.836 1.15166 287.017C2.15166 244.198 8.00832 226.017 16.1517 212.517C29.3501 190.637 43.1517 176.836 61.6517 165.017C80.1517 153.198 103.652 140.836 144.652 153.017C185.652 165.198 209.652 195.017 207.152 202.017C204.652 209.017 160.652 254.336 155.152 256.017C149.652 257.698 142.152 256.017 142.152 256.017ZM142.152 193.017C137.652 186.198 126.652 177.517 113.152 170.017C99.6516 162.517 89.0674 172.4 86.1516 180.017C86.1516 180.017 76.1516 199.198 72.6516 209.017C69.1517 218.836 54.6517 235.836 42.1517 239.336C29.6517 242.836 19.6517 243.336 16.1517 256.017C12.6517 268.698 14.1517 274.698 16.1517 290.017C18.1517 305.336 21.1517 318.336 25.1517 326.517C29.1517 334.698 51.1516 360.017 51.1516 360.017C51.1516 360.017 86.1517 390.336 92.6516 391.517C99.1516 392.698 107.652 389.198 101.152 379.517C94.6517 369.836 55.6517 357.336 61.6517 350.017C67.6517 342.698 68.6517 333.336 58.1517 320.336C47.6517 307.336 32.6516 295.698 34.6516 287.017C36.6517 278.336 89.6517 262.336 77.1516 244.517C64.6516 226.698 93.1516 223.198 98.1516 221.517C103.152 219.836 115.652 224.336 122.152 223.336C128.652 222.336 126.652 223.017 137.652 216.017C148.652 209.017 146.652 199.836 142.152 193.017ZM185.652 337.017C181.652 332.336 164.652 320.517 155.152 322.017C145.652 323.517 146.152 342.655 135.652 346.836C125.152 351.017 135.652 362.336 148.152 360.017C160.652 357.698 155.152 362.698 155.152 368.017C155.152 373.336 164.18 386.241 176.152 374.517C176.152 374.517 186.152 366.336 192.652 353.836C199.152 341.336 189.652 341.698 185.652 337.017Z" fill="white" stroke="white" stroke-width="0.3"/>
<path fill-rule="evenodd" clip-rule="evenodd" d="M329.416 67.4611C322.416 55.9611 237.416 65.961 232.916 67.4611C228.416 68.9612 229.416 77.4612 232.916 79.4611C236.416 81.461 242.46 87.064 243.916 96.9611V349.961C242.114 361.409 233.916 369.961 230.416 373.461C226.916 376.961 224.916 382.961 230.416 386.461C235.916 389.961 320.916 389.961 328.263 386.461C335.611 382.961 330.382 340.559 328.416 315.461C326.407 289.828 314.394 281.99 305.416 306.461C301.325 319.467 299.923 327.542 301.416 345.461C303.791 355.963 314.916 362.961 314.416 367.961C313.916 372.961 298.416 370.461 283.916 367.961C269.416 365.461 263.416 352.461 261.416 336.461C259.416 320.461 261.416 292.461 261.416 292.461C261.491 266.269 273.416 238.961 279.916 244.461C286.416 249.961 292.837 272.649 308.916 279.961C308.916 279.961 319.916 287.96 323.416 278.961C326.916 269.962 324.416 239.461 324.416 239.461V207.461C324.416 183.461 335.916 183.961 338.416 207.461C338.416 207.461 331.416 370.462 338.416 376.961C345.416 383.46 418.416 381.46 422.916 376.961C427.416 372.462 429.916 292.461 422.916 289.461C415.916 286.461 408.416 287.96 408.416 287.96C389.92 287.34 386.416 309.96 387.416 317.461C388.416 324.962 407.916 331.962 410.916 345.461C413.916 358.96 401.416 363.962 394.416 364.461C387.416 364.96 370.922 356.156 365.416 341.961C365.416 341.961 362.416 339.462 365.416 323.961C368.416 308.46 373.416 289.461 377.416 281.461C381.416 273.461 381.916 269.961 377.416 259.461C372.916 248.961 355.416 222.961 350.916 215.961C346.416 208.961 350.916 195.961 350.916 190.961C350.916 185.961 350.916 176.461 341.416 175.961C331.916 175.461 331.416 162.961 338.416 161.461C345.416 159.961 350.576 157.394 355.416 146.961C365.689 142.386 369.51 143.958 373.416 152.961C373.877 171.946 371.416 180.962 368.416 192.961C365.416 204.96 368.416 216.961 368.416 216.961C372.342 235.607 377.107 242.468 392.916 244.461C392.916 244.461 405.416 240.961 409.416 244.461C413.416 247.961 402.916 276.96 409.416 279.961C415.916 282.962 417.916 283.962 422.916 279.961C427.916 275.96 426.916 219.96 422.916 181.461C418.916 142.962 372.554 117.213 329.416 137.461C329.416 137.461 336.416 78.9611 329.416 67.4611ZM314.416 82.9611C312.416 79.4611 278.916 79.4611 276.416 82.9611C273.916 86.4611 276.416 96.9611 276.416 96.9611C278.489 107.718 263.916 106.461 261.416 110.461C258.916 114.461 261.416 175.961 261.416 175.961C270.467 194.009 275.416 196.461 283.916 197.461C292.416 198.461 320.916 164.961 314.416 137.461C307.916 109.961 316.416 86.4611 314.416 82.9611Z" fill="white" stroke="white" stroke-width="0.3"/>
<path fill-rule="evenodd" clip-rule="evenodd" d="M932 211.254C936 206.254 1069 216.754 1078 211.254C1087 205.754 1078 180.254 1078 180.254C1078 180.254 1071 154.754 1070 150.254C1069 145.754 1064 134.254 1061 129.754C1058 125.254 1052 116.754 1047 111.754C1042 106.754 1038 103.254 1031 96.7537C1024 90.2537 1021 87.7537 1015 83.2537C1009 78.7537 1005.5 76.2537 997.5 74.7537C989.5 73.2537 986.5 72.7537 978 72.7537C969.5 72.7537 963.5 72.7537 955.5 72.7537C947.5 72.7537 940 73.2537 932 75.7537C924 78.2537 914 80.7537 906.5 86.2537C899 91.7537 889 101.754 889 101.754C889 101.754 877 113.754 872 121.754C867 129.754 865.5 130.254 859.5 141.754C853.5 153.254 854.5 153.754 850.5 163.254C846.5 172.754 846.5 184.754 846.5 184.754L845 211.254C845 211.254 846 222.254 847 237.254C848 252.254 852.5 261.254 854.5 263.754C856.5 266.254 860 272.246 869 283.254C878 294.262 874 291.254 885 301.254C896 311.254 892.5 307.754 906.5 316.754C920.5 325.754 915 322.754 929.5 328.754C944 334.754 947.5 334.254 951.5 334.254C955.5 334.254 971 336.254 981 334.254C991 332.254 998.5 329.254 1005.5 325.754C1012.5 322.254 1016 320.754 1023.5 316.754C1031 312.754 1037.5 305.754 1042.5 301.254C1047.5 296.754 1055 286.754 1058 283.254C1061 279.754 1064 277.254 1070 267.754C1076 258.254 1074 247.754 1073 243.254C1072 238.754 1071 238.754 1067.5 233.754C1064 228.754 1056 227.754 1051 227.754C1046 227.754 1031 227.754 1031 227.754C1031 227.754 1010 228.754 1005.5 227.754C1001 226.754 994.5 224.754 991 227.754C987.5 230.754 986.5 233.754 984 237.254C981.5 240.754 976.5 245.754 974.5 247.254C972.5 248.754 969 252.754 964 253.254C959 253.754 954 249.254 951 247.754C948 246.254 939.5 239.254 938 237.254C936.5 235.254 933 228.254 932 224.754C931 221.254 928 216.254 932 211.254ZM978 165.754C976.5 168.754 947 169.254 945 165.754C943 162.254 951.5 157.254 951.5 157.254C951.5 157.254 957 153.754 964 153.254C971 152.754 973 155.754 974.5 157.254C976 158.754 979.5 162.754 978 165.754ZM1042.5 180.254C1041 183.254 1034.5 190.254 1027.5 190.754C1020.5 191.254 1016 192.254 1006.5 192.754C997 193.254 992.5 194.754 978 194.754C963.5 194.754 953 194.754 941.5 194.754C930 194.754 920 194.754 915.5 199.254C911 203.754 911 206.254 908.5 211.254C906 216.254 905 227.254 902.5 237.254C900 247.254 900 253.254 902.5 261.254C905 269.254 905.5 268.754 911.5 274.254C917.5 279.754 921 280.754 927 277.754C933 274.754 933 274.254 938 271.754C943 269.254 947 267.754 955.5 267.754C964 267.754 968 267.754 973 266.254C978 264.754 981.5 261.754 988 258.254C994.5 254.754 995 248.762 996.5 247.254C998 245.746 1001.5 241.754 1005.5 240.754C1009.5 239.754 1015.5 239.254 1019 240.754C1022.5 242.254 1027.5 243.254 1027.5 247.254C1027.5 251.254 1023.5 253.254 1023.5 253.254L1005.5 258.254C1005.5 258.254 994.5 261.254 988 263.754C981.5 266.254 973 271.754 969 274.254C965 276.754 958 286.754 955.5 290.754C953 294.754 949 305.254 945 309.254C941 313.254 937.5 312.754 937.5 312.754C937.5 312.754 932 312.754 927 309.254C922 305.754 915.5 301.254 915.5 301.254L896 285.254C896 285.254 882.5 273.254 876.5 263.754C870.5 254.254 866.5 237.254 866.5 237.254C866.5 237.254 861.5 224.754 862.5 213.754C863.5 202.754 866 191.754 869 188.254C872 184.754 878.5 179.254 883.5 178.254C888.5 177.254 906.5 175.254 911.5 176.254C916.5 177.254 918 179.246 933 182.254C948 185.262 984 182.254 988 182.254C992 182.254 991.5 182.754 998.5 180.254C1005.5 177.754 1007.5 174.754 1009 169.254C1010.5 163.754 1007.5 161.254 1005.5 157.254C1003.5 153.254 999.5 146.754 996.5 144.754C993.5 142.754 984 141.754 984 141.754C984 141.754 964 144.754 957.5 141.754C951 138.754 947.5 135.754 947.5 135.754C947.5 135.754 940 131.754 937.5 127.754C935 123.754 938 118.754 938 118.754L947.5 102.754C947.5 102.754 951 95.2537 957.5 91.7537C964 88.2537 976 89.2537 984 91.7537C992 94.2537 996.5 97.7537 1003.5 102.754C1010.5 107.754 1014 109.754 1019 118.754C1024 127.754 1015 138.254 1019 145.754C1023 153.254 1039.5 165.254 1042.5 169.254C1045.5 173.254 1044 177.254 1042.5 180.254Z" fill="#FFFDFD"/>
<path fill-rule="evenodd" clip-rule="evenodd" d="M1078.5 64.2537C1083.5 60.7537 1163 50.7537 1169 53.7537C1175 56.7537 1172.5 64.2537 1169 67.7537C1165.5 71.2537 1153 72.2537 1153 72.2537L1102.5 75.2537C1102.5 75.2537 1098.5 78.7537 1102.5 82.7537C1106.5 86.7537 1110 80.7537 1114 85.2537C1118 89.7537 1109 101.754 1114 104.754C1119 107.754 1122.5 95.2537 1124.5 93.2537C1126.5 91.2537 1137 85.2537 1137 85.2537C1137 85.2537 1145.5 82.7537 1149 85.2537C1152.5 87.7537 1157 96.2537 1157 96.2537C1157 96.2537 1161 104.754 1162.5 110.254C1164 115.754 1160.5 121.754 1162.5 124.254C1164.5 126.754 1168 126.254 1172.5 124.254C1177 122.254 1178.5 116.254 1181.5 114.254C1184.5 112.254 1194.5 111.754 1200 114.254C1205.5 116.754 1209 124.254 1209 124.254C1209 124.254 1211.5 127.254 1216.5 124.254C1221.5 121.254 1214 67.7537 1211.5 64.2537C1209 60.7537 1207 59.2537 1203 64.2537C1199 69.2537 1184.5 97.7537 1181.5 99.2537C1178.5 100.754 1176 102.254 1172.5 99.2537C1169 96.2537 1171 90.2537 1172.5 82.7537C1174 75.2537 1176.5 71.2537 1179 67.7537C1181.5 64.2537 1187.5 56.7537 1187.5 56.7537C1187.5 56.7537 1195 49.2537 1200 46.2537C1205 43.2537 1218.5 40.7537 1223.5 46.2537C1228.5 51.7537 1238 129.754 1235.5 136.754C1233 143.754 1221.5 140.254 1216.5 141.254C1211.5 142.254 1204.5 141.254 1200 149.754C1195.5 158.254 1218 284.754 1211.5 295.754C1205 306.754 1133 312.754 1122 310.254C1111 307.754 1107 101.254 1102.5 96.2537C1098 91.2537 1082.5 82.7537 1078.5 79.7537C1074.5 76.7537 1073.5 67.7537 1078.5 64.2537ZM1137 230.254C1131.5 217.754 1133.5 207.254 1130 214.254C1126.5 221.254 1130 257.754 1130 257.754C1130 257.754 1133 289.754 1137 292.754C1141 295.754 1167.5 295.254 1172.5 290.254C1177.5 285.254 1169 277.754 1171.5 271.754C1174 265.754 1179 257.754 1179 257.754C1179 257.754 1185.5 247.754 1187.5 244.254C1189.5 240.754 1190 224.254 1187.5 217.754C1185 211.254 1179 194.254 1179 194.254C1179 194.254 1171.5 161.754 1169 176.254C1166.5 190.754 1168.22 178.438 1166.5 193.254C1164.78 208.07 1164.5 217.754 1164.5 220.754C1164.5 223.754 1162.5 240.254 1159 244.254C1155.5 248.254 1154 250.254 1148 247.754C1142 245.254 1142.5 242.754 1137 230.254Z" fill="#FFFDFD"/>
<path fill-rule="evenodd" clip-rule="evenodd" d="M1271.5 48.7536C1278.5 42.2536 1400 44.7535 1404.5 48.7536C1409 52.7537 1410.5 96.7536 1406.5 114.754C1402.5 132.754 1353 228.754 1359.5 233.254C1366 237.754 1399.5 229.254 1406.5 233.254C1413.5 237.254 1412 291.754 1406.5 295.754C1401 299.754 1279 299.254 1271.5 295.754C1264 292.254 1260.5 256.246 1271.5 233.254C1282.5 210.262 1320 116.754 1318 110.754C1316 104.754 1277.5 113.754 1271.5 110.754C1265.5 107.754 1264.5 55.2536 1271.5 48.7536ZM1308 64.7536C1307 62.7535 1291 61.7537 1287.5 64.7536C1284 67.7535 1283.5 93.7535 1287.5 96.7536C1291.5 99.7537 1310 98.7535 1312.5 96.7536C1315 94.7537 1314.5 90.2537 1312.5 88.2536C1310.5 86.2535 1303.5 86.7537 1302 85.2536C1300.5 83.7535 1300.5 75.7537 1302 73.2536C1303.5 70.7535 1307 71.7537 1308 69.7536C1309 67.7535 1309 66.7537 1308 64.7536ZM1315.5 277.254C1314.5 278.754 1313 282.754 1315.5 284.754C1318 286.754 1365 287.254 1368.5 284.754C1372 282.254 1364.5 268.754 1366 266.254C1367.5 263.754 1372 264.754 1375 263.254C1378 261.754 1385.5 252.254 1383.5 249.754C1381.5 247.254 1346 250.754 1344 249.754C1342 248.754 1339.5 244.254 1339.5 244.254C1339.5 244.254 1337.5 242.254 1334.5 244.254C1331.5 246.254 1336 251.254 1334.5 253.254C1333 255.254 1316.5 275.754 1315.5 277.254ZM1294 214.254C1297 218.254 1319 216.254 1322 214.254C1325 212.254 1336.5 181.754 1339.5 177.754C1342.5 173.754 1364.5 180.254 1368.5 177.754C1372.5 175.254 1390.5 116.745 1393 108.254C1395.5 99.7618 1393 85.2536 1393 85.2536C1393 85.2536 1390 75.2537 1386 73.2536C1382 71.2535 1373.5 71.2537 1371 73.2536C1368.5 75.2535 1367.5 77.7537 1366 80.7536C1364.5 83.7535 1364.5 94.2535 1366 96.7536C1367.5 99.2537 1374 112.254 1375 119.754C1376 127.254 1374.5 133.254 1372.5 138.754C1370.5 144.254 1368.5 148.254 1366 149.254C1363.5 150.254 1353.5 150.754 1350 149.254C1346.5 147.754 1344 149.254 1341 139.754C1338 130.254 1342 128.754 1339.5 119.754C1337 110.754 1330 108.254 1328.5 119.754C1327 131.254 1327.5 129.754 1326 134.754C1324.5 139.754 1291 210.254 1294 214.254Z" fill="#FFFDFD"/>
<path fill-rule="evenodd" clip-rule="evenodd" d="M932 211.254C936 206.254 1069 216.754 1078 211.254C1087 205.754 1078 180.254 1078 180.254C1078 180.254 1071 154.754 1070 150.254C1069 145.754 1064 134.254 1061 129.754C1058 125.254 1052 116.754 1047 111.754C1042 106.754 1038 103.254 1031 96.7537C1024 90.2537 1021 87.7537 1015 83.2537C1009 78.7537 1005.5 76.2537 997.5 74.7537C989.5 73.2537 986.5 72.7537 978 72.7537C969.5 72.7537 963.5 72.7537 955.5 72.7537C947.5 72.7537 940 73.2537 932 75.7537C924 78.2537 914 80.7537 906.5 86.2537C899 91.7537 889 101.754 889 101.754C889 101.754 877 113.754 872 121.754C867 129.754 865.5 130.254 859.5 141.754C853.5 153.254 854.5 153.754 850.5 163.254C846.5 172.754 846.5 184.754 846.5 184.754L845 211.254C845 211.254 846 222.254 847 237.254C848 252.254 852.5 261.254 854.5 263.754C856.5 266.254 860 272.246 869 283.254C878 294.262 874 291.254 885 301.254C896 311.254 892.5 307.754 906.5 316.754C920.5 325.754 915 322.754 929.5 328.754C944 334.754 947.5 334.254 951.5 334.254C955.5 334.254 971 336.254 981 334.254C991 332.254 998.5 329.254 1005.5 325.754C1012.5 322.254 1016 320.754 1023.5 316.754C1031 312.754 1037.5 305.754 1042.5 301.254C1047.5 296.754 1055 286.754 1058 283.254C1061 279.754 1064 277.254 1070 267.754C1076 258.254 1074 247.754 1073 243.254C1072 238.754 1071 238.754 1067.5 233.754C1064 228.754 1056 227.754 1051 227.754C1046 227.754 1031 227.754 1031 227.754C1031 227.754 1010 228.754 1005.5 227.754C1001 226.754 994.5 224.754 991 227.754C987.5 230.754 986.5 233.754 984 237.254C981.5 240.754 976.5 245.754 974.5 247.254C972.5 248.754 969 252.754 964 253.254C959 253.754 954 249.254 951 247.754C948 246.254 939.5 239.254 938 237.254C936.5 235.254 933 228.254 932 224.754C931 221.254 928 216.254 932 211.254ZM978 165.754C976.5 168.754 947 169.254 945 165.754C943 162.254 951.5 157.254 951.5 157.254C951.5 157.254 957 153.754 964 153.254C971 152.754 973 155.754 974.5 157.254C976 158.754 979.5 162.754 978 165.754ZM1042.5 180.254C1041 183.254 1034.5 190.254 1027.5 190.754C1020.5 191.254 1016 192.254 1006.5 192.754C997 193.254 992.5 194.754 978 194.754C963.5 194.754 953 194.754 941.5 194.754C930 194.754 920 194.754 915.5 199.254C911 203.754 911 206.254 908.5 211.254C906 216.254 905 227.254 902.5 237.254C900 247.254 900 253.254 902.5 261.254C905 269.254 905.5 268.754 911.5 274.254C917.5 279.754 921 280.754 927 277.754C933 274.754 933 274.254 938 271.754C943 269.254 947 267.754 955.5 267.754C964 267.754 968 267.754 973 266.254C978 264.754 981.5 261.754 988 258.254C994.5 254.754 995 248.762 996.5 247.254C998 245.746 1001.5 241.754 1005.5 240.754C1009.5 239.754 1015.5 239.254 1019 240.754C1022.5 242.254 1027.5 243.254 1027.5 247.254C1027.5 251.254 1023.5 253.254 1023.5 253.254L1005.5 258.254C1005.5 258.254 994.5 261.254 988 263.754C981.5 266.254 973 271.754 969 274.254C965 276.754 958 286.754 955.5 290.754C953 294.754 949 305.254 945 309.254C941 313.254 937.5 312.754 937.5 312.754C937.5 312.754 932 312.754 927 309.254C922 305.754 915.5 301.254 915.5 301.254L896 285.254C896 285.254 882.5 273.254 876.5 263.754C870.5 254.254 866.5 237.254 866.5 237.254C866.5 237.254 861.5 224.754 862.5 213.754C863.5 202.754 866 191.754 869 188.254C872 184.754 878.5 179.254 883.5 178.254C888.5 177.254 906.5 175.254 911.5 176.254C916.5 177.254 918 179.246 933 182.254C948 185.262 984 182.254 988 182.254C992 182.254 991.5 182.754 998.5 180.254C1005.5 177.754 1007.5 174.754 1009 169.254C1010.5 163.754 1007.5 161.254 1005.5 157.254C1003.5 153.254 999.5 146.754 996.5 144.754C993.5 142.754 984 141.754 984 141.754C984 141.754 964 144.754 957.5 141.754C951 138.754 947.5 135.754 947.5 135.754C947.5 135.754 940 131.754 937.5 127.754C935 123.754 938 118.754 938 118.754L947.5 102.754C947.5 102.754 951 95.2537 957.5 91.7537C964 88.2537 976 89.2537 984 91.7537C992 94.2537 996.5 97.7537 1003.5 102.754C1010.5 107.754 1014 109.754 1019 118.754C1024 127.754 1015 138.254 1019 145.754C1023 153.254 1039.5 165.254 1042.5 169.254C1045.5 173.254 1044 177.254 1042.5 180.254Z" stroke="white" stroke-width="0.3"/>
<path fill-rule="evenodd" clip-rule="evenodd" d="M1078.5 64.2537C1083.5 60.7537 1163 50.7537 1169 53.7537C1175 56.7537 1172.5 64.2537 1169 67.7537C1165.5 71.2537 1153 72.2537 1153 72.2537L1102.5 75.2537C1102.5 75.2537 1098.5 78.7537 1102.5 82.7537C1106.5 86.7537 1110 80.7537 1114 85.2537C1118 89.7537 1109 101.754 1114 104.754C1119 107.754 1122.5 95.2537 1124.5 93.2537C1126.5 91.2537 1137 85.2537 1137 85.2537C1137 85.2537 1145.5 82.7537 1149 85.2537C1152.5 87.7537 1157 96.2537 1157 96.2537C1157 96.2537 1161 104.754 1162.5 110.254C1164 115.754 1160.5 121.754 1162.5 124.254C1164.5 126.754 1168 126.254 1172.5 124.254C1177 122.254 1178.5 116.254 1181.5 114.254C1184.5 112.254 1194.5 111.754 1200 114.254C1205.5 116.754 1209 124.254 1209 124.254C1209 124.254 1211.5 127.254 1216.5 124.254C1221.5 121.254 1214 67.7537 1211.5 64.2537C1209 60.7537 1207 59.2537 1203 64.2537C1199 69.2537 1184.5 97.7537 1181.5 99.2537C1178.5 100.754 1176 102.254 1172.5 99.2537C1169 96.2537 1171 90.2537 1172.5 82.7537C1174 75.2537 1176.5 71.2537 1179 67.7537C1181.5 64.2537 1187.5 56.7537 1187.5 56.7537C1187.5 56.7537 1195 49.2537 1200 46.2537C1205 43.2537 1218.5 40.7537 1223.5 46.2537C1228.5 51.7537 1238 129.754 1235.5 136.754C1233 143.754 1221.5 140.254 1216.5 141.254C1211.5 142.254 1204.5 141.254 1200 149.754C1195.5 158.254 1218 284.754 1211.5 295.754C1205 306.754 1133 312.754 1122 310.254C1111 307.754 1107 101.254 1102.5 96.2537C1098 91.2537 1082.5 82.7537 1078.5 79.7537C1074.5 76.7537 1073.5 67.7537 1078.5 64.2537ZM1137 230.254C1131.5 217.754 1133.5 207.254 1130 214.254C1126.5 221.254 1130 257.754 1130 257.754C1130 257.754 1133 289.754 1137 292.754C1141 295.754 1167.5 295.254 1172.5 290.254C1177.5 285.254 1169 277.754 1171.5 271.754C1174 265.754 1179 257.754 1179 257.754C1179 257.754 1185.5 247.754 1187.5 244.254C1189.5 240.754 1190 224.254 1187.5 217.754C1185 211.254 1179 194.254 1179 194.254C1179 194.254 1171.5 161.754 1169 176.254C1166.5 190.754 1168.22 178.438 1166.5 193.254C1164.78 208.07 1164.5 217.754 1164.5 220.754C1164.5 223.754 1162.5 240.254 1159 244.254C1155.5 248.254 1154 250.254 1148 247.754C1142 245.254 1142.5 242.754 1137 230.254Z" stroke="white" stroke-width="0.3"/>
<path fill-rule="evenodd" clip-rule="evenodd" d="M1271.5 48.7536C1278.5 42.2536 1400 44.7535 1404.5 48.7536C1409 52.7537 1410.5 96.7536 1406.5 114.754C1402.5 132.754 1353 228.754 1359.5 233.254C1366 237.754 1399.5 229.254 1406.5 233.254C1413.5 237.254 1412 291.754 1406.5 295.754C1401 299.754 1279 299.254 1271.5 295.754C1264 292.254 1260.5 256.246 1271.5 233.254C1282.5 210.262 1320 116.754 1318 110.754C1316 104.754 1277.5 113.754 1271.5 110.754C1265.5 107.754 1264.5 55.2536 1271.5 48.7536ZM1308 64.7536C1307 62.7535 1291 61.7537 1287.5 64.7536C1284 67.7535 1283.5 93.7535 1287.5 96.7536C1291.5 99.7537 1310 98.7535 1312.5 96.7536C1315 94.7537 1314.5 90.2537 1312.5 88.2536C1310.5 86.2535 1303.5 86.7537 1302 85.2536C1300.5 83.7535 1300.5 75.7537 1302 73.2536C1303.5 70.7535 1307 71.7537 1308 69.7536C1309 67.7535 1309 66.7537 1308 64.7536ZM1315.5 277.254C1314.5 278.754 1313 282.754 1315.5 284.754C1318 286.754 1365 287.254 1368.5 284.754C1372 282.254 1364.5 268.754 1366 266.254C1367.5 263.754 1372 264.754 1375 263.254C1378 261.754 1385.5 252.254 1383.5 249.754C1381.5 247.254 1346 250.754 1344 249.754C1342 248.754 1339.5 244.254 1339.5 244.254C1339.5 244.254 1337.5 242.254 1334.5 244.254C1331.5 246.254 1336 251.254 1334.5 253.254C1333 255.254 1316.5 275.754 1315.5 277.254ZM1294 214.254C1297 218.254 1319 216.254 1322 214.254C1325 212.254 1336.5 181.754 1339.5 177.754C1342.5 173.754 1364.5 180.254 1368.5 177.754C1372.5 175.254 1390.5 116.745 1393 108.254C1395.5 99.7618 1393 85.2536 1393 85.2536C1393 85.2536 1390 75.2537 1386 73.2536C1382 71.2535 1373.5 71.2537 1371 73.2536C1368.5 75.2535 1367.5 77.7537 1366 80.7536C1364.5 83.7535 1364.5 94.2535 1366 96.7536C1367.5 99.2537 1374 112.254 1375 119.754C1376 127.254 1374.5 133.254 1372.5 138.754C1370.5 144.254 1368.5 148.254 1366 149.254C1363.5 150.254 1353.5 150.754 1350 149.254C1346.5 147.754 1344 149.254 1341 139.754C1338 130.254 1342 128.754 1339.5 119.754C1337 110.754 1330 108.254 1328.5 119.754C1327 131.254 1327.5 129.754 1326 134.754C1324.5 139.754 1291 210.254 1294 214.254Z" stroke="white" stroke-width="0.3"/>
</svg>
